<svg width="29" height="21" viewBox="0 0 29 21" fill="none" xmlns="http://www.w3.org/2000/svg">
<path d="M28.875 19.6875C28.875 20.0356 28.7367 20.3694 28.4906 20.6156C28.2444 20.8617 27.9106 21 27.5625 21H11.8125C11.4644 21 11.1306 20.8617 10.8844 20.6156C10.6383 20.3694 10.5 20.0356 10.5 19.6875C10.5 17.5989 11.3297 15.5959 12.8065 14.119C14.2834 12.6422 16.2864 11.8125 18.375 11.8125H21C23.0886 11.8125 25.0916 12.6422 26.5685 14.119C28.0453 15.5959 28.875 17.5989 28.875 19.6875ZM19.6875 0C18.6492 0 17.6341 0.307907 16.7708 0.884784C15.9074 1.46166 15.2345 2.2816 14.8371 3.24091C14.4398 4.20022 14.3358 5.25582 14.5384 6.27422C14.741 7.29262 15.241 8.22809 15.9752 8.96231C16.7094 9.69654 17.6449 10.1966 18.6633 10.3991C19.6817 10.6017 20.7373 10.4977 21.6966 10.1004C22.6559 9.70301 23.4758 9.0301 24.0527 8.16674C24.6296 7.30339 24.9375 6.28835 24.9375 5.25C24.9375 3.85761 24.3844 2.52226 23.3998 1.53769C22.4153 0.553123 21.0799 0 19.6875 0ZM7.875 0C6.83665 0 5.82162 0.307907 4.95826 0.884784C4.0949 1.46166 3.42199 2.2816 3.02463 3.24091C2.62727 4.20022 2.52331 5.25582 2.72588 6.27422C2.92845 7.29262 3.42846 8.22809 4.16269 8.96231C4.89692 9.69654 5.83238 10.1966 6.85078 10.3991C7.86918 10.6017 8.92478 10.4977 9.88409 10.1004C10.8434 9.70301 11.6633 9.0301 12.2402 8.16674C12.8171 7.30339 13.125 6.28835 13.125 5.25C13.125 3.85761 12.5719 2.52226 11.5873 1.53769C10.6027 0.553123 9.26739 0 7.875 0ZM7.875 19.6875C7.87305 18.3089 8.14466 16.9435 8.67411 15.6706C9.20356 14.3977 9.98031 13.2425 10.9594 12.2719C10.1581 11.9694 9.30894 11.8138 8.4525 11.8125H7.2975C5.36315 11.816 3.50902 12.5859 2.14122 13.9537C0.773426 15.3215 0.0034697 17.1756 0 19.11V19.6875C0 20.0356 0.138281 20.3694 0.384422 20.6156C0.630564 20.8617 0.964404 21 1.3125 21H8.11125C7.95845 20.5791 7.87855 20.1353 7.875 19.6875Z" fill="#455A64"/>
</svg>
