<svg width="42" height="34" viewBox="0 0 42 34" fill="none" xmlns="http://www.w3.org/2000/svg">
<path d="M37.8 0H4.2C1.89 0 0.021 1.9125 0.021 4.25L0 29.75C0 32.0875 1.89 34 4.2 34H37.8C40.11 34 42 32.0875 42 29.75V4.25C42 1.9125 40.11 0 37.8 0ZM36.96 9.03125L22.113 18.4237C21.441 18.8488 20.559 18.8488 19.887 18.4237L5.04 9.03125C4.82943 8.91164 4.64503 8.75003 4.49797 8.55621C4.3509 8.3624 4.24423 8.1404 4.18441 7.90366C4.12459 7.66692 4.11286 7.42036 4.14993 7.1789C4.187 6.93744 4.27211 6.7061 4.40009 6.49889C4.52808 6.29168 4.69628 6.11289 4.89452 5.97336C5.09277 5.83384 5.31693 5.73646 5.55344 5.68713C5.78995 5.63781 6.03389 5.63755 6.2705 5.68639C6.50712 5.73523 6.73147 5.83213 6.93 5.97125L21 14.875L35.07 5.97125C35.2685 5.83213 35.4929 5.73523 35.7295 5.68639C35.9661 5.63755 36.21 5.63781 36.4466 5.68713C36.6831 5.73646 36.9072 5.83384 37.1055 5.97336C37.3037 6.11289 37.4719 6.29168 37.5999 6.49889C37.7279 6.7061 37.813 6.93744 37.8501 7.1789C37.8871 7.42036 37.8754 7.66692 37.8156 7.90366C37.7558 8.1404 37.6491 8.3624 37.502 8.55621C37.355 8.75003 37.1706 8.91164 36.96 9.03125Z" fill="white"/>
</svg>
