<svg width="29" height="23" viewBox="0 0 29 23" fill="none" xmlns="http://www.w3.org/2000/svg">
<path d="M26.7937 0.692092C26.368 0.367179 25.8712 0.14824 25.3441 0.0533732C24.8171 -0.0414941 24.275 -0.00956589 23.7628 0.146518L6.93081 4.8142H5.05161C3.71184 4.8142 2.42694 5.34643 1.47958 6.29379C0.532221 7.24115 0 8.52604 0 9.86581C0 11.2056 0.532221 12.4905 1.47958 13.4378C2.42694 14.3852 3.71184 14.9174 5.05161 14.9174H6.9207H7.07225V19.969C7.07225 20.7729 7.39158 21.5438 7.96 22.1122C8.52842 22.6807 9.29935 23 10.1032 23C10.9071 23 11.678 22.6807 12.2464 22.1122C12.8148 21.5438 13.1342 20.7729 13.1342 19.969V16.8067L23.4294 19.969C23.8467 20.1385 24.2923 20.2276 24.7428 20.2317C25.4205 20.2321 26.0825 20.0279 26.6422 19.6457C27.1577 19.2968 27.5782 18.825 27.8657 18.2729C28.1532 17.7208 28.2987 17.1058 28.289 16.4834V3.73316C28.2929 3.14498 28.1599 2.56397 27.9003 2.03613C27.6408 1.50829 27.2619 1.04813 26.7937 0.692092Z" fill="#455A64"/>
</svg>
