<svg width="250" height="196" viewBox="0 0 250 196" fill="none" xmlns="http://www.w3.org/2000/svg">
<path fill-rule="evenodd" clip-rule="evenodd" d="M205 174V108C205 105.083 203.841 102.285 201.778 100.222C199.715 98.1589 196.917 97 194 97H181.108C172.36 96.9952 163.973 93.5174 157.788 87.331L148.658 78.223C146.601 76.1653 143.813 75.0064 140.903 75H115.108C112.191 75.0006 109.393 76.16 107.331 78.223L98.223 87.331C92.0357 93.5201 83.6434 96.9981 74.892 97H62C59.0826 97 56.2847 98.1589 54.2218 100.222C52.1589 102.285 51 105.083 51 108V174C51 176.917 52.1589 179.715 54.2218 181.778C56.2847 183.841 59.0826 185 62 185H194C196.917 185 199.715 183.841 201.778 181.778C203.841 179.715 205 176.917 205 174ZM62 86C56.1652 86 50.5695 88.3179 46.4437 92.4436C42.3179 96.5695 40 102.165 40 108L40 174C40 179.835 42.3179 185.431 46.4437 189.556C50.5695 193.682 56.1652 196 62 196H194C199.835 196 205.431 193.682 209.556 189.556C213.682 185.431 216 179.835 216 174V108C216 102.165 213.682 96.5695 209.556 92.4436C205.431 88.3179 199.835 86 194 86H181.108C175.274 85.9988 169.679 83.6801 165.554 79.554L156.446 70.446C152.321 66.3199 146.726 64.0012 140.892 64H115.108C109.274 64.0012 103.679 66.3199 99.554 70.446L90.446 79.554C86.3212 83.6801 80.7263 85.9988 74.892 86H62Z" fill="url(#paint0_linear_327_2576)"/>
<path fill-rule="evenodd" clip-rule="evenodd" d="M128 163C135.293 163 142.288 160.103 147.445 154.945C152.603 149.788 155.5 142.793 155.5 135.5C155.5 128.207 152.603 121.212 147.445 116.055C142.288 110.897 135.293 108 128 108C120.707 108 113.712 110.897 108.555 116.055C103.397 121.212 100.5 128.207 100.5 135.5C100.5 142.793 103.397 149.788 108.555 154.945C113.712 160.103 120.707 163 128 163ZM128 174C138.211 174 148.003 169.944 155.224 162.724C162.444 155.503 166.5 145.711 166.5 135.5C166.5 125.289 162.444 115.497 155.224 108.276C148.003 101.056 138.211 97 128 97C117.789 97 107.997 101.056 100.776 108.276C93.5562 115.497 89.5 125.289 89.5 135.5C89.5 145.711 93.5562 155.503 100.776 162.724C107.997 169.944 117.789 174 128 174Z" fill="url(#paint1_linear_327_2576)"/>
<path d="M73 113.5C73 114.959 72.4205 116.358 71.3891 117.389C70.3576 118.421 68.9587 119 67.5 119C66.0413 119 64.6424 118.421 63.6109 117.389C62.5795 116.358 62 114.959 62 113.5C62 112.041 62.5795 110.642 63.6109 109.611C64.6424 108.579 66.0413 108 67.5 108C68.9587 108 70.3576 108.579 71.3891 109.611C72.4205 110.642 73 112.041 73 113.5Z" fill="url(#paint2_linear_327_2576)"/>
<rect x="73.8067" y="15.043" width="14.0427" height="14.0427" rx="1.5" transform="rotate(-45 73.8067 15.043)" stroke="#FF3D00"/>
<path d="M77 55.6643C81.5714 60.2853 92.2381 51.8135 97 47" stroke="#286EE6"/>
<rect x="181.5" y="67.5" width="16" height="8" rx="1.5" stroke="#F6C338"/>
<rect x="150.5" y="0.5" width="6" height="8" rx="1.5" stroke="#EB01FF"/>
<rect x="5.5" y="86.5" width="3" height="3" rx="1.5" stroke="#EB01FF"/>
<rect x="241.632" y="82.1654" width="3" height="3" rx="1.5" transform="rotate(-40.4962 241.632 82.1654)" stroke="#EB01FF"/>
<path d="M1 75C8.66667 57 11.7333 76.5 24 60" stroke="#451ECC"/>
<path d="M230.741 76.3428C224.882 57.676 239.877 70.5132 238.49 49.9999" stroke="#451ECC"/>
<path d="M3.89133 78.4226C12.777 73.1644 9.57067 82.6167 20.6733 79.5269" stroke="#9663FF"/>
<path d="M235.163 77.0678C238.505 67.2988 242.205 76.5691 248.642 67.0094" stroke="#9663FF"/>
<path d="M123.222 24.7404C142.553 21.7852 127.41 34.5185 147.801 36.2006" stroke="#FF3D00"/>
<path d="M52.5245 33.0816C52.6741 32.6209 53.3259 32.6209 53.4755 33.0816L55.4432 39.1373C55.644 39.7553 56.2199 40.1738 56.8697 40.1738H63.2371C63.7215 40.1738 63.9229 40.7936 63.531 41.0783L58.3797 44.8209C57.854 45.2029 57.634 45.8799 57.8348 46.498L59.8024 52.5537C59.9521 53.0143 59.4248 53.3974 59.033 53.1127L53.8817 49.3701C53.3559 48.9881 52.6441 48.9881 52.1183 49.3701L46.967 53.1127C46.5752 53.3974 46.0479 53.0144 46.1976 52.5537L48.1652 46.498C48.366 45.8799 48.146 45.2029 47.6203 44.8209L42.469 41.0783C42.0771 40.7936 42.2785 40.1738 42.7629 40.1738H49.1303C49.7801 40.1738 50.356 39.7553 50.5568 39.1373L52.5245 33.0816Z" stroke="#069B5A"/>
<path d="M197.026 8.97583C197.179 8.5218 197.821 8.5218 197.974 8.97583L200.052 15.1522C200.258 15.7626 200.83 16.1738 201.474 16.1738H208.123C208.612 16.1738 208.811 16.8025 208.411 17.0831L203.092 20.8139C202.548 21.1957 202.32 21.8902 202.532 22.5203L204.578 28.5989C204.732 29.0565 204.212 29.445 203.816 29.1677L198.361 25.341C197.844 24.9784 197.156 24.9784 196.639 25.341L191.183 29.1677C190.788 29.445 190.268 29.0565 190.422 28.5989L192.468 22.5203C192.68 21.8902 192.452 21.1957 191.908 20.8139L186.589 17.0831C186.189 16.8025 186.388 16.1738 186.877 16.1738H193.526C194.17 16.1738 194.742 15.7626 194.948 15.1522L197.026 8.97583Z" stroke="#069B5A"/>
<defs>
<linearGradient id="paint0_linear_327_2576" x1="128" y1="64" x2="128" y2="196" gradientUnits="userSpaceOnUse">
<stop stop-color="#451ECC"/>
<stop offset="1" stop-color="#E628D3" stop-opacity="0.79"/>
</linearGradient>
<linearGradient id="paint1_linear_327_2576" x1="128" y1="97" x2="128" y2="174" gradientUnits="userSpaceOnUse">
<stop stop-color="#451ECC"/>
<stop offset="1" stop-color="#E628D3" stop-opacity="0.79"/>
</linearGradient>
<linearGradient id="paint2_linear_327_2576" x1="67.5" y1="108" x2="67.5" y2="119" gradientUnits="userSpaceOnUse">
<stop stop-color="#451ECC"/>
<stop offset="1" stop-color="#E628D3" stop-opacity="0.79"/>
</linearGradient>
</defs>
</svg>
