<svg width="40" height="37" viewBox="0 0 40 37" fill="none" xmlns="http://www.w3.org/2000/svg">
<path d="M31.5313 14.6233C31.5313 12.4604 29.7636 10.7015 27.5899 10.7015H24.7639L19.9987 2.80101C19.6476 2.22161 19.1523 1.74202 18.5606 1.40852C17.969 1.07501 17.3009 0.898829 16.6209 0.896973H5.91212V4.81878H16.6209L20.1682 10.7015H3.94141C1.76772 10.7015 0 12.4604 0 14.6233V32.2714C0 34.4343 1.76772 36.1932 3.94141 36.1932H27.5899C29.7636 36.1932 31.5313 34.4343 31.5313 32.2714V26.3887L39.4141 30.3105V16.5842L31.5313 20.506V14.6233ZM27.5938 32.2714H3.94141V14.6233H27.5899L27.5919 22.4669H27.5899V24.4278L27.5919 24.4298L27.5938 32.2714Z" fill="white"/>
</svg>
