<svg width="8" height="8" viewBox="0 0 8 8" fill="none" xmlns="http://www.w3.org/2000/svg">
<path d="M4.48748 4.00002L7.17212 1.31539C7.30665 1.18085 7.30665 0.962727 7.17212 0.8282C7.03758 0.69366 6.81944 0.69366 6.68492 0.8282L4.00027 3.51284L1.31563 0.8282C1.18109 0.69366 0.962971 0.69366 0.828444 0.8282C0.693917 0.96274 0.693904 1.18086 0.828444 1.31539L3.51308 4.00002L0.828444 6.68466C0.693904 6.8192 0.693904 7.03732 0.828444 7.17185C0.962984 7.30639 1.18111 7.30638 1.31563 7.17185L4.00027 4.48721L6.68489 7.17185C6.81943 7.30639 7.03757 7.30638 7.17209 7.17185C7.30662 7.03731 7.30662 6.81919 7.17209 6.68466L4.48748 4.00002Z" fill="#C4C4C4"/>
</svg>
