<svg width="39" height="26" viewBox="0 0 39 26" fill="none" xmlns="http://www.w3.org/2000/svg">
<path d="M12.6556 13.5146C13.0222 12.0489 13.7801 10.7075 14.8499 9.63078C15.9197 8.55401 17.2622 7.78138 18.7371 7.39367C20.2119 7.00596 21.765 7.01739 23.2338 7.42679C24.7027 7.83618 26.0335 8.6285 27.087 9.7209C27.7866 9.49055 28.5151 9.35729 29.2517 9.32493V9.07981C29.2517 4.39987 25.7359 0.604248 21.4005 0.604248C18.302 0.604248 15.6455 2.56145 14.3688 5.37658C13.4198 4.72664 12.2947 4.37507 11.1406 4.36781C7.73907 4.36781 4.98353 7.34133 4.98353 11.0106C4.98353 11.4066 5.02927 11.7912 5.09215 12.1665C2.4681 12.4229 0.413825 15.0778 0.413825 17.974C0.413825 18.0041 0.421448 18.0286 0.421448 18.0588C0.419542 18.0852 0.404297 18.1116 0.404297 18.138C0.404297 19.2976 0.812102 20.3573 1.47336 21.2133C1.94431 21.8438 2.55922 22.3553 3.26792 22.7059C3.97663 23.0565 4.75907 23.2364 5.55141 23.2309H7.95441C7.46308 22.289 7.20323 21.2457 7.19597 20.1857C7.19701 18.6234 7.73965 17.1088 8.73329 15.8947C9.72692 14.6806 11.1114 13.8405 12.6556 13.5146ZM34.4941 17.1538C34.4465 17.1538 34.3989 17.167 34.3512 17.1688C34.3646 17.0293 34.3931 16.8935 34.3931 16.7502C34.3931 16.0904 34.2618 15.4371 34.0065 14.8275C33.7513 14.218 33.3772 13.6642 32.9056 13.1977C32.434 12.7312 31.8741 12.3613 31.258 12.1089C30.6418 11.8566 29.9815 11.7269 29.3146 11.7271C28.2417 11.7287 27.1974 12.0696 26.3342 12.7001C25.8132 11.7274 25.0347 10.9133 24.0821 10.3447C23.1295 9.77606 22.0386 9.47442 20.926 9.47201C19.2901 9.47201 17.7211 10.1151 16.5642 11.2597C15.4074 12.4043 14.7575 13.9568 14.7575 15.5755C14.7575 15.6189 14.7689 15.6566 14.7709 15.7C14.5449 15.6601 14.3162 15.6374 14.0867 15.6321C13.4034 15.6316 12.7286 15.7817 12.1113 16.0715C11.4939 16.3613 10.9496 16.7836 10.5178 17.3076C10.0861 17.8316 9.77769 18.4442 9.61512 19.1009C9.45256 19.7576 9.43988 20.4418 9.57801 21.104C9.79293 22.2317 10.3991 23.2498 11.2919 23.9824C12.1847 24.715 13.308 25.1161 14.4679 25.1164H34.8696V25.0806C35.9022 24.9916 36.8599 24.5107 37.5422 23.7386C38.2245 22.9666 38.5785 21.9632 38.53 20.9388C38.4815 19.9143 38.0342 18.9481 37.2819 18.2426C36.5296 17.537 35.5306 17.1469 34.4941 17.1538Z" fill="#451ECC"/>
</svg>
