<svg width="34" height="34" viewBox="0 0 34 34" fill="none" xmlns="http://www.w3.org/2000/svg">
<rect width="34" height="34" rx="4" fill="#11AA62"/>
<path d="M24.4804 7.65002H15.1304C14.0991 7.65002 13.2604 8.48872 13.2604 9.52002V13.26H9.52039C8.48909 13.26 7.65039 14.0987 7.65039 15.13V24.48C7.65039 25.5113 8.48909 26.35 9.52039 26.35H18.8704C19.9017 26.35 20.7404 25.5113 20.7404 24.48V20.74H24.4804C25.5117 20.74 26.3504 19.9013 26.3504 18.87V9.52002C26.3504 8.48872 25.5117 7.65002 24.4804 7.65002ZM9.52039 24.48V15.13H18.8704L18.8723 24.48H9.52039ZM24.4804 18.87H20.7404V15.13C20.7404 14.0987 19.9017 13.26 18.8704 13.26H15.1304V9.52002H24.4804V18.87Z" fill="white"/>
</svg>
