<svg width="28" height="28" viewBox="0 0 28 28" fill="none" xmlns="http://www.w3.org/2000/svg">
<path d="M9.54545 0H3.18182C1.42455 0 0 1.42455 0 3.18182V5.72727C0 7.48454 1.42455 8.90909 3.18182 8.90909H9.54545C11.3027 8.90909 12.7273 7.48454 12.7273 5.72727V3.18182C12.7273 1.42455 11.3027 0 9.54545 0Z" fill="#441ECB"/>
<path d="M24.8179 19.0908H18.4543C16.697 19.0908 15.2725 20.5154 15.2725 22.2726V24.8181C15.2725 26.5754 16.697 27.9999 18.4543 27.9999H24.8179C26.5752 27.9999 27.9997 26.5754 27.9997 24.8181V22.2726C27.9997 20.5154 26.5752 19.0908 24.8179 19.0908Z" fill="#441ECB"/>
<path d="M9.54545 10.1816H3.18182C1.42455 10.1816 0 11.6062 0 13.3635V24.818C0 26.5753 1.42455 27.9998 3.18182 27.9998H9.54545C11.3027 27.9998 12.7273 26.5753 12.7273 24.818V13.3635C12.7273 11.6062 11.3027 10.1816 9.54545 10.1816Z" fill="#441ECB"/>
<path d="M24.8179 0H18.4543C16.697 0 15.2725 1.42455 15.2725 3.18182V14.6364C15.2725 16.3936 16.697 17.8182 18.4543 17.8182H24.8179C26.5752 17.8182 27.9997 16.3936 27.9997 14.6364V3.18182C27.9997 1.42455 26.5752 0 24.8179 0Z" fill="#441ECB"/>
</svg>
