<svg width="20" height="19" viewBox="0 0 20 19" fill="none" xmlns="http://www.w3.org/2000/svg">
<path d="M9.58308 16.0109C10.4897 16.0109 11.3177 15.9122 12.0728 15.7416L10.389 14.0578C10.1274 14.0779 9.86195 14.0942 9.58308 14.0942C4.45504 14.0942 2.46841 10.4085 1.98733 9.30254C2.34857 8.4964 2.83646 7.75324 3.4325 7.10125L2.09275 5.7615C0.618829 7.35904 0.0601208 8.96808 0.0495792 8.99971C-0.0165264 9.19651 -0.0165264 9.40953 0.0495792 9.60633C0.0697042 9.66958 2.26812 16.0109 9.58308 16.0109ZM9.58308 2.59421C7.82262 2.59421 6.3765 2.97371 5.17091 3.53433L1.63562 0L0.280537 1.35508L17.5305 18.6051L18.8856 17.25L15.7049 14.0693C18.21 12.1996 19.1041 9.64658 19.1175 9.60633C19.1836 9.40953 19.1836 9.19651 19.1175 8.99971C19.0965 8.9355 16.898 2.59421 9.58308 2.59421ZM14.3479 12.7123L12.1629 10.5273C12.345 10.1535 12.4581 9.74242 12.4581 9.30254C12.4581 7.72992 11.1557 6.42754 9.58308 6.42754C9.1432 6.42754 8.73208 6.54062 8.35929 6.72367L6.62662 4.991C7.57778 4.6646 8.57751 4.50225 9.58308 4.51087C14.7111 4.51087 16.6977 8.19662 17.1788 9.30254C16.8894 9.96571 16.0614 11.547 14.3479 12.7123Z" fill="#451ECC"/>
</svg>
