<svg width="21" height="21" viewBox="0 0 21 21" fill="none" xmlns="http://www.w3.org/2000/svg">
<path d="M19.6201 20.975C20.2422 20.975 20.7467 20.4706 20.7467 19.8484V1.68886C20.7467 1.06659 20.2422 0.562256 19.6201 0.562256H1.46059C0.838242 0.562256 0.333984 1.06659 0.333984 1.68886V19.8484C0.333984 20.4706 0.838242 20.975 1.46059 20.975H19.6201Z" fill="#395185"/>
<path d="M14.4186 20.9753V13.0704H17.072L17.4693 9.98972H14.4186V8.02276C14.4186 7.13082 14.6664 6.52298 15.9454 6.52298L17.5768 6.52226V3.76695C17.2945 3.72939 16.3262 3.64551 15.1996 3.64551C12.8476 3.64551 11.2373 5.08118 11.2373 7.71776V9.98972H8.57715V13.0704H11.2373V20.9753H14.4186Z" fill="white"/>
</svg>
