<svg width="725" height="551" viewBox="0 0 725 551" fill="none" xmlns="http://www.w3.org/2000/svg">
<g filter="url(#filter0_d_222_178)">
<g clip-path="url(#clip0_222_178)">
<rect x="88" y="85" width="544.777" height="372" rx="21.7911" fill="white"/>
<rect x="264.303" y="113.209" width="59.9431" height="59.9431" rx="7.05213" fill="#00BFFF"/>
<path d="M315.62 140.134L312.741 142.158V135.603C312.741 133.354 311.942 131.41 310.342 129.771C308.743 128.132 306.824 127.313 304.585 127.313H284.052C281.813 127.313 279.894 128.132 278.295 129.771C276.696 131.41 275.897 133.354 275.897 135.603C275.897 136.182 276.088 136.664 276.472 137.049C276.856 137.435 277.336 137.628 277.911 137.628C278.551 137.628 279.063 137.435 279.447 137.049C279.83 136.664 280.022 136.182 280.022 135.603C280.022 134.446 280.422 133.466 281.222 132.663C282.021 131.86 282.965 131.458 284.052 131.458H304.585C305.673 131.458 306.616 131.86 307.416 132.663C308.216 133.466 308.615 134.446 308.615 135.603V141.966L305.737 139.845C304.521 139.138 303.594 139.363 302.954 140.52C302.187 141.741 302.379 142.705 303.53 143.412L310.726 147.942L318.018 143.412C319.106 142.705 319.33 141.741 318.69 140.52C317.731 139.556 316.707 139.427 315.62 140.134ZM310.726 149.967C310.087 149.967 309.575 150.16 309.191 150.545C308.807 150.931 308.615 151.413 308.615 151.991C308.615 153.148 308.216 154.128 307.416 154.931C306.616 155.735 305.673 156.136 304.585 156.136H284.052C282.965 156.136 282.021 155.735 281.222 154.931C280.422 154.128 280.022 153.148 280.022 151.991V145.629L282.901 147.75C283.029 147.75 283.221 147.782 283.477 147.846C283.732 147.91 283.924 147.942 284.052 147.942C284.564 147.942 285.108 147.653 285.683 147.075C286.451 145.854 286.259 144.89 285.108 144.183L277.911 139.652L270.619 144.183C269.532 144.89 269.308 145.854 269.948 147.075C270.651 148.167 271.611 148.392 272.826 147.75L275.705 145.629V151.991C275.705 154.241 276.504 156.185 278.103 157.823C279.703 159.462 281.622 160.282 283.86 160.282H304.394C306.632 160.282 308.551 159.462 310.15 157.823C311.75 156.185 312.549 154.241 312.549 151.991C312.613 151.413 312.469 150.931 312.117 150.545C311.766 150.16 311.302 149.967 310.726 149.967Z" fill="white"/>
<rect x="447.659" y="171.389" width="59.9431" height="59.9431" rx="7.05213" fill="#451ECC"/>
<path d="M478.629 209.103H476.881V202.11H475.132L478.629 209.103ZM476.881 195.116H476.898H476.881ZM492.616 202.11C492.616 204.176 492.209 206.222 491.418 208.131C490.627 210.04 489.468 211.775 488.007 213.236C486.546 214.697 484.811 215.856 482.902 216.647C480.993 217.438 478.947 217.845 476.881 217.845C474.814 217.845 472.768 217.438 470.859 216.647C468.95 215.856 467.216 214.697 465.754 213.236C464.293 211.775 463.134 210.04 462.344 208.131C461.553 206.222 461.146 204.176 461.146 202.11C461.146 197.936 462.804 193.934 465.754 190.983C468.705 188.032 472.708 186.375 476.881 186.375C481.054 186.375 485.056 188.032 488.007 190.983C490.958 193.934 492.616 197.936 492.616 202.11Z" stroke="white" strokeWidth="3.52607" stroke-linecap="round" stroke-linejoin="round"/>
<rect x="172.625" y="275.408" width="59.9431" height="59.9431" rx="7.05213" fill="#F6C338"/>
<path d="M215.418 318.201H189.776V292.558H202.597V288.895H189.776C188.804 288.895 187.872 289.281 187.185 289.968C186.498 290.655 186.113 291.587 186.113 292.558V318.201C186.113 319.172 186.498 320.104 187.185 320.791C187.872 321.478 188.804 321.864 189.776 321.864H215.418C217.433 321.864 219.081 320.215 219.081 318.201V305.379H215.418V318.201ZM206.26 288.895V292.558H212.836L194.831 310.563L197.413 313.145L215.418 295.141V301.716H219.081V288.895H206.26Z" fill="white"/>
<rect x="401.82" y="303.616" width="105.682" height="105.682" rx="7.05213" fill="#11AA62"/>
<path d="M477.911 327.394H448.848C445.643 327.394 443.036 330.001 443.036 333.207V344.832H431.411C428.205 344.832 425.598 347.439 425.598 350.644V379.707C425.598 382.912 428.205 385.519 431.411 385.519H460.473C463.679 385.519 466.286 382.912 466.286 379.707V368.082H477.911C481.116 368.082 483.723 365.475 483.723 362.269V333.207C483.723 330.001 481.116 327.394 477.911 327.394ZM431.411 379.707V350.644H460.473L460.479 379.707H431.411ZM477.911 362.269H466.286V350.644C466.286 347.439 463.679 344.832 460.473 344.832H448.848V333.207H477.911V362.269Z" fill="white"/>
<g filter="url(#filter1_d_222_178)">
<path d="M126.787 205.352C126.787 198.746 132.142 193.391 138.747 193.391H274.224C276.393 193.391 278.521 192.802 280.38 191.685L286.867 187.791C287.403 187.47 288.083 187.515 288.571 187.906L293.87 192.147C294.876 192.952 296.127 193.391 297.416 193.391V193.391C300.55 193.391 303.09 195.932 303.09 199.065V229.949C303.09 236.555 297.735 241.91 291.129 241.91H138.747C132.142 241.91 126.787 236.555 126.787 229.949V205.352Z" fill="white"/>
<path d="M302.342 199.065V229.949C302.342 236.142 297.322 241.162 291.129 241.162H138.747C132.555 241.162 127.534 236.142 127.534 229.949V205.352C127.534 199.159 132.554 194.139 138.747 194.139H274.224C276.529 194.139 278.79 193.512 280.765 192.326L287.252 188.432C287.52 188.271 287.86 188.294 288.104 188.49L293.403 192.731C294.542 193.642 295.957 194.139 297.416 194.139C300.137 194.139 302.342 196.345 302.342 199.065Z" stroke="#EBEBEB" strokeWidth="1.4951"/>
</g>
<path d="M145.738 224.649V213.74H149.424C150.277 213.74 150.976 213.886 151.523 214.177C152.07 214.465 152.475 214.861 152.738 215.365C153 215.869 153.132 216.443 153.132 217.085C153.132 217.728 153 218.298 152.738 218.795C152.475 219.292 152.072 219.683 151.528 219.967C150.985 220.248 150.291 220.388 149.446 220.388H146.463V219.195H149.403C149.985 219.195 150.454 219.11 150.809 218.939C151.168 218.769 151.427 218.527 151.587 218.215C151.75 217.899 151.832 217.522 151.832 217.085C151.832 216.649 151.75 216.267 151.587 215.94C151.424 215.613 151.163 215.361 150.804 215.184C150.445 215.003 149.971 214.912 149.382 214.912H147.059V224.649H145.738ZM150.873 219.749L153.558 224.649H152.024L149.382 219.749H150.873ZM158.444 224.82C157.656 224.82 156.976 224.646 156.404 224.298C155.836 223.946 155.397 223.456 155.088 222.828C154.783 222.195 154.63 221.46 154.63 220.622C154.63 219.784 154.783 219.046 155.088 218.406C155.397 217.764 155.827 217.263 156.377 216.904C156.931 216.542 157.578 216.361 158.316 216.361C158.743 216.361 159.163 216.432 159.579 216.574C159.994 216.716 160.372 216.947 160.713 217.266C161.054 217.583 161.326 218.002 161.528 218.524C161.731 219.046 161.832 219.688 161.832 220.452V220.985H155.525V219.898H160.554C160.554 219.436 160.461 219.024 160.277 218.662C160.095 218.3 159.836 218.014 159.499 217.804C159.165 217.595 158.771 217.49 158.316 217.49C157.816 217.49 157.382 217.614 157.017 217.863C156.654 218.108 156.376 218.428 156.18 218.822C155.985 219.216 155.887 219.639 155.887 220.09V220.814C155.887 221.432 155.994 221.956 156.207 222.385C156.424 222.812 156.724 223.137 157.107 223.36C157.491 223.58 157.936 223.69 158.444 223.69C158.774 223.69 159.073 223.644 159.339 223.552C159.609 223.456 159.842 223.314 160.037 223.126C160.232 222.934 160.383 222.696 160.49 222.412L161.704 222.753C161.576 223.165 161.361 223.527 161.06 223.84C160.758 224.149 160.385 224.39 159.941 224.564C159.497 224.735 158.998 224.82 158.444 224.82ZM167.007 224.82C166.24 224.82 165.58 224.639 165.026 224.276C164.472 223.914 164.046 223.415 163.747 222.78C163.449 222.144 163.3 221.418 163.3 220.601C163.3 219.77 163.453 219.037 163.758 218.401C164.067 217.762 164.497 217.263 165.047 216.904C165.601 216.542 166.247 216.361 166.986 216.361C167.561 216.361 168.08 216.467 168.541 216.681C169.003 216.894 169.381 217.192 169.676 217.575C169.971 217.959 170.154 218.406 170.225 218.918H168.968C168.872 218.545 168.659 218.215 168.328 217.927C168.002 217.636 167.561 217.49 167.007 217.49C166.517 217.49 166.088 217.618 165.718 217.874C165.352 218.126 165.067 218.483 164.861 218.944C164.658 219.402 164.557 219.94 164.557 220.558C164.557 221.19 164.656 221.741 164.855 222.21C165.058 222.678 165.342 223.042 165.708 223.302C166.077 223.561 166.51 223.69 167.007 223.69C167.334 223.69 167.631 223.634 167.897 223.52C168.163 223.406 168.389 223.243 168.573 223.03C168.758 222.817 168.889 222.561 168.968 222.263H170.225C170.154 222.746 169.978 223.181 169.697 223.568C169.42 223.951 169.053 224.257 168.595 224.484C168.14 224.708 167.611 224.82 167.007 224.82ZM177.158 221.304V216.467H178.415V224.649H177.158V223.264H177.073C176.881 223.68 176.582 224.033 176.178 224.324C175.773 224.612 175.261 224.756 174.644 224.756C174.132 224.756 173.678 224.644 173.28 224.42C172.882 224.193 172.57 223.852 172.342 223.398C172.115 222.939 172.002 222.362 172.002 221.666V216.467H173.259V221.581C173.259 222.178 173.426 222.654 173.759 223.009C174.097 223.364 174.526 223.541 175.048 223.541C175.361 223.541 175.679 223.461 176.002 223.302C176.329 223.142 176.602 222.897 176.822 222.567C177.046 222.236 177.158 221.815 177.158 221.304ZM180.657 224.649V216.467H181.871V217.703H181.956C182.105 217.298 182.375 216.97 182.766 216.718C183.157 216.466 183.597 216.34 184.087 216.34C184.179 216.34 184.295 216.341 184.433 216.345C184.572 216.349 184.676 216.354 184.747 216.361V217.639C184.705 217.629 184.607 217.613 184.454 217.591C184.305 217.567 184.147 217.554 183.98 217.554C183.583 217.554 183.228 217.638 182.915 217.804C182.606 217.968 182.361 218.195 182.18 218.486C182.002 218.774 181.914 219.102 181.914 219.472V224.649H180.657ZM186.177 224.649V216.467H187.434V224.649H186.177ZM186.816 215.104C186.571 215.104 186.36 215.02 186.182 214.853C186.008 214.687 185.921 214.486 185.921 214.252C185.921 214.017 186.008 213.817 186.182 213.65C186.36 213.483 186.571 213.399 186.816 213.399C187.061 213.399 187.27 213.483 187.445 213.65C187.622 213.817 187.711 214.017 187.711 214.252C187.711 214.486 187.622 214.687 187.445 214.853C187.27 215.02 187.061 215.104 186.816 215.104ZM190.933 219.727V224.649H189.675V216.467H190.89V217.746H190.997C191.188 217.33 191.479 216.997 191.87 216.744C192.261 216.489 192.765 216.361 193.383 216.361C193.937 216.361 194.422 216.475 194.837 216.702C195.253 216.926 195.576 217.266 195.807 217.725C196.037 218.179 196.153 218.754 196.153 219.45V224.649H194.896V219.536C194.896 218.893 194.729 218.392 194.395 218.034C194.061 217.671 193.603 217.49 193.021 217.49C192.619 217.49 192.261 217.577 191.945 217.751C191.632 217.925 191.385 218.179 191.204 218.513C191.023 218.847 190.933 219.252 190.933 219.727ZM201.692 227.888C201.084 227.888 200.562 227.81 200.126 227.654C199.689 227.501 199.325 227.298 199.034 227.046C198.746 226.798 198.517 226.531 198.346 226.247L199.348 225.544C199.462 225.693 199.605 225.864 199.779 226.056C199.953 226.251 200.191 226.42 200.493 226.562C200.799 226.707 201.198 226.78 201.692 226.78C202.352 226.78 202.897 226.62 203.327 226.301C203.757 225.981 203.971 225.48 203.971 224.798V223.137H203.865C203.773 223.286 203.641 223.47 203.471 223.69C203.304 223.907 203.062 224.101 202.746 224.271C202.434 224.438 202.011 224.521 201.479 224.521C200.818 224.521 200.225 224.365 199.699 224.053C199.177 223.74 198.764 223.286 198.458 222.689C198.156 222.092 198.006 221.368 198.006 220.516C198.006 219.678 198.153 218.948 198.448 218.326C198.742 217.701 199.153 217.219 199.678 216.878C200.204 216.533 200.811 216.361 201.5 216.361C202.033 216.361 202.455 216.45 202.768 216.627C203.084 216.801 203.325 217 203.492 217.224C203.663 217.444 203.794 217.625 203.886 217.767H204.014V216.467H205.229V224.884C205.229 225.587 205.069 226.159 204.749 226.599C204.433 227.043 204.007 227.368 203.471 227.574C202.938 227.783 202.345 227.888 201.692 227.888ZM201.649 223.392C202.153 223.392 202.579 223.277 202.927 223.046C203.275 222.815 203.54 222.483 203.721 222.05C203.902 221.617 203.993 221.098 203.993 220.494C203.993 219.905 203.904 219.385 203.726 218.934C203.549 218.483 203.286 218.129 202.938 217.874C202.59 217.618 202.16 217.49 201.649 217.49C201.116 217.49 200.672 217.625 200.317 217.895C199.966 218.165 199.701 218.527 199.524 218.982C199.35 219.436 199.263 219.94 199.263 220.494C199.263 221.063 199.351 221.565 199.529 222.002C199.71 222.435 199.976 222.776 200.328 223.025C200.683 223.27 201.123 223.392 201.649 223.392ZM217.763 216.467C217.699 215.928 217.44 215.509 216.985 215.21C216.531 214.912 215.973 214.763 215.313 214.763C214.83 214.763 214.407 214.841 214.045 214.997C213.686 215.154 213.406 215.368 213.203 215.642C213.005 215.915 212.905 216.226 212.905 216.574C212.905 216.865 212.974 217.116 213.113 217.325C213.255 217.531 213.436 217.703 213.656 217.842C213.876 217.977 214.107 218.089 214.349 218.177C214.59 218.263 214.812 218.332 215.015 218.385L216.123 218.683C216.407 218.758 216.723 218.861 217.071 218.992C217.422 219.124 217.758 219.303 218.077 219.53C218.401 219.754 218.667 220.042 218.876 220.393C219.086 220.745 219.191 221.176 219.191 221.688C219.191 222.277 219.036 222.81 218.727 223.286C218.422 223.762 217.974 224.14 217.385 224.42C216.799 224.701 216.087 224.841 215.249 224.841C214.468 224.841 213.791 224.715 213.219 224.463C212.651 224.211 212.204 223.859 211.877 223.408C211.554 222.957 211.371 222.433 211.328 221.837H212.692C212.728 222.249 212.866 222.59 213.108 222.86C213.353 223.126 213.662 223.325 214.034 223.456C214.411 223.584 214.816 223.648 215.249 223.648C215.753 223.648 216.206 223.566 216.607 223.403C217.009 223.236 217.326 223.005 217.561 222.71C217.795 222.412 217.912 222.064 217.912 221.666C217.912 221.304 217.811 221.009 217.609 220.782C217.406 220.555 217.14 220.37 216.81 220.228C216.479 220.086 216.123 219.962 215.739 219.855L214.397 219.472C213.544 219.227 212.87 218.877 212.373 218.422C211.875 217.968 211.627 217.373 211.627 216.638C211.627 216.027 211.792 215.494 212.122 215.04C212.456 214.582 212.903 214.227 213.465 213.975C214.029 213.719 214.659 213.591 215.355 213.591C216.059 213.591 216.684 213.717 217.23 213.969C217.777 214.218 218.211 214.559 218.53 214.992C218.853 215.425 219.024 215.917 219.042 216.467H217.763ZM224.455 224.82C223.688 224.82 223.028 224.639 222.474 224.276C221.92 223.914 221.494 223.415 221.195 222.78C220.897 222.144 220.748 221.418 220.748 220.601C220.748 219.77 220.901 219.037 221.206 218.401C221.515 217.762 221.945 217.263 222.495 216.904C223.049 216.542 223.695 216.361 224.434 216.361C225.009 216.361 225.528 216.467 225.989 216.681C226.451 216.894 226.829 217.192 227.124 217.575C227.419 217.959 227.602 218.406 227.673 218.918H226.415C226.32 218.545 226.107 218.215 225.776 217.927C225.45 217.636 225.009 217.49 224.455 217.49C223.965 217.49 223.536 217.618 223.166 217.874C222.8 218.126 222.515 218.483 222.309 218.944C222.106 219.402 222.005 219.94 222.005 220.558C222.005 221.19 222.104 221.741 222.303 222.21C222.506 222.678 222.79 223.042 223.156 223.302C223.525 223.561 223.958 223.69 224.455 223.69C224.782 223.69 225.078 223.634 225.345 223.52C225.611 223.406 225.837 223.243 226.021 223.03C226.206 222.817 226.337 222.561 226.415 222.263H227.673C227.602 222.746 227.426 223.181 227.145 223.568C226.868 223.951 226.501 224.257 226.043 224.484C225.588 224.708 225.059 224.82 224.455 224.82ZM230.707 219.727V224.649H229.449V213.74H230.707V217.746H230.813C231.005 217.323 231.293 216.988 231.676 216.739C232.063 216.487 232.578 216.361 233.221 216.361C233.778 216.361 234.267 216.473 234.686 216.697C235.105 216.917 235.43 217.256 235.66 217.714C235.895 218.168 236.012 218.747 236.012 219.45V224.649H234.755V219.536C234.755 218.886 234.586 218.383 234.249 218.028C233.915 217.67 233.452 217.49 232.859 217.49C232.447 217.49 232.077 217.577 231.751 217.751C231.427 217.925 231.172 218.179 230.984 218.513C230.799 218.847 230.707 219.252 230.707 219.727ZM241.681 224.82C240.893 224.82 240.213 224.646 239.641 224.298C239.073 223.946 238.634 223.456 238.326 222.828C238.02 222.195 237.867 221.46 237.867 220.622C237.867 219.784 238.02 219.046 238.326 218.406C238.634 217.764 239.064 217.263 239.615 216.904C240.169 216.542 240.815 216.361 241.554 216.361C241.98 216.361 242.4 216.432 242.816 216.574C243.231 216.716 243.61 216.947 243.951 217.266C244.291 217.583 244.563 218.002 244.766 218.524C244.968 219.046 245.069 219.688 245.069 220.452V220.985H238.762V219.898H243.791C243.791 219.436 243.698 219.024 243.514 218.662C243.333 218.3 243.073 218.014 242.736 217.804C242.402 217.595 242.008 217.49 241.554 217.49C241.053 217.49 240.62 217.614 240.254 217.863C239.892 218.108 239.613 218.428 239.417 218.822C239.222 219.216 239.125 219.639 239.125 220.09V220.814C239.125 221.432 239.231 221.956 239.444 222.385C239.661 222.812 239.961 223.137 240.344 223.36C240.728 223.58 241.174 223.69 241.681 223.69C242.012 223.69 242.31 223.644 242.576 223.552C242.846 223.456 243.079 223.314 243.274 223.126C243.469 222.934 243.62 222.696 243.727 222.412L244.941 222.753C244.813 223.165 244.599 223.527 244.297 223.84C243.995 224.149 243.622 224.39 243.178 224.564C242.734 224.735 242.235 224.82 241.681 224.82ZM250.01 224.82C249.328 224.82 248.726 224.648 248.204 224.303C247.682 223.955 247.274 223.465 246.979 222.833C246.684 222.197 246.537 221.446 246.537 220.58C246.537 219.72 246.684 218.975 246.979 218.342C247.274 217.71 247.684 217.222 248.21 216.878C248.735 216.533 249.342 216.361 250.031 216.361C250.564 216.361 250.985 216.45 251.294 216.627C251.606 216.801 251.844 217 252.008 217.224C252.174 217.444 252.304 217.625 252.396 217.767H252.503V213.74H253.76V224.649H252.546V223.392H252.396C252.304 223.541 252.173 223.73 252.002 223.957C251.832 224.181 251.589 224.381 251.273 224.559C250.956 224.733 250.536 224.82 250.01 224.82ZM250.181 223.69C250.685 223.69 251.111 223.559 251.459 223.296C251.807 223.03 252.072 222.662 252.253 222.194C252.434 221.721 252.524 221.176 252.524 220.558C252.524 219.948 252.436 219.413 252.258 218.955C252.08 218.493 251.818 218.135 251.47 217.879C251.122 217.62 250.692 217.49 250.181 217.49C249.648 217.49 249.204 217.627 248.849 217.9C248.497 218.17 248.233 218.538 248.055 219.003C247.881 219.465 247.794 219.983 247.794 220.558C247.794 221.141 247.883 221.67 248.061 222.146C248.242 222.618 248.508 222.994 248.86 223.275C249.215 223.552 249.655 223.69 250.181 223.69ZM261.332 221.304V216.467H262.59V224.649H261.332V223.264H261.247C261.055 223.68 260.757 224.033 260.352 224.324C259.947 224.612 259.436 224.756 258.818 224.756C258.307 224.756 257.852 224.644 257.455 224.42C257.057 224.193 256.744 223.852 256.517 223.398C256.29 222.939 256.176 222.362 256.176 221.666V216.467H257.433V221.581C257.433 222.178 257.6 222.654 257.934 223.009C258.271 223.364 258.701 223.541 259.223 223.541C259.536 223.541 259.853 223.461 260.177 223.302C260.503 223.142 260.777 222.897 260.997 222.567C261.221 222.236 261.332 221.815 261.332 221.304ZM266.088 213.74V224.649H264.831V213.74H266.088ZM271.76 224.82C270.972 224.82 270.292 224.646 269.72 224.298C269.152 223.946 268.713 223.456 268.404 222.828C268.099 222.195 267.946 221.46 267.946 220.622C267.946 219.784 268.099 219.046 268.404 218.406C268.713 217.764 269.143 217.263 269.694 216.904C270.248 216.542 270.894 216.361 271.632 216.361C272.059 216.361 272.479 216.432 272.895 216.574C273.31 216.716 273.689 216.947 274.029 217.266C274.37 217.583 274.642 218.002 274.844 218.524C275.047 219.046 275.148 219.688 275.148 220.452V220.985H268.841V219.898H273.87C273.87 219.436 273.777 219.024 273.593 218.662C273.412 218.3 273.152 218.014 272.815 217.804C272.481 217.595 272.087 217.49 271.632 217.49C271.132 217.49 270.699 217.614 270.333 217.863C269.971 218.108 269.692 218.428 269.496 218.822C269.301 219.216 269.203 219.639 269.203 220.09V220.814C269.203 221.432 269.31 221.956 269.523 222.385C269.74 222.812 270.04 223.137 270.423 223.36C270.807 223.58 271.252 223.69 271.76 223.69C272.091 223.69 272.389 223.644 272.655 223.552C272.925 223.456 273.158 223.314 273.353 223.126C273.548 222.934 273.699 222.696 273.806 222.412L275.02 222.753C274.892 223.165 274.678 223.527 274.376 223.84C274.074 224.149 273.701 224.39 273.257 224.564C272.813 224.735 272.314 224.82 271.76 224.82Z" fill="black"/>
<g filter="url(#filter2_d_222_178)">
<path d="M324.247 360.4C324.247 353.794 318.892 348.439 312.286 348.439H224.648C221.795 348.439 219.037 347.42 216.87 345.565L214.298 343.364C213.676 342.831 212.741 342.898 212.202 343.514L208.974 347.198C208.283 347.987 207.285 348.439 206.237 348.439V348.439C204.227 348.439 202.597 350.069 202.597 352.078V384.215C202.597 390.82 207.952 396.175 214.558 396.175H312.286C318.892 396.175 324.247 390.82 324.247 384.215V360.4Z" fill="white"/>
<path d="M203.345 352.078V384.215C203.345 390.407 208.365 395.428 214.558 395.428H312.286C318.479 395.428 323.499 390.407 323.499 384.215V360.4C323.499 354.207 318.479 349.187 312.286 349.187H224.648C221.617 349.187 218.686 348.104 216.384 346.133L213.812 343.932C213.501 343.666 213.034 343.699 212.764 344.007L209.536 347.691C208.703 348.642 207.5 349.187 206.237 349.187C204.639 349.187 203.345 350.481 203.345 352.078Z" stroke="#EBEBEB" strokeWidth="1.4951"/>
</g>
<path d="M223.312 379.796V368.887H229.895V370.059H224.633V373.745H229.554V374.917H224.633V378.624H229.981V379.796H223.312ZM235.135 379.967C234.453 379.967 233.851 379.794 233.329 379.45C232.807 379.102 232.398 378.612 232.104 377.98C231.809 377.344 231.662 376.593 231.662 375.727C231.662 374.867 231.809 374.121 232.104 373.489C232.398 372.857 232.809 372.369 233.334 372.024C233.86 371.68 234.467 371.508 235.156 371.508C235.689 371.508 236.109 371.597 236.418 371.774C236.731 371.948 236.969 372.147 237.132 372.371C237.299 372.591 237.429 372.772 237.521 372.914H237.627V368.887H238.885V379.796H237.67V378.539H237.521C237.429 378.688 237.297 378.876 237.127 379.104C236.956 379.327 236.713 379.528 236.397 379.706C236.081 379.88 235.66 379.967 235.135 379.967ZM235.305 378.837C235.809 378.837 236.235 378.706 236.583 378.443C236.931 378.177 237.196 377.809 237.377 377.341C237.558 376.868 237.649 376.323 237.649 375.705C237.649 375.094 237.56 374.56 237.382 374.102C237.205 373.64 236.942 373.282 236.594 373.026C236.246 372.767 235.816 372.637 235.305 372.637C234.772 372.637 234.328 372.774 233.973 373.047C233.622 373.317 233.357 373.685 233.18 374.15C233.006 374.611 232.919 375.13 232.919 375.705C232.919 376.288 233.007 376.817 233.185 377.293C233.366 377.765 233.632 378.141 233.984 378.422C234.339 378.699 234.779 378.837 235.305 378.837ZM241.301 379.796V371.614H242.558V379.796H241.301ZM241.94 370.251C241.695 370.251 241.484 370.167 241.306 370C241.132 369.833 241.045 369.633 241.045 369.398C241.045 369.164 241.132 368.963 241.306 368.796C241.484 368.63 241.695 368.546 241.94 368.546C242.185 368.546 242.394 368.63 242.568 368.796C242.746 368.963 242.835 369.164 242.835 369.398C242.835 369.633 242.746 369.833 242.568 370C242.394 370.167 242.185 370.251 241.94 370.251ZM248.358 371.614V372.68H244.118V371.614H248.358ZM245.353 369.654H246.61V377.452C246.61 377.808 246.662 378.074 246.765 378.251C246.871 378.425 247.006 378.543 247.17 378.603C247.337 378.66 247.512 378.688 247.697 378.688C247.836 378.688 247.949 378.681 248.038 378.667C248.127 378.649 248.198 378.635 248.251 378.624L248.507 379.754C248.422 379.785 248.303 379.817 248.15 379.849C247.997 379.885 247.804 379.903 247.569 379.903C247.214 379.903 246.866 379.826 246.525 379.674C246.188 379.521 245.907 379.288 245.684 378.976C245.463 378.663 245.353 378.269 245.353 377.793V369.654ZM257.435 379.967C256.753 379.967 256.151 379.794 255.629 379.45C255.107 379.102 254.699 378.612 254.404 377.98C254.11 377.344 253.962 376.593 253.962 375.727C253.962 374.867 254.11 374.121 254.404 373.489C254.699 372.857 255.109 372.369 255.635 372.024C256.16 371.68 256.768 371.508 257.456 371.508C257.989 371.508 258.41 371.597 258.719 371.774C259.031 371.948 259.269 372.147 259.433 372.371C259.6 372.591 259.729 372.772 259.822 372.914H259.928V368.887H261.185V379.796H259.971V378.539H259.822C259.729 378.688 259.598 378.876 259.427 379.104C259.257 379.327 259.014 379.528 258.698 379.706C258.382 379.88 257.961 379.967 257.435 379.967ZM257.606 378.837C258.11 378.837 258.536 378.706 258.884 378.443C259.232 378.177 259.497 377.809 259.678 377.341C259.859 376.868 259.949 376.323 259.949 375.705C259.949 375.094 259.861 374.56 259.683 374.102C259.505 373.64 259.243 373.282 258.895 373.026C258.547 372.767 258.117 372.637 257.606 372.637C257.073 372.637 256.629 372.774 256.274 373.047C255.922 373.317 255.658 373.685 255.48 374.15C255.306 374.611 255.219 375.13 255.219 375.705C255.219 376.288 255.308 376.817 255.486 377.293C255.667 377.765 255.933 378.141 256.285 378.422C256.64 378.699 257.08 378.837 257.606 378.837ZM267.032 379.967C266.243 379.967 265.563 379.793 264.992 379.445C264.423 379.093 263.985 378.603 263.676 377.974C263.37 377.342 263.218 376.607 263.218 375.769C263.218 374.931 263.37 374.192 263.676 373.553C263.985 372.91 264.414 372.41 264.965 372.051C265.519 371.689 266.165 371.508 266.904 371.508C267.33 371.508 267.751 371.579 268.166 371.721C268.582 371.863 268.96 372.094 269.301 372.413C269.642 372.729 269.913 373.148 270.116 373.67C270.318 374.192 270.419 374.835 270.419 375.599V376.131H264.113V375.045H269.141C269.141 374.583 269.049 374.171 268.864 373.809C268.683 373.447 268.424 373.161 268.086 372.951C267.753 372.742 267.358 372.637 266.904 372.637C266.403 372.637 265.97 372.761 265.604 373.01C265.242 373.255 264.963 373.575 264.768 373.969C264.573 374.363 264.475 374.785 264.475 375.236V375.961C264.475 376.579 264.581 377.103 264.794 377.532C265.011 377.958 265.311 378.283 265.695 378.507C266.078 378.727 266.524 378.837 267.032 378.837C267.362 378.837 267.66 378.791 267.927 378.699C268.196 378.603 268.429 378.461 268.624 378.273C268.82 378.081 268.971 377.843 269.077 377.559L270.292 377.9C270.164 378.312 269.949 378.674 269.647 378.986C269.345 379.295 268.972 379.537 268.528 379.711C268.085 379.881 267.586 379.967 267.032 379.967ZM275.829 371.614V372.68H271.589V371.614H275.829ZM272.825 369.654H274.082V377.452C274.082 377.808 274.133 378.074 274.236 378.251C274.343 378.425 274.478 378.543 274.641 378.603C274.808 378.66 274.984 378.688 275.169 378.688C275.307 378.688 275.421 378.681 275.51 378.667C275.598 378.649 275.669 378.635 275.723 378.624L275.978 379.754C275.893 379.785 275.774 379.817 275.621 379.849C275.469 379.885 275.275 379.903 275.041 379.903C274.686 379.903 274.338 379.826 273.997 379.674C273.659 379.521 273.379 379.288 273.155 378.976C272.935 378.663 272.825 378.269 272.825 377.793V369.654ZM280.067 379.988C279.549 379.988 279.078 379.89 278.655 379.695C278.233 379.496 277.897 379.21 277.649 378.837C277.4 378.461 277.276 378.006 277.276 377.474C277.276 377.005 277.368 376.625 277.553 376.334C277.737 376.039 277.984 375.808 278.293 375.641C278.602 375.474 278.943 375.35 279.316 375.268C279.692 375.183 280.071 375.116 280.45 375.066C280.948 375.002 281.351 374.954 281.66 374.922C281.972 374.887 282.199 374.828 282.341 374.746C282.487 374.665 282.56 374.523 282.56 374.32V374.278C282.56 373.752 282.416 373.344 282.128 373.053C281.844 372.761 281.413 372.616 280.834 372.616C280.234 372.616 279.763 372.747 279.422 373.01C279.082 373.273 278.842 373.553 278.703 373.852L277.51 373.425C277.723 372.928 278.007 372.541 278.362 372.264C278.721 371.984 279.112 371.788 279.534 371.678C279.96 371.565 280.379 371.508 280.791 371.508C281.054 371.508 281.356 371.54 281.697 371.604C282.041 371.664 282.373 371.79 282.693 371.982C283.016 372.174 283.284 372.463 283.497 372.85C283.71 373.237 283.817 373.756 283.817 374.406V379.796H282.56V378.688H282.496C282.411 378.866 282.269 379.056 282.07 379.258C281.871 379.461 281.606 379.633 281.276 379.775C280.946 379.917 280.543 379.988 280.067 379.988ZM280.259 378.859C280.756 378.859 281.175 378.761 281.516 378.566C281.86 378.37 282.12 378.118 282.294 377.809C282.471 377.5 282.56 377.175 282.56 376.834V375.684C282.507 375.748 282.389 375.806 282.208 375.86C282.031 375.909 281.825 375.954 281.59 375.993C281.36 376.028 281.134 376.06 280.914 376.089C280.697 376.114 280.522 376.135 280.387 376.153C280.06 376.195 279.754 376.265 279.47 376.36C279.19 376.453 278.963 376.593 278.789 376.781C278.618 376.966 278.533 377.218 278.533 377.538C278.533 377.974 278.694 378.305 279.018 378.528C279.344 378.749 279.758 378.859 280.259 378.859ZM286.051 379.796V371.614H287.308V379.796H286.051ZM286.69 370.251C286.445 370.251 286.234 370.167 286.056 370C285.882 369.833 285.795 369.633 285.795 369.398C285.795 369.164 285.882 368.963 286.056 368.796C286.234 368.63 286.445 368.546 286.69 368.546C286.935 368.546 287.144 368.63 287.318 368.796C287.496 368.963 287.585 369.164 287.585 369.398C287.585 369.633 287.496 369.833 287.318 370C287.144 370.167 286.935 370.251 286.69 370.251ZM290.806 368.887V379.796H289.549V368.887H290.806ZM298.844 373.447L297.714 373.766C297.643 373.578 297.539 373.395 297.4 373.218C297.265 373.037 297.08 372.887 296.846 372.77C296.612 372.653 296.312 372.594 295.946 372.594C295.445 372.594 295.028 372.71 294.694 372.941C294.364 373.168 294.199 373.457 294.199 373.809C294.199 374.121 294.312 374.368 294.54 374.549C294.767 374.73 295.122 374.881 295.605 375.002L296.819 375.3C297.551 375.478 298.096 375.75 298.455 376.115C298.813 376.478 298.993 376.945 298.993 377.516C298.993 377.985 298.858 378.404 298.588 378.773C298.322 379.143 297.949 379.434 297.469 379.647C296.99 379.86 296.432 379.967 295.797 379.967C294.962 379.967 294.271 379.785 293.725 379.423C293.178 379.061 292.831 378.532 292.686 377.836L293.879 377.538C293.993 377.978 294.208 378.308 294.524 378.528C294.843 378.749 295.26 378.859 295.775 378.859C296.361 378.859 296.827 378.734 297.171 378.486C297.519 378.234 297.693 377.932 297.693 377.58C297.693 377.296 297.594 377.058 297.395 376.866C297.196 376.671 296.89 376.526 296.479 376.43L295.115 376.11C294.366 375.933 293.815 375.657 293.464 375.284C293.116 374.908 292.942 374.437 292.942 373.873C292.942 373.411 293.071 373.003 293.33 372.648C293.593 372.293 293.95 372.014 294.401 371.811C294.856 371.609 295.371 371.508 295.946 371.508C296.755 371.508 297.391 371.685 297.853 372.04C298.318 372.396 298.648 372.864 298.844 373.447Z" fill="black"/>
<g filter="url(#filter3_d_222_178)">
<path d="M553.441 395.661C553.441 389.055 548.086 383.7 541.48 383.7H453.842C450.989 383.7 448.231 382.681 446.064 380.826L443.492 378.625C442.87 378.092 441.935 378.159 441.396 378.775L438.168 382.459C437.477 383.248 436.479 383.7 435.431 383.7V383.7C433.421 383.7 431.791 385.329 431.791 387.339V419.475C431.791 426.081 437.146 431.436 443.752 431.436H541.48C548.086 431.436 553.441 426.081 553.441 419.475V395.661Z" fill="white"/>
<path d="M432.539 387.339V419.475C432.539 425.668 437.559 430.689 443.752 430.689H541.48C547.673 430.689 552.693 425.668 552.693 419.475V395.661C552.693 389.468 547.673 384.447 541.48 384.447H453.842C450.811 384.447 447.88 383.364 445.578 381.394L443.006 379.193C442.695 378.926 442.228 378.96 441.958 379.268L438.73 382.952C437.897 383.902 436.695 384.447 435.431 384.447C433.834 384.447 432.539 385.742 432.539 387.339Z" stroke="#EBEBEB" strokeWidth="1.4951"/>
</g>
<path d="M454.875 407.08H453.47C453.386 406.676 453.241 406.321 453.033 406.015C452.829 405.709 452.58 405.452 452.285 405.244C451.995 405.033 451.672 404.874 451.317 404.768C450.962 404.663 450.591 404.61 450.206 404.61C449.504 404.61 448.867 404.787 448.297 405.142C447.73 405.497 447.279 406.02 446.943 406.712C446.611 407.403 446.444 408.251 446.444 409.255C446.444 410.26 446.611 411.108 446.943 411.799C447.279 412.49 447.73 413.014 448.297 413.369C448.867 413.724 449.504 413.901 450.206 413.901C450.591 413.901 450.962 413.848 451.317 413.742C451.672 413.637 451.995 413.48 452.285 413.272C452.58 413.061 452.829 412.802 453.033 412.496C453.241 412.186 453.386 411.831 453.47 411.431H454.875C454.769 412.024 454.576 412.555 454.297 413.023C454.017 413.491 453.67 413.89 453.254 414.218C452.839 414.543 452.372 414.791 451.855 414.961C451.341 415.131 450.792 415.216 450.206 415.216C449.217 415.216 448.337 414.974 447.566 414.49C446.796 414.007 446.189 413.319 445.747 412.428C445.306 411.537 445.085 410.479 445.085 409.255C445.085 408.032 445.306 406.974 445.747 406.083C446.189 405.191 446.796 404.504 447.566 404.021C448.337 403.537 449.217 403.295 450.206 403.295C450.792 403.295 451.341 403.38 451.855 403.55C452.372 403.72 452.839 403.97 453.254 404.298C453.67 404.623 454.017 405.02 454.297 405.488C454.576 405.952 454.769 406.483 454.875 407.08ZM460.438 415.238C459.653 415.238 458.963 415.051 458.37 414.677C457.781 414.303 457.32 413.78 456.988 413.108C456.659 412.436 456.495 411.65 456.495 410.751C456.495 409.845 456.659 409.053 456.988 408.377C457.32 407.701 457.781 407.176 458.37 406.802C458.963 406.428 459.653 406.241 460.438 406.241C461.224 406.241 461.911 406.428 462.5 406.802C463.093 407.176 463.554 407.701 463.883 408.377C464.215 409.053 464.381 409.845 464.381 410.751C464.381 411.65 464.215 412.436 463.883 413.108C463.554 413.78 463.093 414.303 462.5 414.677C461.911 415.051 461.224 415.238 460.438 415.238ZM460.438 414.037C461.035 414.037 461.526 413.884 461.911 413.578C462.296 413.272 462.582 412.87 462.767 412.371C462.952 411.873 463.044 411.333 463.044 410.751C463.044 410.169 462.952 409.627 462.767 409.125C462.582 408.623 462.296 408.217 461.911 407.907C461.526 407.597 461.035 407.442 460.438 407.442C459.841 407.442 459.35 407.597 458.965 407.907C458.58 408.217 458.295 408.623 458.11 409.125C457.925 409.627 457.832 410.169 457.832 410.751C457.832 411.333 457.925 411.873 458.11 412.371C458.295 412.87 458.58 413.272 458.965 413.578C459.35 413.884 459.841 414.037 460.438 414.037ZM466.361 418.32V406.355H467.653V407.737H467.812C467.91 407.586 468.046 407.393 468.22 407.159C468.397 406.921 468.65 406.71 468.979 406.525C469.311 406.336 469.761 406.241 470.327 406.241C471.06 406.241 471.706 406.425 472.265 406.791C472.824 407.157 473.26 407.677 473.574 408.349C473.887 409.021 474.044 409.814 474.044 410.728C474.044 411.65 473.887 412.449 473.574 413.125C473.26 413.797 472.826 414.318 472.271 414.689C471.715 415.055 471.075 415.238 470.35 415.238C469.791 415.238 469.343 415.146 469.007 414.961C468.671 414.772 468.412 414.558 468.231 414.32C468.05 414.079 467.91 413.878 467.812 413.72H467.699V418.32H466.361ZM467.676 410.706C467.676 411.363 467.772 411.943 467.965 412.445C468.157 412.944 468.439 413.335 468.809 413.618C469.179 413.897 469.632 414.037 470.169 414.037C470.728 414.037 471.194 413.89 471.568 413.595C471.946 413.297 472.229 412.896 472.418 412.394C472.611 411.888 472.707 411.325 472.707 410.706C472.707 410.094 472.612 409.542 472.424 409.051C472.238 408.557 471.957 408.166 471.579 407.879C471.205 407.588 470.735 407.442 470.169 407.442C469.625 407.442 469.168 407.58 468.798 407.856C468.428 408.128 468.148 408.509 467.959 409C467.77 409.488 467.676 410.056 467.676 410.706ZM476.572 418.32C476.346 418.32 476.144 418.301 475.966 418.264C475.788 418.23 475.666 418.196 475.598 418.162L475.938 416.983C476.262 417.066 476.55 417.096 476.799 417.074C477.048 417.051 477.269 416.94 477.462 416.74C477.658 416.543 477.837 416.224 478 415.782L478.249 415.102L475.031 406.355H476.482L478.884 413.289H478.974L481.377 406.355H482.827L479.133 416.326C478.967 416.775 478.761 417.147 478.515 417.442C478.27 417.74 477.985 417.961 477.66 418.105C477.339 418.248 476.976 418.32 476.572 418.32ZM492.243 415.238C491.518 415.238 490.878 415.055 490.322 414.689C489.767 414.318 489.333 413.797 489.019 413.125C488.706 412.449 488.549 411.65 488.549 410.728C488.549 409.814 488.706 409.021 489.019 408.349C489.333 407.677 489.769 407.157 490.328 406.791C490.887 406.425 491.533 406.241 492.266 406.241C492.832 406.241 493.28 406.336 493.608 406.525C493.941 406.71 494.194 406.921 494.368 407.159C494.545 407.393 494.683 407.586 494.781 407.737H494.895V403.454H496.232V415.057H494.94V413.72H494.781C494.683 413.878 494.543 414.079 494.362 414.32C494.181 414.558 493.922 414.772 493.586 414.961C493.25 415.146 492.802 415.238 492.243 415.238ZM492.424 414.037C492.961 414.037 493.414 413.897 493.784 413.618C494.154 413.335 494.436 412.944 494.628 412.445C494.821 411.943 494.917 411.363 494.917 410.706C494.917 410.056 494.823 409.488 494.634 409C494.445 408.509 494.166 408.128 493.795 407.856C493.425 407.58 492.968 407.442 492.424 407.442C491.858 407.442 491.386 407.588 491.008 407.879C490.634 408.166 490.353 408.557 490.164 409.051C489.979 409.542 489.886 410.094 489.886 410.706C489.886 411.325 489.981 411.888 490.17 412.394C490.362 412.896 490.645 413.297 491.019 413.595C491.397 413.89 491.865 414.037 492.424 414.037ZM502.454 415.238C501.615 415.238 500.892 415.053 500.284 414.683C499.68 414.309 499.213 413.788 498.885 413.119C498.56 412.447 498.397 411.665 498.397 410.774C498.397 409.882 498.56 409.097 498.885 408.417C499.213 407.733 499.67 407.201 500.256 406.819C500.845 406.434 501.532 406.241 502.318 406.241C502.771 406.241 503.219 406.317 503.661 406.468C504.102 406.619 504.505 406.865 504.867 407.205C505.23 407.541 505.519 407.986 505.734 408.542C505.949 409.097 506.057 409.78 506.057 410.592V411.159H499.349V410.003H504.697C504.697 409.512 504.599 409.074 504.403 408.689C504.21 408.304 503.934 408 503.576 407.777C503.22 407.554 502.801 407.442 502.318 407.442C501.785 407.442 501.324 407.575 500.935 407.839C500.55 408.1 500.254 408.44 500.046 408.859C499.838 409.278 499.734 409.728 499.734 410.207V410.978C499.734 411.635 499.848 412.192 500.074 412.649C500.305 413.102 500.624 413.448 501.032 413.686C501.44 413.92 501.914 414.037 502.454 414.037C502.805 414.037 503.122 413.988 503.406 413.89C503.693 413.788 503.94 413.637 504.148 413.437C504.355 413.233 504.516 412.98 504.629 412.677L505.921 413.04C505.785 413.478 505.557 413.863 505.236 414.196C504.914 414.524 504.518 414.781 504.046 414.966C503.574 415.148 503.043 415.238 502.454 415.238ZM511.815 406.355V407.488H507.305V406.355H511.815ZM508.619 404.27H509.956V412.564C509.956 412.942 510.011 413.225 510.121 413.414C510.234 413.599 510.377 413.724 510.551 413.788C510.729 413.848 510.916 413.878 511.112 413.878C511.259 413.878 511.38 413.871 511.475 413.856C511.569 413.837 511.645 413.822 511.701 413.81L511.973 415.012C511.883 415.046 511.756 415.08 511.594 415.114C511.431 415.151 511.225 415.17 510.976 415.17C510.598 415.17 510.228 415.089 509.866 414.927C509.507 414.764 509.209 414.517 508.971 414.184C508.736 413.852 508.619 413.433 508.619 412.927V404.27ZM516.326 415.261C515.774 415.261 515.274 415.157 514.825 414.949C514.375 414.738 514.018 414.434 513.754 414.037C513.489 413.637 513.357 413.153 513.357 412.587C513.357 412.088 513.455 411.684 513.652 411.374C513.848 411.061 514.111 410.815 514.439 410.638C514.768 410.46 515.13 410.328 515.527 410.241C515.927 410.151 516.33 410.079 516.734 410.026C517.263 409.958 517.691 409.907 518.02 409.873C518.352 409.835 518.594 409.773 518.745 409.686C518.9 409.599 518.977 409.448 518.977 409.233V409.187C518.977 408.628 518.824 408.194 518.518 407.884C518.216 407.575 517.757 407.42 517.142 407.42C516.503 407.42 516.003 407.56 515.64 407.839C515.278 408.119 515.023 408.417 514.875 408.734L513.606 408.281C513.833 407.752 514.135 407.34 514.513 407.046C514.894 406.748 515.31 406.54 515.759 406.423C516.213 406.302 516.658 406.241 517.096 406.241C517.376 406.241 517.697 406.275 518.059 406.343C518.426 406.408 518.779 406.542 519.119 406.746C519.463 406.95 519.748 407.257 519.974 407.669C520.201 408.081 520.314 408.632 520.314 409.323V415.057H518.977V413.878H518.909C518.819 414.067 518.668 414.269 518.456 414.485C518.245 414.7 517.963 414.883 517.612 415.034C517.261 415.185 516.832 415.261 516.326 415.261ZM516.53 414.06C517.059 414.06 517.504 413.956 517.867 413.748C518.233 413.54 518.509 413.272 518.694 412.944C518.883 412.615 518.977 412.269 518.977 411.907V410.683C518.921 410.751 518.796 410.813 518.603 410.87C518.415 410.923 518.195 410.97 517.946 411.012C517.701 411.049 517.461 411.083 517.227 411.114C516.996 411.14 516.809 411.163 516.666 411.182C516.318 411.227 515.993 411.301 515.691 411.403C515.393 411.501 515.151 411.65 514.966 411.85C514.785 412.047 514.694 412.315 514.694 412.655C514.694 413.119 514.866 413.471 515.21 413.708C515.557 413.943 515.997 414.06 516.53 414.06ZM522.694 415.057V406.355H524.031V415.057H522.694ZM523.374 404.904C523.113 404.904 522.888 404.816 522.7 404.638C522.515 404.461 522.422 404.247 522.422 403.998C522.422 403.749 522.515 403.535 522.7 403.358C522.888 403.18 523.113 403.091 523.374 403.091C523.634 403.091 523.857 403.18 524.042 403.358C524.231 403.535 524.326 403.749 524.326 403.998C524.326 404.247 524.231 404.461 524.042 404.638C523.857 404.816 523.634 404.904 523.374 404.904ZM527.756 403.454V415.057H526.419V403.454H527.756ZM536.308 408.304L535.107 408.644C535.032 408.443 534.92 408.249 534.773 408.06C534.629 407.867 534.433 407.709 534.184 407.584C533.934 407.459 533.615 407.397 533.226 407.397C532.694 407.397 532.25 407.52 531.895 407.765C531.544 408.007 531.368 408.315 531.368 408.689C531.368 409.021 531.489 409.284 531.731 409.476C531.972 409.669 532.35 409.83 532.864 409.958L534.155 410.275C534.933 410.464 535.513 410.753 535.895 411.142C536.276 411.527 536.467 412.024 536.467 412.632C536.467 413.131 536.323 413.576 536.036 413.969C535.753 414.362 535.356 414.672 534.847 414.898C534.337 415.125 533.744 415.238 533.068 415.238C532.18 415.238 531.445 415.046 530.864 414.66C530.282 414.275 529.914 413.712 529.759 412.972L531.028 412.655C531.149 413.123 531.377 413.474 531.714 413.708C532.053 413.943 532.497 414.06 533.045 414.06C533.668 414.06 534.163 413.928 534.529 413.663C534.899 413.395 535.085 413.074 535.085 412.7C535.085 412.398 534.979 412.145 534.767 411.941C534.556 411.733 534.231 411.578 533.793 411.476L532.342 411.136C531.545 410.948 530.96 410.655 530.586 410.258C530.216 409.858 530.031 409.357 530.031 408.757C530.031 408.266 530.169 407.832 530.444 407.454C530.724 407.076 531.104 406.78 531.583 406.564C532.067 406.349 532.614 406.241 533.226 406.241C534.087 406.241 534.763 406.43 535.254 406.808C535.749 407.186 536.101 407.684 536.308 408.304Z" fill="black"/>
<g filter="url(#filter4_d_222_178)">
<path d="M387.716 152.51C387.716 159.116 393.071 164.471 399.676 164.471H487.315C490.167 164.471 492.925 165.49 495.092 167.345L497.664 169.546C498.286 170.079 499.221 170.011 499.761 169.396L502.988 165.712C503.679 164.923 504.677 164.471 505.726 164.471V164.471C507.736 164.471 509.365 162.841 509.365 160.831V128.695C509.365 122.09 504.01 116.735 497.404 116.735H399.676C393.071 116.735 387.716 122.09 387.716 128.695V152.51Z" fill="white"/>
<path d="M508.617 160.831V128.695C508.617 122.502 503.597 117.482 497.404 117.482H399.676C393.483 117.482 388.463 122.502 388.463 128.695V152.51C388.463 158.703 393.483 163.723 399.676 163.723H487.315C490.345 163.723 493.276 164.806 495.578 166.777L498.15 168.978C498.461 169.244 498.929 169.211 499.198 168.903L502.426 165.219C503.259 164.268 504.462 163.723 505.726 163.723C507.323 163.723 508.617 162.429 508.617 160.831Z" stroke="#EBEBEB" strokeWidth="1.4951"/>
</g>
<path d="M413.187 137.131L410.161 145.313H408.883L405.857 137.131H407.221L409.479 143.651H409.564L411.823 137.131H413.187ZM414.785 145.313V137.131H416.042V145.313H414.785ZM415.424 135.767C415.179 135.767 414.968 135.684 414.79 135.517C414.616 135.35 414.529 135.149 414.529 134.915C414.529 134.681 414.616 134.48 414.79 134.313C414.968 134.146 415.179 134.063 415.424 134.063C415.669 134.063 415.879 134.146 416.053 134.313C416.23 134.48 416.319 134.681 416.319 134.915C416.319 135.149 416.23 135.35 416.053 135.517C415.879 135.684 415.669 135.767 415.424 135.767ZM421.714 145.483C420.926 145.483 420.246 145.309 419.674 144.961C419.106 144.61 418.667 144.12 418.358 143.491C418.053 142.859 417.9 142.124 417.9 141.286C417.9 140.448 418.053 139.709 418.358 139.07C418.667 138.427 419.097 137.926 419.647 137.568C420.201 137.205 420.848 137.024 421.586 137.024C422.012 137.024 422.433 137.095 422.849 137.237C423.264 137.38 423.642 137.61 423.983 137.93C424.324 138.246 424.596 138.665 424.798 139.187C425.001 139.709 425.102 140.352 425.102 141.115V141.648H418.795V140.561H423.824C423.824 140.1 423.731 139.688 423.547 139.326C423.365 138.963 423.106 138.677 422.769 138.468C422.435 138.258 422.041 138.154 421.586 138.154C421.086 138.154 420.652 138.278 420.287 138.527C419.924 138.772 419.646 139.091 419.45 139.485C419.255 139.88 419.157 140.302 419.157 140.753V141.478C419.157 142.095 419.264 142.619 419.477 143.049C419.694 143.475 419.994 143.8 420.377 144.024C420.761 144.244 421.206 144.354 421.714 144.354C422.044 144.354 422.343 144.308 422.609 144.215C422.879 144.12 423.112 143.978 423.307 143.789C423.502 143.598 423.653 143.36 423.76 143.076L424.974 143.416C424.846 143.828 424.631 144.191 424.33 144.503C424.028 144.812 423.655 145.054 423.211 145.228C422.767 145.398 422.268 145.483 421.714 145.483ZM428.807 145.313L426.314 137.131H427.635L429.404 143.395H429.489L431.236 137.131H432.578L434.304 143.374H434.39L436.158 137.131H437.479L434.986 145.313H433.75L431.961 139.027H431.833L430.043 145.313H428.807ZM446.328 145.483C445.646 145.483 445.044 145.311 444.522 144.967C444 144.618 443.591 144.128 443.297 143.496C443.002 142.861 442.855 142.11 442.855 141.243C442.855 140.384 443.002 139.638 443.297 139.006C443.591 138.374 444.002 137.886 444.527 137.541C445.053 137.197 445.66 137.024 446.349 137.024C446.881 137.024 447.302 137.113 447.611 137.291C447.924 137.465 448.162 137.664 448.325 137.887C448.492 138.107 448.622 138.289 448.714 138.431H448.82V134.404H450.078V145.313H448.863V144.056H448.714C448.622 144.205 448.49 144.393 448.32 144.62C448.149 144.844 447.906 145.045 447.59 145.222C447.274 145.396 446.853 145.483 446.328 145.483ZM446.498 144.354C447.002 144.354 447.428 144.223 447.776 143.96C448.124 143.693 448.389 143.326 448.57 142.857C448.751 142.385 448.842 141.84 448.842 141.222C448.842 140.611 448.753 140.077 448.575 139.618C448.398 139.157 448.135 138.798 447.787 138.543C447.439 138.283 447.009 138.154 446.498 138.154C445.965 138.154 445.521 138.29 445.166 138.564C444.815 138.834 444.55 139.201 444.373 139.666C444.199 140.128 444.112 140.647 444.112 141.222C444.112 141.804 444.2 142.333 444.378 142.809C444.559 143.281 444.825 143.658 445.177 143.938C445.532 144.215 445.972 144.354 446.498 144.354ZM455.924 145.483C455.136 145.483 454.456 145.309 453.884 144.961C453.316 144.61 452.877 144.12 452.568 143.491C452.263 142.859 452.11 142.124 452.11 141.286C452.11 140.448 452.263 139.709 452.568 139.07C452.877 138.427 453.307 137.926 453.857 137.568C454.411 137.205 455.058 137.024 455.796 137.024C456.222 137.024 456.643 137.095 457.059 137.237C457.474 137.38 457.852 137.61 458.193 137.93C458.534 138.246 458.806 138.665 459.008 139.187C459.211 139.709 459.312 140.352 459.312 141.115V141.648H453.005V140.561H458.033C458.033 140.1 457.941 139.688 457.756 139.326C457.575 138.963 457.316 138.677 456.979 138.468C456.645 138.258 456.251 138.154 455.796 138.154C455.295 138.154 454.862 138.278 454.496 138.527C454.134 138.772 453.855 139.091 453.66 139.485C453.465 139.88 453.367 140.302 453.367 140.753V141.478C453.367 142.095 453.474 142.619 453.687 143.049C453.903 143.475 454.203 143.8 454.587 144.024C454.971 144.244 455.416 144.354 455.924 144.354C456.254 144.354 456.553 144.308 456.819 144.215C457.089 144.12 457.321 143.978 457.517 143.789C457.712 143.598 457.863 143.36 457.969 143.076L459.184 143.416C459.056 143.828 458.841 144.191 458.539 144.503C458.238 144.812 457.865 145.054 457.421 145.228C456.977 145.398 456.478 145.483 455.924 145.483ZM464.721 137.131V138.196H460.481V137.131H464.721ZM461.717 135.171H462.974V142.969C462.974 143.324 463.026 143.59 463.129 143.768C463.235 143.942 463.37 144.059 463.534 144.12C463.701 144.176 463.876 144.205 464.061 144.205C464.199 144.205 464.313 144.198 464.402 144.183C464.491 144.166 464.562 144.152 464.615 144.141L464.871 145.27C464.785 145.302 464.666 145.334 464.514 145.366C464.361 145.402 464.168 145.419 463.933 145.419C463.578 145.419 463.23 145.343 462.889 145.19C462.552 145.038 462.271 144.805 462.047 144.492C461.827 144.18 461.717 143.786 461.717 143.31V135.171ZM468.959 145.505C468.441 145.505 467.97 145.407 467.548 145.212C467.125 145.013 466.79 144.727 466.541 144.354C466.292 143.978 466.168 143.523 466.168 142.99C466.168 142.522 466.26 142.142 466.445 141.85C466.63 141.556 466.877 141.325 467.186 141.158C467.494 140.991 467.835 140.867 468.208 140.785C468.585 140.7 468.963 140.632 469.343 140.583C469.84 140.519 470.243 140.471 470.552 140.439C470.864 140.403 471.092 140.345 471.234 140.263C471.379 140.181 471.452 140.039 471.452 139.837V139.794C471.452 139.269 471.308 138.86 471.021 138.569C470.737 138.278 470.305 138.132 469.726 138.132C469.126 138.132 468.656 138.264 468.315 138.527C467.974 138.789 467.734 139.07 467.596 139.368L466.402 138.942C466.616 138.445 466.9 138.058 467.255 137.781C467.613 137.5 468.004 137.305 468.427 137.195C468.853 137.081 469.272 137.024 469.684 137.024C469.947 137.024 470.248 137.056 470.589 137.12C470.934 137.181 471.266 137.307 471.585 137.498C471.909 137.69 472.177 137.98 472.39 138.367C472.603 138.754 472.709 139.272 472.709 139.922V145.313H471.452V144.205H471.388C471.303 144.382 471.161 144.572 470.962 144.775C470.763 144.977 470.499 145.149 470.168 145.291C469.838 145.433 469.435 145.505 468.959 145.505ZM469.151 144.375C469.648 144.375 470.067 144.278 470.408 144.082C470.753 143.887 471.012 143.635 471.186 143.326C471.363 143.017 471.452 142.692 471.452 142.351V141.201C471.399 141.264 471.282 141.323 471.101 141.376C470.923 141.426 470.717 141.47 470.483 141.509C470.252 141.545 470.026 141.577 469.806 141.605C469.59 141.63 469.414 141.652 469.279 141.669C468.952 141.712 468.647 141.781 468.363 141.877C468.082 141.969 467.855 142.11 467.681 142.298C467.51 142.482 467.425 142.735 467.425 143.054C467.425 143.491 467.587 143.821 467.91 144.045C468.237 144.265 468.65 144.375 469.151 144.375ZM474.943 145.313V137.131H476.2V145.313H474.943ZM475.582 135.767C475.337 135.767 475.126 135.684 474.948 135.517C474.774 135.35 474.687 135.149 474.687 134.915C474.687 134.681 474.774 134.48 474.948 134.313C475.126 134.146 475.337 134.063 475.582 134.063C475.827 134.063 476.037 134.146 476.211 134.313C476.388 134.48 476.477 134.681 476.477 134.915C476.477 135.149 476.388 135.35 476.211 135.517C476.037 135.684 475.827 135.767 475.582 135.767ZM479.699 134.404V145.313H478.442V134.404H479.699ZM487.736 138.963L486.607 139.283C486.536 139.095 486.431 138.912 486.292 138.734C486.157 138.553 485.973 138.404 485.738 138.287C485.504 138.17 485.204 138.111 484.838 138.111C484.337 138.111 483.92 138.226 483.586 138.457C483.256 138.685 483.091 138.974 483.091 139.326C483.091 139.638 483.205 139.885 483.432 140.066C483.659 140.247 484.014 140.398 484.497 140.519L485.712 140.817C486.443 140.995 486.988 141.266 487.347 141.632C487.706 141.994 487.885 142.461 487.885 143.033C487.885 143.502 487.75 143.921 487.48 144.29C487.214 144.659 486.841 144.951 486.362 145.164C485.882 145.377 485.325 145.483 484.689 145.483C483.855 145.483 483.164 145.302 482.617 144.94C482.07 144.578 481.724 144.049 481.578 143.353L482.771 143.054C482.885 143.495 483.1 143.825 483.416 144.045C483.736 144.265 484.153 144.375 484.668 144.375C485.254 144.375 485.719 144.251 486.063 144.002C486.411 143.75 486.585 143.448 486.585 143.097C486.585 142.813 486.486 142.575 486.287 142.383C486.088 142.188 485.783 142.042 485.371 141.946L484.007 141.627C483.258 141.449 482.707 141.174 482.356 140.801C482.008 140.425 481.834 139.954 481.834 139.389C481.834 138.928 481.964 138.519 482.223 138.164C482.486 137.809 482.842 137.53 483.293 137.328C483.748 137.126 484.263 137.024 484.838 137.024C485.648 137.024 486.283 137.202 486.745 137.557C487.21 137.912 487.541 138.381 487.736 138.963Z" fill="black"/>
</g>
</g>
<defs>
<filter id="filter0_d_222_178" x="0.835634" y="0.0147429" width="723.464" height="550.687" filterUnits="userSpaceOnUse" color-interpolation-filters="sRGB">
<feFlood flood-opacity="0" result="BackgroundImageFix"/>
<feColorMatrix in="SourceAlpha" type="matrix" values="0 0 0 0 0 0 0 0 0 0 0 0 0 0 0 0 0 0 127 0" result="hardAlpha"/>
<feOffset dx="2.17911" dy="4.35822"/>
<feGaussianBlur stdDeviation="44.6717"/>
<feComposite in2="hardAlpha" operator="out"/>
<feColorMatrix type="matrix" values="0 0 0 0 0 0 0 0 0 0 0 0 0 0 0 0 0 0 0.11 0"/>
<feBlend mode="normal" in2="BackgroundImageFix" result="effect1_dropShadow_222_178"/>
<feBlend mode="normal" in="SourceGraphic" in2="effect1_dropShadow_222_178" result="shape"/>
</filter>
<filter id="filter1_d_222_178" x="78.9436" y="145.715" width="271.989" height="150.018" filterUnits="userSpaceOnUse" color-interpolation-filters="sRGB">
<feFlood flood-opacity="0" result="BackgroundImageFix"/>
<feColorMatrix in="SourceAlpha" type="matrix" values="0 0 0 0 0 0 0 0 0 0 0 0 0 0 0 0 0 0 127 0" result="hardAlpha"/>
<feOffset dy="5.98038"/>
<feGaussianBlur stdDeviation="23.9215"/>
<feColorMatrix type="matrix" values="0 0 0 0 0.499849 0 0 0 0 0.4875 0 0 0 0 1 0 0 0 0.2 0"/>
<feBlend mode="normal" in2="BackgroundImageFix" result="effect1_dropShadow_222_178"/>
<feBlend mode="normal" in="SourceGraphic" in2="effect1_dropShadow_222_178" result="shape"/>
</filter>
<filter id="filter2_d_222_178" x="154.754" y="301.142" width="217.335" height="148.857" filterUnits="userSpaceOnUse" color-interpolation-filters="sRGB">
<feFlood flood-opacity="0" result="BackgroundImageFix"/>
<feColorMatrix in="SourceAlpha" type="matrix" values="0 0 0 0 0 0 0 0 0 0 0 0 0 0 0 0 0 0 127 0" result="hardAlpha"/>
<feOffset dy="5.98038"/>
<feGaussianBlur stdDeviation="23.9215"/>
<feColorMatrix type="matrix" values="0 0 0 0 0.499849 0 0 0 0 0.4875 0 0 0 0 1 0 0 0 0.2 0"/>
<feBlend mode="normal" in2="BackgroundImageFix" result="effect1_dropShadow_222_178"/>
<feBlend mode="normal" in="SourceGraphic" in2="effect1_dropShadow_222_178" result="shape"/>
</filter>
<filter id="filter3_d_222_178" x="383.948" y="336.403" width="217.335" height="148.857" filterUnits="userSpaceOnUse" color-interpolation-filters="sRGB">
<feFlood flood-opacity="0" result="BackgroundImageFix"/>
<feColorMatrix in="SourceAlpha" type="matrix" values="0 0 0 0 0 0 0 0 0 0 0 0 0 0 0 0 0 0 127 0" result="hardAlpha"/>
<feOffset dy="5.98038"/>
<feGaussianBlur stdDeviation="23.9215"/>
<feColorMatrix type="matrix" values="0 0 0 0 0.499849 0 0 0 0 0.4875 0 0 0 0 1 0 0 0 0.2 0"/>
<feBlend mode="normal" in2="BackgroundImageFix" result="effect1_dropShadow_222_178"/>
<feBlend mode="normal" in="SourceGraphic" in2="effect1_dropShadow_222_178" result="shape"/>
</filter>
<filter id="filter4_d_222_178" x="339.873" y="74.872" width="217.335" height="148.857" filterUnits="userSpaceOnUse" color-interpolation-filters="sRGB">
<feFlood flood-opacity="0" result="BackgroundImageFix"/>
<feColorMatrix in="SourceAlpha" type="matrix" values="0 0 0 0 0 0 0 0 0 0 0 0 0 0 0 0 0 0 127 0" result="hardAlpha"/>
<feOffset dy="5.98038"/>
<feGaussianBlur stdDeviation="23.9215"/>
<feColorMatrix type="matrix" values="0 0 0 0 0.499849 0 0 0 0 0.4875 0 0 0 0 1 0 0 0 0.2 0"/>
<feBlend mode="normal" in2="BackgroundImageFix" result="effect1_dropShadow_222_178"/>
<feBlend mode="normal" in="SourceGraphic" in2="effect1_dropShadow_222_178" result="shape"/>
</filter>
<clipPath id="clip0_222_178">
<rect x="88" y="85" width="544.777" height="372" rx="21.7911" fill="white"/>
</clipPath>
</defs>
</svg>
