<svg width="44" height="37" viewBox="0 0 44 37" fill="none" xmlns="http://www.w3.org/2000/svg">
<path d="M26.9198 9.10102C24.745 9.09983 22.6596 8.23518 21.1219 6.69709L18.852 4.43264C18.3406 3.92106 17.6473 3.63293 16.924 3.63133H6.87887C6.16246 3.6312 5.4746 3.91219 4.96318 4.41389C4.45177 4.91559 4.15764 5.59793 4.14402 6.31421L4.26983 9.10102H1.53498L1.40918 6.36617C1.40918 4.91552 1.98545 3.52429 3.01121 2.49852C4.03698 1.47275 5.42822 0.896484 6.87887 0.896484H16.9212C18.3718 0.896794 19.7628 1.47327 20.7883 2.4991L23.0527 4.76356C24.0783 5.78939 25.4693 6.36586 26.9198 6.36617V9.10102Z" fill="white"/>
<path fill-rule="evenodd" clip-rule="evenodd" d="M37.8097 9.10115H6.0308C5.6509 9.10113 5.27515 9.18026 4.92752 9.3335C4.57989 9.48674 4.26799 9.71072 4.01172 9.99118C3.75545 10.2716 3.56043 10.6024 3.43907 10.9624C3.31772 11.3224 3.27271 11.7038 3.3069 12.0821L5.04899 31.226C5.1104 31.9055 5.42357 32.5376 5.92704 32.998C6.4305 33.4585 7.08789 33.7141 7.77016 33.7147H36.0703C36.7526 33.7141 37.41 33.4585 37.9135 32.998C38.4169 32.5376 38.7301 31.9055 38.7915 31.226L40.5336 12.0821C40.5678 11.7038 40.5228 11.3224 40.4014 10.9624C40.2801 10.6024 40.0851 10.2716 39.8288 9.99118C39.5725 9.71072 39.2606 9.48674 38.913 9.3335C38.5654 9.18026 38.1896 9.10113 37.8097 9.10115ZM6.0308 6.3663C5.27073 6.36622 4.51899 6.52456 3.82352 6.8312C3.12806 7.13785 2.50413 7.58607 1.99155 8.14729C1.47897 8.70851 1.08898 9.37039 0.846457 10.0907C0.603936 10.8111 0.514206 11.574 0.582992 12.331L2.32509 31.4749C2.44858 32.8339 3.0756 34.0976 4.08304 35.0181C5.09048 35.9385 6.40558 36.4491 7.77016 36.4496H36.0703C37.4349 36.4491 38.75 35.9385 39.7575 35.0181C40.7649 34.0976 41.3919 32.8339 41.5154 31.4749L43.2575 12.331C43.3263 11.574 43.2366 10.8111 42.994 10.0907C42.7515 9.37039 42.3615 8.70851 41.849 8.14729C41.3364 7.58607 40.7124 7.13785 40.017 6.8312C39.3215 6.52456 38.5698 6.36622 37.8097 6.3663H6.0308Z" fill="white"/>
</svg>
