<svg width="47" height="41" viewBox="0 0 47 41" fill="none" xmlns="http://www.w3.org/2000/svg">
<g filter="url(#filter0_d_3419_1089)">
<path d="M16.748 0.0651855H30.0042L42.471 21.3091H29.185L16.748 0.0651855Z" fill="url(#paint0_linear_3419_1089)"/>
<path d="M42.471 21.3093L35.828 32.66H10.9541L17.612 21.3093H42.471Z" fill="url(#paint1_linear_3419_1089)"/>
<path d="M10.954 32.6598L4.34082 21.3091L16.748 0.0651855L23.4059 11.4453L10.954 32.6598Z" fill="url(#paint2_linear_3419_1089)"/>
<path opacity="0.1" d="M10.9541 32.66L23.3315 21.3093H17.612L10.9541 32.66Z" fill="black"/>
<path opacity="0.1" d="M42.4707 21.3091H29.1996L26.2803 16.333L42.4707 21.3091Z" fill="black"/>
<path opacity="0.1" d="M16.748 0.0651855L20.5759 16.2594L23.4059 11.4453L16.748 0.0651855Z" fill="black"/>
</g>
<defs>
<filter id="filter0_d_3419_1089" x="0.34082" y="0.0651855" width="46.1299" height="40.5947" filterUnits="userSpaceOnUse" color-interpolation-filters="sRGB">
<feFlood flood-opacity="0" result="BackgroundImageFix"/>
<feColorMatrix in="SourceAlpha" type="matrix" values="0 0 0 0 0 0 0 0 0 0 0 0 0 0 0 0 0 0 127 0" result="hardAlpha"/>
<feOffset dy="4"/>
<feGaussianBlur stdDeviation="2"/>
<feColorMatrix type="matrix" values="0 0 0 0 0 0 0 0 0 0 0 0 0 0 0 0 0 0 0.25 0"/>
<feBlend mode="normal" in2="BackgroundImageFix" result="effect1_dropShadow_3419_1089"/>
<feBlend mode="normal" in="SourceGraphic" in2="effect1_dropShadow_3419_1089" result="shape"/>
</filter>
<linearGradient id="paint0_linear_3419_1089" x1="16.748" y1="0.0651855" x2="37.609" y2="25.3244" gradientUnits="userSpaceOnUse">
<stop stop-color="#F6C338"/>
<stop offset="0.52278" stop-color="#FFD351"/>
<stop offset="1" stop-color="#F6C338"/>
</linearGradient>
<linearGradient id="paint1_linear_3419_1089" x1="42.471" y1="21.3093" x2="35.2339" y2="41.4043" gradientUnits="userSpaceOnUse">
<stop stop-color="#286EE6"/>
<stop offset="0.52105" stop-color="#4286FB"/>
<stop offset="1" stop-color="#286EE6"/>
</linearGradient>
<linearGradient id="paint2_linear_3419_1089" x1="16.7882" y1="0.0651859" x2="2.61752" y2="28.3598" gradientUnits="userSpaceOnUse">
<stop stop-color="#069B5A"/>
<stop offset="0.53103" stop-color="#11AA62"/>
<stop offset="1" stop-color="#069B5A"/>
</linearGradient>
</defs>
</svg>
