<svg width="51" height="51" viewBox="0 0 51 51" fill="none" xmlns="http://www.w3.org/2000/svg">
<path d="M51 20.2543V45.5357C50.9958 46.9836 50.4187 48.371 49.3949 49.3949C48.371 50.4187 46.9836 50.9958 45.5357 51H5.46429C4.01637 50.9958 2.62896 50.4187 1.60512 49.3949C0.581287 48.371 0.00422938 46.9836 7.32011e-07 45.5357V20.2543C-0.000480919 19.3213 0.236734 18.4037 0.689264 17.5878C1.14179 16.772 1.79472 16.0849 2.58643 15.5914L8.25107 12.5861C8.52769 12.4342 8.83925 12.3573 9.15476 12.3632C9.47028 12.3691 9.77876 12.4575 10.0495 12.6196C10.3203 12.7817 10.5439 13.0118 10.6981 13.2871C10.8523 13.5625 10.9318 13.8734 10.9286 14.1889V24.6803L21.8025 30.5453L25.5 32.5307L29.1975 30.5453L40.0714 24.6803V14.1889C40.0682 13.8734 40.1477 13.5625 40.3019 13.2871C40.4561 13.0118 40.6797 12.7817 40.9505 12.6196C41.2212 12.4575 41.5297 12.3691 41.8452 12.3632C42.1608 12.3573 42.4723 12.4342 42.7489 12.5861L48.3043 15.5368C49.1229 16.0232 49.8015 16.7134 50.2739 17.5402C50.7464 18.367 50.9965 19.3021 51 20.2543Z" fill="#4294FF"/>
<path d="M51 20.2543V22.95L26.3561 36.21C26.0935 36.3535 25.7992 36.4287 25.5 36.4287C25.2008 36.4287 24.9065 36.3535 24.6439 36.21L7.32011e-07 22.95V20.2543C-0.000480919 19.3213 0.236734 18.4037 0.689264 17.5878C1.14179 16.772 1.79472 16.0849 2.58643 15.5914L8.25107 12.5861C8.52769 12.4342 8.83925 12.3573 9.15476 12.3632C9.47028 12.3691 9.77876 12.4575 10.0495 12.6196C10.3203 12.7817 10.5439 13.0118 10.6981 13.2871C10.8523 13.5625 10.9318 13.8734 10.9286 14.1889V24.6803L25.5 32.5307L40.0714 24.6803V14.1889C40.0682 13.8734 40.1477 13.5625 40.3019 13.2871C40.4561 13.0118 40.6797 12.7817 40.9505 12.6196C41.2212 12.4575 41.5297 12.3691 41.8452 12.3632C42.1608 12.3573 42.4723 12.4342 42.7489 12.5861L48.3043 15.5368C49.1229 16.0232 49.8015 16.7134 50.2739 17.5402C50.7464 18.367 50.9965 19.3021 51 20.2543Z" fill="#376CFB"/>
<path d="M43.3318 51H5.46431C4.01639 50.9958 2.62898 50.4187 1.60514 49.3949C0.581307 48.3711 0.00424942 46.9837 2.07745e-05 45.5357V20.2543C-0.00229365 19.4165 0.188804 18.5894 0.558434 17.8375C0.928064 17.0856 1.46625 16.4292 2.13109 15.9193C3.73395 27.7586 11.2382 47.9036 43.3318 51Z" fill="#2965ED"/>
<path d="M51 44.5886V45.5357C50.9958 46.9836 50.4187 48.371 49.3949 49.3949C48.371 50.4187 46.9836 50.9958 45.5357 51H5.46429C4.01637 50.9958 2.62896 50.4187 1.60512 49.3949C0.581286 48.371 0.00422865 46.9836 0 45.5357V44.5886L19.89 30.6546C20.1686 30.4639 20.494 30.353 20.831 30.3337C21.1681 30.3144 21.504 30.3876 21.8025 30.5454L25.5 32.5307L29.1975 30.5454C29.496 30.3876 29.8319 30.3144 30.169 30.3337C30.506 30.353 30.8314 30.4639 31.11 30.6546L51 44.5886Z" fill="#376CFB"/>
<path d="M4.51716 25.3725L2.07745e-05 22.95V20.2543C-0.00229365 19.4165 0.188804 18.5894 0.558434 17.8375C0.928064 17.0856 1.46625 16.4292 2.13109 15.9193C2.5636 19.151 3.36416 22.3227 4.51716 25.3725Z" fill="#451ECC"/>
<path d="M43.3318 51H5.46429C4.01637 50.9958 2.62896 50.4187 1.60512 49.3949C0.581286 48.371 0.00422865 46.9836 0 45.5357V44.5886L11.2746 36.7018C17.3582 43.6232 27.2668 49.4518 43.3318 51Z" fill="#451ECC"/>
<path d="M41.8923 0H9.10658C8.62351 0 8.16022 0.1919 7.81864 0.533484C7.47706 0.875068 7.28516 1.33836 7.28516 1.82143V26.8604L24.6359 36.2098C24.9011 36.3534 25.1979 36.4286 25.4994 36.4286C25.801 36.4286 26.0978 36.3534 26.363 36.2098L43.7137 26.8604V1.82143C43.7137 1.33836 43.5218 0.875068 43.1802 0.533484C42.8387 0.1919 42.3754 0 41.8923 0Z" fill="#E6ECFF"/>
<path d="M31.8016 33.2775L26.3555 36.21C26.093 36.3535 25.7986 36.4287 25.4994 36.4287C25.2003 36.4287 24.9059 36.3535 24.6434 36.21L7.28516 26.8661V1.82143C7.28655 1.33878 7.4789 0.876306 7.82018 0.535023C8.16146 0.193741 8.62394 0.00139362 9.10658 0H15.7184C16.5744 10.4368 20.3266 24.8261 31.8016 33.2775Z" fill="#B7C6E2"/>
<path d="M34.606 10.9286H16.3917C15.9087 10.9286 15.4454 10.7367 15.1038 10.3951C14.7622 10.0536 14.5703 9.59027 14.5703 9.1072C14.5703 8.62412 14.7622 8.16084 15.1038 7.81925C15.4454 7.47767 15.9087 7.28577 16.3917 7.28577H34.606C35.0891 7.28577 35.5524 7.47767 35.894 7.81925C36.2356 8.16084 36.4275 8.62412 36.4275 9.1072C36.4275 9.59027 36.2356 10.0536 35.894 10.3951C35.5524 10.7367 35.0891 10.9286 34.606 10.9286Z" fill="#451ECC"/>
<path d="M34.606 18.2143H16.3917C15.9087 18.2143 15.4454 18.0224 15.1038 17.6808C14.7622 17.3392 14.5703 16.8759 14.5703 16.3928C14.5703 15.9098 14.7622 15.4465 15.1038 15.1049C15.4454 14.7633 15.9087 14.5714 16.3917 14.5714H34.606C35.0891 14.5714 35.5524 14.7633 35.894 15.1049C36.2356 15.4465 36.4275 15.9098 36.4275 16.3928C36.4275 16.8759 36.2356 17.3392 35.894 17.6808C35.5524 18.0224 35.0891 18.2143 34.606 18.2143Z" fill="#451ECC"/>
<path d="M34.606 25.5H16.3917C15.9087 25.5 15.4454 25.3081 15.1038 24.9666C14.7622 24.625 14.5703 24.1617 14.5703 23.6786C14.5703 23.1955 14.7622 22.7322 15.1038 22.3907C15.4454 22.0491 15.9087 21.8572 16.3917 21.8572H34.606C35.0891 21.8572 35.5524 22.0491 35.894 22.3907C36.2356 22.7322 36.4275 23.1955 36.4275 23.6786C36.4275 24.1617 36.2356 24.625 35.894 24.9666C35.5524 25.3081 35.0891 25.5 34.606 25.5Z" fill="#451ECC"/>
<path d="M17.5949 10.9285H16.3927C15.9096 10.9285 15.4464 10.7366 15.1048 10.395C14.7632 10.0534 14.5713 9.59015 14.5713 9.10707C14.5713 8.624 14.7632 8.16071 15.1048 7.81913C15.4464 7.47754 15.9096 7.28564 16.3927 7.28564H16.7388C16.9756 8.48779 17.267 9.70814 17.5949 10.9285Z" fill="#451ECC"/>
<path d="M20.1449 18.2143H16.3927C15.9096 18.2143 15.4464 18.0224 15.1048 17.6808C14.7632 17.3392 14.5713 16.8759 14.5713 16.3928C14.5713 15.9098 14.7632 15.4465 15.1048 15.1049C15.4464 14.7633 15.9096 14.5714 16.3927 14.5714H18.7241C19.131 15.8107 19.6053 17.0268 20.1449 18.2143Z" fill="#451ECC"/>
<path d="M24.2249 25.5H16.3927C15.9096 25.5 15.4464 25.3081 15.1048 24.9666C14.7632 24.625 14.5713 24.1617 14.5713 23.6786C14.5713 23.1955 14.7632 22.7322 15.1048 22.3907C15.4464 22.0491 15.9096 21.8572 16.3927 21.8572H21.9299C22.6298 23.1112 23.3959 24.3272 24.2249 25.5Z" fill="#451ECC"/>
</svg>
