<svg width="34" height="34" viewBox="0 0 34 34" fill="none" xmlns="http://www.w3.org/2000/svg">
<rect width="34" height="34" rx="4" fill="#286EE6"/>
<path d="M17.5671 21.3917H16.5754V17.425H15.5837L17.5671 21.3917ZM16.5754 13.4583H16.5853H16.5754ZM25.5004 17.425C25.5004 18.597 25.2695 19.7576 24.821 20.8404C24.3725 21.9233 23.7151 22.9072 22.8863 23.7359C22.0576 24.5647 21.0737 25.2221 19.9908 25.6706C18.908 26.1191 17.7474 26.35 16.5754 26.35C15.4033 26.35 14.2428 26.1191 13.1599 25.6706C12.0771 25.2221 11.0932 24.5647 10.2645 23.7359C9.4357 22.9072 8.77829 21.9233 8.32977 20.8404C7.88124 19.7576 7.65039 18.597 7.65039 17.425C7.65039 15.0579 8.5907 12.7878 10.2645 11.1141C11.9382 9.44031 14.2083 8.5 16.5754 8.5C18.9424 8.5 21.2126 9.44031 22.8863 11.1141C24.5601 12.7878 25.5004 15.0579 25.5004 17.425Z" stroke="white" stroke-width="2" stroke-linecap="round" stroke-linejoin="round"/>
</svg>
