<svg width="24" height="24" viewBox="0 0 24 24" fill="none" xmlns="http://www.w3.org/2000/svg">
<path d="M5.37257 24H0.396857V7.97657H5.37257V24ZM2.88171 5.79086C1.29086 5.79086 0 4.47257 0 2.88171C0 2.11744 0.303608 1.38446 0.844035 0.844035C1.38446 0.303608 2.11744 0 2.88171 0C3.64599 0 4.37897 0.303608 4.91939 0.844035C5.45982 1.38446 5.76343 2.11744 5.76343 2.88171C5.76343 4.47257 4.47257 5.79086 2.88171 5.79086ZM23.9949 24H19.0303V16.2C19.0303 14.3409 18.9926 11.9571 16.4434 11.9571C13.8566 11.9571 13.4597 13.9766 13.4597 16.0663V24H8.48914V7.97657H13.2609V10.1623H13.3303C13.9946 8.90314 15.6171 7.57457 18.0377 7.57457C23.0734 7.57457 23.9991 10.8909 23.9991 15.198V24H23.9949Z" fill="#0072B1"/>
</svg>
