<svg width="171" height="38" viewBox="0 0 171 38" fill="none" xmlns="http://www.w3.org/2000/svg">
<path d="M44.9098 9.728H49.3126V25.2685H58.852V28.88H44.9098V9.728Z" fill="#451ECC"/>
<path d="M61.0131 14.1603H65.2528V28.88H61.0131V14.1603ZM63.133 12.1083C62.3539 12.1083 61.7197 11.8803 61.2305 11.4243C60.7413 10.9683 60.4967 10.4029 60.4967 9.728C60.4967 9.05312 60.7413 8.48768 61.2305 8.03168C61.7197 7.57568 62.3539 7.34768 63.133 7.34768C63.9121 7.34768 64.5462 7.56656 65.0354 8.00432C65.5246 8.44208 65.7692 8.98928 65.7692 9.64592C65.7692 10.3573 65.5246 10.9501 65.0354 11.4243C64.5462 11.8803 63.9121 12.1083 63.133 12.1083Z" fill="#451ECC"/>
<path d="M83.7006 14.1603L77.5313 28.88H73.1556L67.0135 14.1603H71.3891L75.4386 24.1741L79.624 14.1603H83.7006Z" fill="#451ECC"/>
<path d="M99.3552 21.5749C99.3552 21.6296 99.3281 22.0126 99.2737 22.724H88.2123C88.4117 23.636 88.8827 24.3565 89.6256 24.8854C90.3685 25.4144 91.2925 25.6789 92.3977 25.6789C93.1587 25.6789 93.8291 25.5694 94.4089 25.3506C95.0068 25.1134 95.5594 24.7486 96.0667 24.2562L98.3225 26.7186C96.9455 28.3054 94.9343 29.0989 92.289 29.0989C90.6402 29.0989 89.1817 28.7797 87.9134 28.1413C86.6451 27.4846 85.6667 26.5818 84.9782 25.4326C84.2897 24.2835 83.9454 22.9794 83.9454 21.5202C83.9454 20.0792 84.2806 18.7842 84.951 17.635C85.6395 16.4677 86.5726 15.5648 87.7503 14.9264C88.9461 14.2698 90.2779 13.9414 91.7455 13.9414C93.1768 13.9414 94.4723 14.2515 95.6319 14.8717C96.7915 15.4918 97.6974 16.3856 98.3497 17.553C99.0201 18.7021 99.3552 20.0427 99.3552 21.5749ZM91.7726 17.1699C90.8124 17.1699 90.0061 17.4435 89.3538 17.9907C88.7016 18.5379 88.3029 19.2858 88.158 20.2342H95.3601C95.2152 19.304 94.8166 18.5653 94.1643 18.0181C93.512 17.4526 92.7148 17.1699 91.7726 17.1699Z" fill="#451ECC"/>
<path d="M108.728 29.2083C107.224 29.2083 105.765 29.0077 104.352 28.6064C102.957 28.1869 101.834 27.6488 100.982 26.9922L102.477 23.6542C103.292 24.2562 104.262 24.7395 105.385 25.1043C106.508 25.4691 107.632 25.6515 108.755 25.6515C110.005 25.6515 110.929 25.4691 111.527 25.1043C112.125 24.7213 112.424 24.2197 112.424 23.5995C112.424 23.1435 112.243 22.7696 111.88 22.4778C111.536 22.1677 111.083 21.9214 110.522 21.739C109.978 21.5566 109.235 21.356 108.293 21.1371C106.843 20.7906 105.657 20.444 104.733 20.0974C103.809 19.7509 103.011 19.1946 102.341 18.4285C101.689 17.6624 101.363 16.641 101.363 15.3642C101.363 14.2515 101.662 13.2483 102.259 12.3546C102.857 11.4426 103.754 10.7221 104.95 10.1931C106.164 9.66416 107.641 9.39968 109.38 9.39968C110.594 9.39968 111.781 9.5456 112.94 9.83744C114.1 10.1293 115.115 10.5488 115.984 11.096L114.625 14.4613C112.868 13.4581 111.11 12.9565 109.353 12.9565C108.121 12.9565 107.206 13.1571 106.608 13.5584C106.028 13.9597 105.738 14.4886 105.738 15.1453C105.738 15.8019 106.073 16.2944 106.744 16.6227C107.432 16.9328 108.474 17.2429 109.869 17.553C111.319 17.8995 112.505 18.2461 113.43 18.5926C114.354 18.9392 115.142 19.4864 115.794 20.2342C116.464 20.9821 116.8 21.9944 116.8 23.2712C116.8 24.3656 116.492 25.3688 115.876 26.2808C115.278 27.1746 114.372 27.8859 113.158 28.4149C111.944 28.9438 110.467 29.2083 108.728 29.2083Z" fill="#451ECC"/>
<path d="M128.396 13.9414C130.208 13.9414 131.667 14.4886 132.772 15.583C133.895 16.6774 134.457 18.3008 134.457 20.4531V28.88H130.217V21.1098C130.217 19.9424 129.963 19.076 129.456 18.5106C128.949 17.9269 128.215 17.635 127.255 17.635C126.186 17.635 125.334 17.9725 124.7 18.6474C124.066 19.304 123.749 20.289 123.749 21.6022V28.88H119.509V14.1603H123.559V15.884C124.12 15.2638 124.818 14.7896 125.651 14.4613C126.485 14.1147 127.4 13.9414 128.396 13.9414Z" fill="#451ECC"/>
<path d="M144.198 13.9414C146.462 13.9414 148.202 14.4886 149.416 15.583C150.63 16.6592 151.237 18.2917 151.237 20.4805V28.88H147.269V27.0469C146.471 28.4149 144.986 29.0989 142.812 29.0989C141.688 29.0989 140.71 28.9074 139.876 28.5243C139.061 28.1413 138.436 27.6123 138.001 26.9374C137.566 26.2626 137.349 25.4965 137.349 24.6392C137.349 23.2712 137.856 22.195 138.871 21.4107C139.903 20.6264 141.489 20.2342 143.627 20.2342H146.997C146.997 19.304 146.716 18.5926 146.154 18.1002C145.593 17.5894 144.75 17.3341 143.627 17.3341C142.848 17.3341 142.078 17.4618 141.317 17.7171C140.574 17.9542 139.94 18.2826 139.414 18.7021L137.892 15.7198C138.69 15.1544 139.641 14.7166 140.746 14.4066C141.869 14.0965 143.02 13.9414 144.198 13.9414ZM143.871 26.2261C144.596 26.2261 145.239 26.0619 145.801 25.7336C146.363 25.387 146.761 24.8854 146.997 24.2288V22.724H144.089C142.349 22.724 141.48 23.2986 141.48 24.4477C141.48 24.9949 141.688 25.4326 142.105 25.761C142.54 26.071 143.129 26.2261 143.871 26.2261Z" fill="#451ECC"/>
<path d="M163.716 13.9414C165.075 13.9414 166.307 14.2606 167.413 14.899C168.536 15.5192 169.415 16.4038 170.049 17.553C170.683 18.6838 171 20.0062 171 21.5202C171 23.0341 170.683 24.3656 170.049 25.5147C169.415 26.6456 168.536 27.5302 167.413 28.1686C166.307 28.7888 165.075 29.0989 163.716 29.0989C161.85 29.0989 160.383 28.5061 159.314 27.3205V34.1878H155.074V14.1603H159.123V15.8566C160.174 14.5798 161.705 13.9414 163.716 13.9414ZM162.983 25.5968C164.07 25.5968 164.957 25.232 165.646 24.5024C166.353 23.7546 166.706 22.7605 166.706 21.5202C166.706 20.2798 166.353 19.2949 165.646 18.5653C164.957 17.8174 164.07 17.4435 162.983 17.4435C161.895 17.4435 160.999 17.8174 160.292 18.5653C159.603 19.2949 159.259 20.2798 159.259 21.5202C159.259 22.7605 159.603 23.7546 160.292 24.5024C160.999 25.232 161.895 25.5968 162.983 25.5968Z" fill="#451ECC"/>
<path fill-rule="evenodd" clip-rule="evenodd" d="M4.13405 14.6243L7.48264 16.6185L20.8467 8.87765C21.112 8.72416 21.3877 8.59098 21.6685 8.47991L27.9595 4.84081C30.4823 3.38143 33.613 5.24589 33.5947 8.19682L33.4596 30.0007C33.4414 32.9516 30.2878 34.7759 27.7833 33.2843L27.6198 33.187V28.5511L29.527 29.6868L29.6584 8.46031L26.4565 10.3125C26.5076 10.8546 26.4949 11.5259 26.4861 11.9912C26.4843 12.0889 26.4826 12.1776 26.4817 12.2541L26.2307 34.2056C26.1971 37.1383 23.0687 38.9479 20.5718 37.479L1.88214 26.4841C-0.637923 25.0016 -0.624692 21.2981 1.90591 19.8342L2.25683 19.6312L6.09908 22.0109L4.10001 23.1673L22.037 33.7511L22.0841 29.9703L18.8757 28.0395L5.31423 19.9631L3.52082 18.9134L3.53644 18.9043L1.90034 17.93C-0.604207 16.4384 -0.581359 12.7497 1.94147 11.2904L20.5822 0.507335C23.105 -0.952039 26.2357 0.912415 26.2174 3.86335L26.2131 4.56336L22.2647 6.78863L22.2812 4.12684L4.13405 14.6243ZM22.2466 12.7478L11.5113 18.9578L22.1418 25.3428L22.1626 23.6702L22.2466 12.7478Z" fill="#451ECC"/>
</svg>
