<svg width="24" height="28" viewBox="0 0 24 28" fill="none" xmlns="http://www.w3.org/2000/svg">
<path d="M11.3934 13.3586C13.2286 13.3586 14.8177 12.7003 16.1162 11.4017C17.4146 10.1032 18.0728 8.5145 18.0728 6.67907C18.0728 4.84427 17.4146 3.25533 16.116 1.95645C14.8173 0.658217 13.2284 0 11.3934 0C9.55793 0 7.96919 0.658217 6.67074 1.95667C5.3723 3.25511 4.71387 4.84406 4.71387 6.67907C4.71387 8.5145 5.3723 10.1034 6.67096 11.4019C7.96962 12.7001 9.55856 13.3586 11.3934 13.3586Z" fill="#455A64"/>
<path d="M23.0806 21.3243C23.0432 20.784 22.9675 20.1945 22.856 19.5721C22.7434 18.9449 22.5985 18.3521 22.425 17.8103C22.2458 17.2502 22.002 16.6972 21.7007 16.1672C21.388 15.6171 21.0207 15.1381 20.6086 14.7439C20.1776 14.3315 19.6499 14 19.0398 13.7581C18.4317 13.5176 17.7578 13.3957 17.037 13.3957C16.7539 13.3957 16.4801 13.5119 15.9514 13.8561C15.626 14.0683 15.2453 14.3137 14.8205 14.5852C14.4572 14.8167 13.9651 15.0335 13.3572 15.2299C12.7642 15.4218 12.162 15.5191 11.5677 15.5191C10.9734 15.5191 10.3715 15.4218 9.77779 15.2299C9.17056 15.0337 8.67844 14.8169 8.31558 14.5854C7.89476 14.3165 7.51392 14.0711 7.18365 13.8559C6.65556 13.5117 6.38157 13.3955 6.09848 13.3955C5.37742 13.3955 4.70376 13.5176 4.09591 13.7584C3.48614 13.9998 2.95826 14.3313 2.52686 14.7441C2.11492 15.1385 1.74741 15.6173 1.43512 16.1672C1.13405 16.6972 0.890313 17.25 0.710896 17.8105C0.537615 18.3523 0.392686 18.9449 0.280127 19.5721C0.168626 20.1937 0.092882 20.7833 0.055433 21.325C0.0186187 21.8556 0 22.4063 0 22.9626C0 24.4102 0.460178 25.5821 1.36763 26.4464C2.26387 27.2992 3.44975 27.7319 4.89186 27.7319H18.2449C19.687 27.7319 20.8724 27.2995 21.7689 26.4464C22.6765 25.5827 23.1367 24.4106 23.1367 22.9624C23.1365 22.4036 23.1177 21.8524 23.0806 21.3243Z" fill="#455A64"/>
</svg>
