<svg width="42" height="29" viewBox="0 0 42 29" fill="none" xmlns="http://www.w3.org/2000/svg">
<path d="M36.2366 13.1136C36.2973 12.714 36.3383 12.3085 36.3383 11.8924C36.3383 7.46536 32.7848 3.87634 28.4027 3.87634C26.9143 3.8764 25.4563 4.30212 24.1974 5.10425C22.2881 2.56429 19.2703 0.922852 15.872 0.922852C10.1048 0.922852 5.4298 5.64506 5.4298 11.4704C5.4298 12.026 5.47333 12.5715 5.55496 13.1043C2.33543 14.1263 0 17.1639 0 20.7529C0 25.1804 3.55317 28.7686 7.93393 28.7686H33.8304C38.2154 28.7686 41.7686 25.1804 41.7686 20.7529C41.7681 17.1728 39.4449 14.1427 36.2366 13.1136Z" fill="white"/>
</svg>
