<svg width="15" height="18" viewBox="0 0 15 18" fill="none" xmlns="http://www.w3.org/2000/svg">
<ellipse opacity="0.4" cx="7.31568" cy="4.98169" rx="3.98169" ry="3.98169" stroke="#666666" stroke-width="1.5" stroke-linecap="round" stroke-linejoin="round"/>
<path fill-rule="evenodd" clip-rule="evenodd" d="M1.00001 14.5011C0.998944 14.2212 1.06154 13.9447 1.18308 13.6926C1.56447 12.9298 2.63998 12.5255 3.53243 12.3425C4.17606 12.2051 4.82859 12.1134 5.48514 12.0679C6.7007 11.9611 7.92328 11.9611 9.13884 12.0679C9.79534 12.1139 10.4478 12.2056 11.0915 12.3425C11.984 12.5255 13.0595 12.8917 13.4409 13.6926C13.6853 14.2066 13.6853 14.8033 13.4409 15.3173C13.0595 16.1182 11.984 16.4844 11.0915 16.6598C10.4487 16.8028 9.79591 16.8972 9.13884 16.942C8.14947 17.0259 7.15549 17.0412 6.16401 16.9878C5.93518 16.9878 5.71397 16.9878 5.48514 16.942C4.83053 16.8977 4.18027 16.8034 3.54006 16.6598C2.63998 16.4844 1.5721 16.1182 1.18308 15.3173C1.06217 15.0622 0.999627 14.7834 1.00001 14.5011Z" stroke="#666666" stroke-width="1.5" stroke-linecap="round" stroke-linejoin="round"/>
</svg>
