<svg width="34" height="34" viewBox="0 0 34 34" fill="none" xmlns="http://www.w3.org/2000/svg">
<rect width="34" height="34" rx="4" fill="#00BFFF"/>
<path d="M28.6567 14.9222L27.024 16.0705V12.3524C27.024 11.0765 26.5705 9.97385 25.6634 9.04432C24.7564 8.11479 23.6679 7.65002 22.3981 7.65002H10.7515C9.48168 7.65002 8.39322 8.11479 7.48617 9.04432C6.57912 9.97385 6.1256 11.0765 6.1256 12.3524C6.1256 12.6804 6.23444 12.9538 6.45213 13.1725C6.66982 13.3913 6.94194 13.5006 7.26848 13.5006C7.6313 13.5006 7.92155 13.3913 8.13924 13.1725C8.35694 12.9538 8.46578 12.6804 8.46578 12.3524C8.46578 11.6962 8.69254 11.1403 9.14607 10.6847C9.59959 10.229 10.1348 10.0012 10.7515 10.0012H22.3981C23.0149 10.0012 23.55 10.229 24.0035 10.6847C24.4571 11.1403 24.6838 11.6962 24.6838 12.3524V15.9611L23.0511 14.7582C22.3618 14.3572 21.8357 14.4848 21.4729 15.141C21.0375 15.8336 21.1463 16.3803 21.7994 16.7813L25.8811 19.3512L30.0173 16.7813C30.6341 16.3803 30.7611 15.8336 30.3982 15.141C29.854 14.5942 29.2735 14.5213 28.6567 14.9222ZM25.8811 20.4994C25.5183 20.4994 25.2281 20.6088 25.0104 20.8275C24.7927 21.0462 24.6838 21.3196 24.6838 21.6477C24.6838 22.3038 24.4571 22.8597 24.0035 23.3154C23.55 23.771 23.0149 23.9989 22.3981 23.9989H10.7515C10.1348 23.9989 9.59959 23.771 9.14607 23.3154C8.69254 22.8597 8.46578 22.3038 8.46578 21.6477V18.0389L10.0985 19.2418C10.171 19.2418 10.2799 19.2601 10.425 19.2965C10.5701 19.333 10.679 19.3512 10.7515 19.3512C11.0418 19.3512 11.3502 19.1872 11.6767 18.8591C12.1121 18.1665 12.0033 17.6197 11.3502 17.2187L7.26848 14.6489L3.13233 17.2187C2.51554 17.6197 2.38855 18.1665 2.75137 18.8591C3.15047 19.4788 3.6947 19.6064 4.38406 19.2418L6.01675 18.0389V21.6477C6.01675 22.9235 6.47027 24.0262 7.37732 24.9557C8.28437 25.8853 9.37283 26.35 10.6427 26.35H22.2892C23.5591 26.35 24.6475 25.8853 25.5546 24.9557C26.4616 24.0262 26.9152 22.9235 26.9152 21.6477C26.9514 21.3196 26.8698 21.0462 26.6703 20.8275C26.4707 20.6088 26.2077 20.4994 25.8811 20.4994Z" fill="white"/>
</svg>
