<svg width="51" height="47" viewBox="0 0 51 47" fill="none" xmlns="http://www.w3.org/2000/svg">
<rect width="51" height="47" rx="9" transform="matrix(-1 0 0 1 51 0)" fill="#451ECB"/>
<path d="M33.0308 14.8552C33.6631 14.3199 34.6096 14.3985 35.1448 15.0308C35.6801 15.6631 35.6015 16.6096 34.9692 17.1448L33.0308 14.8552ZM25 23.619L23.9778 24.7168L22.7416 23.5656L24.0308 22.4742L25 23.619ZM35.0222 30.9023C35.6285 31.4668 35.6623 32.416 35.0977 33.0222C34.5332 33.6285 33.584 33.6623 32.9778 33.0977L35.0222 30.9023ZM23.9324 13.4463C24.5143 12.8567 25.464 12.8505 26.0537 13.4324C26.6433 14.0143 26.6495 14.964 26.0676 15.5537L23.9324 13.4463ZM16 23.619L14.9176 24.6575L13.9071 23.6042L14.9324 22.5654L16 23.619ZM26.0824 31.9615C26.6559 32.5593 26.6363 33.5089 26.0385 34.0824C25.4407 34.6559 24.4911 34.6363 23.9176 34.0385L26.0824 31.9615ZM34.9692 17.1448L25.9692 24.7639L24.0308 22.4742L33.0308 14.8552L34.9692 17.1448ZM26.0222 22.5213L35.0222 30.9023L32.9778 33.0977L23.9778 24.7168L26.0222 22.5213ZM26.0676 15.5537L17.0676 24.6727L14.9324 22.5654L23.9324 13.4463L26.0676 15.5537ZM17.0824 22.5806L26.0824 31.9615L23.9176 34.0385L14.9176 24.6575L17.0824 22.5806Z" fill="white"/>
</svg>
