<svg width="23" height="28" viewBox="0 0 23 28" fill="none" xmlns="http://www.w3.org/2000/svg">
<path fill-rule="evenodd" clip-rule="evenodd" d="M8.08398 2.5C8.08398 1.11929 6.9647 0 5.58398 0C4.20327 0 3.08398 1.11929 3.08398 2.5V5.29154H2.79167C1.24987 5.29154 0 6.54141 0 8.08321V11.1665H22.3333V8.08321C22.3333 6.54141 21.0835 5.29154 19.5417 5.29154H18.2354V2.88086C18.2354 1.50015 17.1161 0.380859 15.7354 0.380859C14.3546 0.380859 13.2354 1.50015 13.2354 2.88086V5.29154H8.08398V2.5ZM22.3333 16.1665H0V24.8332C0 26.375 1.24987 27.6249 2.79167 27.6249H19.5417C21.0835 27.6249 22.3333 26.375 22.3333 24.8332V16.1665Z" fill="#455A64"/>
</svg>
