<svg width="41" height="35" viewBox="0 0 41 35" fill="none" xmlns="http://www.w3.org/2000/svg">
<path d="M39.2813 15.4061H30.7419C30.2889 15.4061 29.8545 15.586 29.5342 15.9063C29.2139 16.2266 29.034 16.661 29.034 17.114V32.4849C29.034 32.9379 29.2139 33.3723 29.5342 33.6926C29.8545 34.0129 30.2889 34.1928 30.7419 34.1928H39.2813C39.7343 34.1928 40.1687 34.0129 40.489 33.6926C40.8092 33.3723 40.9892 32.9379 40.9892 32.4849V17.114C40.9892 16.661 40.8092 16.2266 40.489 15.9063C40.1687 15.586 39.7343 15.4061 39.2813 15.4061ZM39.2813 30.777H30.7419V18.8219H39.2813V30.777ZM34.1576 0.0351562H3.41576C1.52002 0.0351562 0 1.55517 0 3.45092V23.9455C0 24.8514 0.359874 25.7202 1.00045 26.3608C1.64103 27.0014 2.50985 27.3613 3.41576 27.3613H15.3709V30.777H11.9552V34.1928H25.6182V30.777H22.2025V27.3613H25.6182V23.9455H3.41576V3.45092H34.1576V11.9903H37.5734V3.45092C37.5734 2.545 37.2135 1.67619 36.573 1.03561C35.9324 0.39503 35.0636 0.0351563 34.1576 0.0351562Z" fill="white"/>
</svg>
