<svg width="34" height="34" viewBox="0 0 34 34" fill="none" xmlns="http://www.w3.org/2000/svg">
<rect width="34" height="34" rx="4" fill="#F6C338"/>
<path d="M24.2726 24.2722H9.72817V9.7278H17.0004V7.65002H9.72817C9.17711 7.65002 8.64862 7.86893 8.25896 8.25859C7.8693 8.64825 7.65039 9.17674 7.65039 9.7278V24.2722C7.65039 24.8233 7.8693 25.3518 8.25896 25.7415C8.64862 26.1311 9.17711 26.35 9.72817 26.35H24.2726C25.4154 26.35 26.3504 25.415 26.3504 24.2722V17H24.2726V24.2722ZM19.0782 7.65002V9.7278H22.8078L12.5955 19.9401L14.0603 21.4049L24.2726 11.1926V14.9222H26.3504V7.65002H19.0782Z" fill="white"/>
</svg>
