<svg width="704" height="323" viewBox="0 0 704 323" fill="none" xmlns="http://www.w3.org/2000/svg">
<g filter="url(#filter0_d_222_197)">
<rect width="583.191" height="49.7295" transform="translate(61.8088 72.3987)" fill="white"/>
<path d="M75.293 95.808C75.7249 95.8115 76.1568 95.8937 76.5887 96.0548C77.0206 96.216 77.4148 96.4833 77.7713 96.8569C78.1278 97.2272 78.414 97.7327 78.63 98.3737C78.8459 99.0147 78.9539 99.8186 78.9539 100.785C78.9539 101.721 78.8648 102.552 78.6865 103.279C78.5117 104.002 78.258 104.612 77.9255 105.109C77.5965 105.606 77.1954 105.983 76.7224 106.241C76.2528 106.498 75.7215 106.626 75.1285 106.626C74.5389 106.626 74.0127 106.51 73.55 106.277C73.0906 106.04 72.7136 105.713 72.4188 105.294C72.1274 104.873 71.9406 104.384 71.8584 103.829H73.1129C73.226 104.312 73.4506 104.712 73.7865 105.027C74.1258 105.339 74.5732 105.495 75.1285 105.495C75.9409 105.495 76.5818 105.14 77.0515 104.431C77.5245 103.721 77.761 102.718 77.761 101.423H77.6787C77.4868 101.711 77.2588 101.959 76.9949 102.168C76.731 102.377 76.4379 102.539 76.1157 102.652C75.7935 102.765 75.4507 102.821 75.0873 102.821C74.484 102.821 73.9305 102.672 73.4266 102.374C72.9261 102.072 72.5251 101.659 72.2234 101.135C71.9252 100.607 71.7761 100.004 71.7761 99.325C71.7761 98.6805 71.9201 98.091 72.208 97.5562C72.4994 97.0181 72.9073 96.5896 73.4317 96.2708C73.9596 95.952 74.58 95.7978 75.293 95.808ZM75.293 96.9392C74.8611 96.9392 74.472 97.0472 74.1258 97.2631C73.7831 97.4757 73.5105 97.7636 73.3083 98.1269C73.1095 98.4869 73.0101 98.8862 73.0101 99.325C73.0101 99.7637 73.1061 100.163 73.298 100.523C73.4934 100.879 73.7591 101.164 74.095 101.376C74.4343 101.586 74.82 101.69 75.2519 101.69C75.5775 101.69 75.8809 101.627 76.1619 101.5C76.443 101.37 76.6881 101.193 76.8972 100.97C77.1097 100.744 77.276 100.489 77.3959 100.204C77.5159 99.9163 77.5759 99.6163 77.5759 99.3044C77.5759 98.8931 77.4765 98.5074 77.2777 98.1475C77.0823 97.7876 76.8115 97.4962 76.4653 97.2734C76.1225 97.0506 75.7318 96.9392 75.293 96.9392ZM80.9704 106.482L85.6802 97.1655V97.0832H80.2506V95.952H86.9965V97.1449L82.3072 106.482H80.9704ZM92.0697 106.626C91.295 106.626 90.6352 106.415 90.0902 105.994C89.5452 105.569 89.1287 104.953 88.8407 104.148C88.5528 103.339 88.4088 102.362 88.4088 101.217C88.4088 100.079 88.5528 99.1073 88.8407 98.3018C89.1321 97.4928 89.5503 96.8758 90.0953 96.4508C90.6438 96.0223 91.3019 95.808 92.0697 95.808C92.8375 95.808 93.494 96.0223 94.039 96.4508C94.5874 96.8758 95.0056 97.4928 95.2936 98.3018C95.5849 99.1073 95.7306 100.079 95.7306 101.217C95.7306 102.362 95.5866 103.339 95.2987 104.148C95.0108 104.953 94.5943 105.569 94.0493 105.994C93.5042 106.415 92.8444 106.626 92.0697 106.626ZM92.0697 105.495C92.8375 105.495 93.434 105.125 93.859 104.384C94.2841 103.644 94.4966 102.588 94.4966 101.217C94.4966 100.305 94.3989 99.5289 94.2035 98.8879C94.0116 98.2469 93.7339 97.7585 93.3706 97.4225C93.0106 97.0866 92.577 96.9186 92.0697 96.9186C91.3087 96.9186 90.714 97.294 90.2856 98.0447C89.8571 98.7919 89.6428 99.8494 89.6428 101.217C89.6428 102.129 89.7388 102.904 89.9308 103.541C90.1227 104.179 90.3987 104.664 90.7586 104.996C91.1219 105.329 91.559 105.495 92.0697 105.495ZM100.923 106.626C100.32 106.626 99.7768 106.506 99.2935 106.266C98.8102 106.026 98.4228 105.697 98.1315 105.279C97.8401 104.861 97.6807 104.384 97.6533 103.85H98.8873C98.9353 104.326 99.1512 104.72 99.5351 105.032C99.9225 105.341 100.385 105.495 100.923 105.495C101.355 105.495 101.739 105.394 102.075 105.192C102.414 104.989 102.68 104.712 102.872 104.359C103.067 104.002 103.165 103.599 103.165 103.15C103.165 102.691 103.064 102.281 102.862 101.922C102.663 101.558 102.389 101.272 102.039 101.063C101.69 100.854 101.29 100.747 100.841 100.744C100.519 100.741 100.188 100.79 99.8488 100.893C99.5094 100.993 99.2301 101.121 99.0107 101.279L97.8178 101.135L98.4554 95.952H103.926V97.0832H99.5249L99.1547 100.189H99.2164C99.4323 100.017 99.7031 99.8751 100.029 99.762C100.354 99.6489 100.694 99.5923 101.047 99.5923C101.691 99.5923 102.265 99.7466 102.769 100.055C103.277 100.36 103.674 100.778 103.962 101.31C104.253 101.841 104.399 102.448 104.399 103.13C104.399 103.802 104.248 104.402 103.947 104.929C103.648 105.454 103.237 105.869 102.713 106.174C102.188 106.475 101.592 106.626 100.923 106.626ZM106.719 106.482L111.429 97.1655V97.0832H105.999V95.952H112.745V97.1449L108.056 106.482H106.719ZM117.821 95.808C118.253 95.8115 118.685 95.8937 119.117 96.0548C119.549 96.216 119.943 96.4833 120.299 96.8569C120.656 97.2272 120.942 97.7327 121.158 98.3737C121.374 99.0147 121.482 99.8186 121.482 100.785C121.482 101.721 121.393 102.552 121.214 103.279C121.04 104.002 120.786 104.612 120.453 105.109C120.124 105.606 119.723 105.983 119.25 106.241C118.781 106.498 118.249 106.626 117.656 106.626C117.067 106.626 116.541 106.51 116.078 106.277C115.619 106.04 115.242 105.713 114.947 105.294C114.655 104.873 114.469 104.384 114.386 103.829H115.641C115.754 104.312 115.979 104.712 116.314 105.027C116.654 105.339 117.101 105.495 117.656 105.495C118.469 105.495 119.11 105.14 119.579 104.431C120.052 103.721 120.289 102.718 120.289 101.423H120.207C120.015 101.711 119.787 101.959 119.523 102.168C119.259 102.377 118.966 102.539 118.644 102.652C118.321 102.765 117.979 102.821 117.615 102.821C117.012 102.821 116.458 102.672 115.955 102.374C115.454 102.072 115.053 101.659 114.751 101.135C114.453 100.607 114.304 100.004 114.304 99.325C114.304 98.6805 114.448 98.091 114.736 97.5562C115.027 97.0181 115.435 96.5896 115.96 96.2708C116.488 95.952 117.108 95.7978 117.821 95.808ZM117.821 96.9392C117.389 96.9392 117 97.0472 116.654 97.2631C116.311 97.4757 116.038 97.7636 115.836 98.1269C115.637 98.4869 115.538 98.8862 115.538 99.325C115.538 99.7637 115.634 100.163 115.826 100.523C116.021 100.879 116.287 101.164 116.623 101.376C116.962 101.586 117.348 101.69 117.78 101.69C118.105 101.69 118.409 101.627 118.69 101.5C118.971 101.37 119.216 101.193 119.425 100.97C119.638 100.744 119.804 100.489 119.924 100.204C120.044 99.9163 120.104 99.6163 120.104 99.3044C120.104 98.8931 120.004 98.5074 119.806 98.1475C119.61 97.7876 119.339 97.4962 118.993 97.2734C118.65 97.0506 118.26 96.9392 117.821 96.9392ZM127.154 95.952V106.482H125.879V97.2889H125.817L123.246 98.9959V97.7002L125.879 95.952H127.154ZM133.833 95.952V106.482H132.558V97.2889H132.496L129.925 98.9959V97.7002L132.558 95.952H133.833ZM140.512 95.952V106.482H139.236V97.2889H139.175L136.604 98.9959V97.7002L139.236 95.952H140.512ZM146.841 95.808C147.273 95.8115 147.705 95.8937 148.136 96.0548C148.568 96.216 148.963 96.4833 149.319 96.8569C149.675 97.2272 149.962 97.7327 150.178 98.3737C150.394 99.0147 150.502 99.8186 150.502 100.785C150.502 101.721 150.412 102.552 150.234 103.279C150.059 104.002 149.806 104.612 149.473 105.109C149.144 105.606 148.743 105.983 148.27 106.241C147.8 106.498 147.269 106.626 146.676 106.626C146.087 106.626 145.56 106.51 145.098 106.277C144.638 106.04 144.261 105.713 143.967 105.294C143.675 104.873 143.488 104.384 143.406 103.829H144.661C144.774 104.312 144.998 104.712 145.334 105.027C145.674 105.339 146.121 105.495 146.676 105.495C147.489 105.495 148.13 105.14 148.599 104.431C149.072 103.721 149.309 102.718 149.309 101.423H149.226C149.034 101.711 148.807 101.959 148.543 102.168C148.279 102.377 147.986 102.539 147.663 102.652C147.341 102.765 146.998 102.821 146.635 102.821C146.032 102.821 145.478 102.672 144.974 102.374C144.474 102.072 144.073 101.659 143.771 101.135C143.473 100.607 143.324 100.004 143.324 99.325C143.324 98.6805 143.468 98.091 143.756 97.5562C144.047 97.0181 144.455 96.5896 144.979 96.2708C145.507 95.952 146.128 95.7978 146.841 95.808ZM146.841 96.9392C146.409 96.9392 146.02 97.0472 145.674 97.2631C145.331 97.4757 145.058 97.7636 144.856 98.1269C144.657 98.4869 144.558 98.8862 144.558 99.325C144.558 99.7637 144.654 100.163 144.846 100.523C145.041 100.879 145.307 101.164 145.643 101.376C145.982 101.586 146.368 101.69 146.8 101.69C147.125 101.69 147.429 101.627 147.71 101.5C147.991 101.37 148.236 101.193 148.445 100.97C148.657 100.744 148.824 100.489 148.944 100.204C149.064 99.9163 149.124 99.6163 149.124 99.3044C149.124 98.8931 149.024 98.5074 148.825 98.1475C148.63 97.7876 148.359 97.4962 148.013 97.2734C147.67 97.0506 147.279 96.9392 146.841 96.9392ZM153.009 106.564C152.755 106.564 152.538 106.474 152.356 106.292C152.174 106.11 152.084 105.893 152.084 105.639C152.084 105.385 152.174 105.168 152.356 104.986C152.538 104.804 152.755 104.713 153.009 104.713C153.263 104.713 153.48 104.804 153.662 104.986C153.844 105.168 153.935 105.385 153.935 105.639C153.935 105.807 153.892 105.961 153.806 106.102C153.724 106.242 153.612 106.355 153.472 106.441C153.335 106.523 153.181 106.564 153.009 106.564ZM156.06 106.482V98.5846H157.233V99.8186H157.336C157.5 99.3969 157.766 99.0696 158.133 98.8365C158.499 98.6 158.94 98.4817 159.454 98.4817C159.975 98.4817 160.409 98.6 160.755 98.8365C161.104 99.0696 161.377 99.3969 161.572 99.8186H161.655C161.857 99.4107 162.16 99.0867 162.565 98.8468C162.969 98.6034 163.454 98.4817 164.02 98.4817C164.726 98.4817 165.303 98.7028 165.753 99.145C166.202 99.5838 166.426 100.268 166.426 101.197V106.482H165.213V101.197C165.213 100.614 165.053 100.197 164.734 99.9471C164.416 99.6969 164.04 99.5718 163.608 99.5718C163.053 99.5718 162.623 99.7397 162.318 100.076C162.013 100.408 161.86 100.83 161.86 101.34V106.482H160.626V101.073C160.626 100.624 160.481 100.262 160.189 99.9882C159.898 99.7106 159.523 99.5718 159.063 99.5718C158.748 99.5718 158.453 99.6557 158.179 99.8237C157.908 99.9917 157.689 100.225 157.521 100.523C157.356 100.818 157.274 101.159 157.274 101.546V106.482H156.06ZM168.593 109.444V98.5846H169.765V99.8391H169.909C169.998 99.702 170.122 99.5272 170.279 99.3147C170.441 99.0987 170.67 98.9068 170.968 98.7388C171.27 98.5674 171.678 98.4817 172.192 98.4817C172.857 98.4817 173.443 98.648 173.951 98.9805C174.458 99.313 174.854 99.7843 175.138 100.394C175.423 101.005 175.565 101.724 175.565 102.554C175.565 103.39 175.423 104.115 175.138 104.729C174.854 105.339 174.46 105.812 173.956 106.148C173.452 106.48 172.871 106.647 172.213 106.647C171.705 106.647 171.299 106.563 170.994 106.395C170.689 106.223 170.454 106.03 170.29 105.814C170.125 105.594 169.998 105.413 169.909 105.269H169.806V109.444H168.593ZM169.786 102.533C169.786 103.13 169.873 103.656 170.048 104.112C170.223 104.564 170.478 104.919 170.814 105.176C171.15 105.43 171.561 105.557 172.048 105.557C172.556 105.557 172.979 105.423 173.318 105.156C173.661 104.885 173.918 104.521 174.089 104.066C174.264 103.606 174.352 103.096 174.352 102.533C174.352 101.978 174.266 101.478 174.095 101.032C173.927 100.583 173.671 100.228 173.328 99.9677C172.989 99.7037 172.562 99.5718 172.048 99.5718C171.555 99.5718 171.14 99.6969 170.804 99.9471C170.468 100.194 170.214 100.54 170.043 100.986C169.872 101.428 169.786 101.944 169.786 102.533ZM177.097 104.323V103.274L181.725 95.952H182.486V97.5768H181.971L178.475 103.109V103.192H184.707V104.323H177.097ZM182.054 106.482V104.004V103.515V95.952H183.267V106.482H182.054Z" fill="#3A3B3F"/>
<path d="M301.382 106.482V105.104L305.038 101.52C305.387 101.167 305.679 100.854 305.912 100.58C306.145 100.305 306.32 100.04 306.436 99.7826C306.553 99.5255 306.611 99.2513 306.611 98.9599C306.611 98.6274 306.536 98.3429 306.385 98.1064C306.234 97.8664 306.026 97.6813 305.763 97.5511C305.499 97.4208 305.199 97.3557 304.863 97.3557C304.517 97.3557 304.213 97.4277 303.953 97.5716C303.692 97.7122 303.49 97.9127 303.346 98.1732C303.205 98.4337 303.135 98.7439 303.135 99.1039H301.32C301.32 98.4354 301.473 97.8544 301.778 97.3608C302.083 96.8672 302.503 96.485 303.037 96.2142C303.576 95.9434 304.193 95.808 304.888 95.808C305.595 95.808 306.215 95.94 306.75 96.204C307.284 96.4679 307.699 96.8295 307.994 97.2889C308.292 97.7482 308.441 98.2726 308.441 98.8622C308.441 99.2564 308.366 99.6437 308.215 100.024C308.064 100.405 307.799 100.826 307.418 101.289C307.041 101.752 306.512 102.312 305.829 102.97L304.014 104.816V104.888H308.601V106.482H301.382ZM311.49 106.595C311.178 106.595 310.911 106.486 310.688 106.266C310.465 106.047 310.355 105.779 310.359 105.464C310.355 105.156 310.465 104.892 310.688 104.672C310.911 104.453 311.178 104.343 311.49 104.343C311.792 104.343 312.054 104.453 312.277 104.672C312.503 104.892 312.618 105.156 312.621 105.464C312.618 105.673 312.563 105.863 312.457 106.035C312.354 106.206 312.217 106.343 312.045 106.446C311.877 106.546 311.692 106.595 311.49 106.595ZM314.517 106.482L318.995 97.6179V97.5459H313.797V95.952H320.97V97.5819L316.497 106.482H314.517ZM326.22 95.952H328.554L331.681 103.582H331.804L334.93 95.952H337.264V106.482H335.434V99.2478H335.336L332.426 106.451H331.058L328.148 99.2324H328.051V106.482H326.22V95.952ZM339.29 106.482V95.952H341.151V99.8905H341.228C341.324 99.6986 341.46 99.4946 341.635 99.2787C341.809 99.0593 342.046 98.8725 342.344 98.7182C342.642 98.5606 343.023 98.4817 343.486 98.4817C344.096 98.4817 344.646 98.6377 345.136 98.9496C345.63 99.2581 346.02 99.7157 346.308 100.322C346.6 100.926 346.745 101.666 346.745 102.544C346.745 103.411 346.603 104.148 346.319 104.755C346.034 105.361 345.647 105.824 345.157 106.143C344.666 106.462 344.111 106.621 343.491 106.621C343.038 106.621 342.663 106.546 342.365 106.395C342.066 106.244 341.827 106.062 341.645 105.85C341.467 105.634 341.328 105.43 341.228 105.238H341.12V106.482H339.29ZM341.115 102.533C341.115 103.044 341.187 103.491 341.331 103.875C341.479 104.259 341.689 104.559 341.964 104.775C342.241 104.988 342.577 105.094 342.971 105.094C343.383 105.094 343.727 104.984 344.005 104.765C344.283 104.542 344.492 104.239 344.632 103.855C344.776 103.467 344.848 103.027 344.848 102.533C344.848 102.043 344.778 101.608 344.637 101.227C344.497 100.847 344.288 100.549 344.01 100.333C343.732 100.117 343.386 100.009 342.971 100.009C342.574 100.009 342.236 100.113 341.959 100.322C341.681 100.532 341.47 100.825 341.326 101.202C341.186 101.579 341.115 102.023 341.115 102.533Z" fill="#3A3B3F"/>
<path d="M566.578 98.919C566.516 98.398 566.266 97.9935 565.827 97.7056C565.388 97.4177 564.85 97.2737 564.213 97.2737C563.746 97.2737 563.339 97.3491 562.989 97.4999C562.643 97.6507 562.372 97.8581 562.176 98.1221C561.985 98.386 561.889 98.6859 561.889 99.0219C561.889 99.3029 561.955 99.5446 562.089 99.7468C562.226 99.9456 562.401 100.112 562.614 100.246C562.826 100.376 563.049 100.484 563.282 100.57C563.515 100.652 563.729 100.719 563.925 100.77L564.994 101.058C565.268 101.13 565.573 101.229 565.909 101.356C566.249 101.483 566.573 101.656 566.881 101.875C567.193 102.091 567.45 102.369 567.652 102.708C567.855 103.048 567.956 103.464 567.956 103.958C567.956 104.527 567.807 105.041 567.508 105.5C567.214 105.96 566.782 106.325 566.213 106.596C565.647 106.866 564.96 107.002 564.151 107.002C563.397 107.002 562.744 106.88 562.192 106.637C561.643 106.393 561.212 106.054 560.896 105.619C560.584 105.183 560.408 104.678 560.367 104.102H561.683C561.717 104.499 561.851 104.829 562.084 105.089C562.32 105.346 562.619 105.538 562.979 105.665C563.342 105.788 563.733 105.85 564.151 105.85C564.638 105.85 565.075 105.771 565.462 105.613C565.849 105.452 566.156 105.23 566.382 104.945C566.609 104.657 566.722 104.321 566.722 103.937C566.722 103.588 566.624 103.303 566.429 103.084C566.233 102.864 565.976 102.686 565.657 102.549C565.339 102.412 564.994 102.292 564.624 102.189L563.328 101.819C562.506 101.582 561.854 101.245 561.374 100.806C560.894 100.367 560.655 99.7931 560.655 99.0836C560.655 98.494 560.814 97.9798 561.133 97.5411C561.455 97.0989 561.887 96.7561 562.428 96.5127C562.973 96.2659 563.582 96.1425 564.254 96.1425C564.932 96.1425 565.536 96.2642 566.064 96.5076C566.591 96.7475 567.01 97.0766 567.318 97.4948C567.63 97.913 567.795 98.3877 567.812 98.919H566.578ZM573.271 98.919V99.9474H569.178V98.919H573.271ZM570.371 97.0269H571.584V104.554C571.584 104.897 571.634 105.154 571.733 105.326C571.836 105.494 571.966 105.607 572.124 105.665C572.285 105.72 572.455 105.747 572.633 105.747C572.767 105.747 572.876 105.74 572.962 105.727C573.048 105.709 573.116 105.696 573.168 105.685L573.415 106.776C573.332 106.806 573.218 106.837 573.07 106.868C572.923 106.902 572.736 106.919 572.51 106.919C572.167 106.919 571.831 106.846 571.502 106.698C571.176 106.551 570.905 106.326 570.69 106.025C570.477 105.723 570.371 105.343 570.371 104.883V97.0269ZM575.044 106.817V98.919H576.217V100.112H576.299C576.443 99.7211 576.703 99.4041 577.08 99.1607C577.457 98.9173 577.882 98.7956 578.355 98.7956C578.445 98.7956 578.556 98.7973 578.69 98.8008C578.823 98.8042 578.924 98.8093 578.993 98.8162V100.05C578.952 100.04 578.858 100.024 578.71 100.004C578.566 99.9799 578.414 99.9679 578.253 99.9679C577.869 99.9679 577.526 100.048 577.224 100.21C576.926 100.367 576.69 100.587 576.515 100.868C576.343 101.145 576.258 101.462 576.258 101.819V106.817H575.044ZM583.451 106.981C582.69 106.981 582.033 106.813 581.481 106.477C580.933 106.138 580.51 105.665 580.211 105.058C579.917 104.448 579.769 103.738 579.769 102.93C579.769 102.121 579.917 101.408 580.211 100.791C580.51 100.17 580.924 99.6869 581.456 99.3406C581.99 98.991 582.614 98.8162 583.327 98.8162C583.739 98.8162 584.145 98.8847 584.546 99.0219C584.947 99.159 585.312 99.3818 585.641 99.6903C585.97 99.9954 586.232 100.4 586.428 100.904C586.623 101.408 586.721 102.028 586.721 102.765V103.279H580.633V102.23H585.487C585.487 101.785 585.398 101.387 585.219 101.037C585.045 100.688 584.794 100.412 584.469 100.21C584.146 100.007 583.766 99.9062 583.327 99.9062C582.844 99.9062 582.426 100.026 582.073 100.266C581.723 100.503 581.454 100.811 581.265 101.192C581.077 101.572 580.983 101.98 580.983 102.415V103.115C580.983 103.711 581.085 104.217 581.291 104.631C581.5 105.043 581.79 105.356 582.16 105.572C582.53 105.785 582.96 105.891 583.451 105.891C583.769 105.891 584.057 105.847 584.314 105.757C584.575 105.665 584.799 105.528 584.988 105.346C585.176 105.161 585.322 104.931 585.425 104.657L586.597 104.986C586.474 105.384 586.267 105.733 585.975 106.035C585.684 106.333 585.324 106.566 584.895 106.734C584.467 106.899 583.985 106.981 583.451 106.981ZM590.839 107.002C590.338 107.002 589.884 106.907 589.476 106.719C589.068 106.527 588.745 106.251 588.505 105.891C588.265 105.528 588.145 105.089 588.145 104.575C588.145 104.122 588.234 103.756 588.412 103.475C588.59 103.19 588.829 102.967 589.127 102.806C589.425 102.645 589.754 102.525 590.114 102.446C590.477 102.364 590.842 102.299 591.209 102.251C591.689 102.189 592.078 102.143 592.376 102.112C592.678 102.078 592.897 102.021 593.034 101.942C593.175 101.863 593.245 101.726 593.245 101.531V101.49C593.245 100.983 593.106 100.588 592.829 100.307C592.555 100.026 592.138 99.8857 591.579 99.8857C591 99.8857 590.546 100.012 590.217 100.266C589.888 100.52 589.656 100.791 589.523 101.079L588.371 100.667C588.577 100.187 588.851 99.8137 589.194 99.5463C589.54 99.2755 589.917 99.087 590.325 98.9807C590.736 98.871 591.141 98.8162 591.538 98.8162C591.792 98.8162 592.083 98.847 592.412 98.9087C592.745 98.967 593.065 99.0887 593.374 99.2738C593.686 99.4589 593.944 99.7383 594.15 100.112C594.356 100.486 594.459 100.986 594.459 101.613V106.817H593.245V105.747H593.184C593.101 105.919 592.964 106.102 592.772 106.297C592.58 106.493 592.325 106.659 592.006 106.796C591.687 106.933 591.298 107.002 590.839 107.002ZM591.024 105.912C591.504 105.912 591.908 105.817 592.237 105.629C592.57 105.44 592.82 105.197 592.988 104.899C593.16 104.601 593.245 104.287 593.245 103.958V102.847C593.194 102.909 593.081 102.966 592.906 103.017C592.734 103.065 592.536 103.108 592.309 103.145C592.087 103.18 591.869 103.211 591.656 103.238C591.447 103.262 591.278 103.283 591.147 103.3C590.832 103.341 590.537 103.408 590.263 103.5C589.992 103.589 589.773 103.725 589.605 103.906C589.44 104.085 589.358 104.328 589.358 104.637C589.358 105.058 589.514 105.377 589.826 105.593C590.141 105.805 590.541 105.912 591.024 105.912ZM596.622 106.817V98.919H597.794V100.153H597.897C598.061 99.7314 598.327 99.4041 598.694 99.171C599.061 98.9345 599.501 98.8162 600.015 98.8162C600.536 98.8162 600.97 98.9345 601.316 99.171C601.666 99.4041 601.938 99.7314 602.134 100.153H602.216C602.418 99.7451 602.721 99.4212 603.126 99.1813C603.53 98.9379 604.015 98.8162 604.581 98.8162C605.287 98.8162 605.865 99.0373 606.314 99.4795C606.763 99.9182 606.987 100.602 606.987 101.531V106.817H605.774V101.531C605.774 100.948 605.615 100.532 605.296 100.282C604.977 100.031 604.602 99.9062 604.17 99.9062C603.614 99.9062 603.184 100.074 602.879 100.41C602.574 100.743 602.422 101.164 602.422 101.675V106.817H601.188V101.408C601.188 100.959 601.042 100.597 600.75 100.323C600.459 100.045 600.084 99.9062 599.624 99.9062C599.309 99.9062 599.014 99.9902 598.74 100.158C598.469 100.326 598.25 100.559 598.082 100.857C597.917 101.152 597.835 101.493 597.835 101.881V106.817H596.622ZM612.466 106.981C611.705 106.981 611.048 106.813 610.496 106.477C609.948 106.138 609.524 105.665 609.226 105.058C608.931 104.448 608.784 103.738 608.784 102.93C608.784 102.121 608.931 101.408 609.226 100.791C609.524 100.17 609.939 99.6869 610.471 99.3406C611.005 98.991 611.629 98.8162 612.342 98.8162C612.753 98.8162 613.16 98.8847 613.561 99.0219C613.962 99.159 614.327 99.3818 614.656 99.6903C614.985 99.9954 615.247 100.4 615.443 100.904C615.638 101.408 615.736 102.028 615.736 102.765V103.279H609.648V102.23H614.502C614.502 101.785 614.412 101.387 614.234 101.037C614.059 100.688 613.809 100.412 613.484 100.21C613.161 100.007 612.781 99.9062 612.342 99.9062C611.859 99.9062 611.441 100.026 611.088 100.266C610.738 100.503 610.469 100.811 610.28 101.192C610.092 101.572 609.998 101.98 609.998 102.415V103.115C609.998 103.711 610.1 104.217 610.306 104.631C610.515 105.043 610.805 105.356 611.175 105.572C611.545 105.785 611.975 105.891 612.466 105.891C612.784 105.891 613.072 105.847 613.329 105.757C613.59 105.665 613.814 105.528 614.003 105.346C614.191 105.161 614.337 104.931 614.44 104.657L615.612 104.986C615.489 105.384 615.281 105.733 614.99 106.035C614.699 106.333 614.339 106.566 613.91 106.734C613.482 106.899 613 106.981 612.466 106.981ZM620.512 106.981C619.854 106.981 619.273 106.815 618.769 106.482C618.265 106.147 617.871 105.673 617.586 105.063C617.302 104.45 617.16 103.725 617.16 102.888C617.16 102.059 617.302 101.339 617.586 100.729C617.871 100.119 618.267 99.6474 618.774 99.3149C619.281 98.9824 619.868 98.8162 620.533 98.8162C621.047 98.8162 621.453 98.9019 621.751 99.0733C622.053 99.2412 622.282 99.4332 622.44 99.6491C622.601 99.8617 622.726 100.036 622.815 100.174H622.918V96.2865H624.132V106.817H622.959V105.603H622.815C622.726 105.747 622.599 105.929 622.435 106.148C622.27 106.364 622.036 106.558 621.731 106.729C621.425 106.897 621.019 106.981 620.512 106.981ZM620.676 105.891C621.163 105.891 621.575 105.764 621.91 105.511C622.246 105.254 622.502 104.899 622.677 104.446C622.851 103.99 622.939 103.464 622.939 102.868C622.939 102.278 622.853 101.762 622.682 101.32C622.51 100.875 622.257 100.528 621.921 100.282C621.585 100.031 621.17 99.9062 620.676 99.9062C620.162 99.9062 619.734 100.038 619.391 100.302C619.052 100.563 618.796 100.917 618.625 101.366C618.457 101.812 618.373 102.313 618.373 102.868C618.373 103.43 618.459 103.941 618.63 104.4C618.805 104.856 619.062 105.219 619.401 105.49C619.744 105.757 620.169 105.891 620.676 105.891Z" fill="#9EA0A5"/>
<path fill-rule="evenodd" clip-rule="evenodd" d="M547.099 105.293C549.364 105.293 551.201 103.441 551.201 101.157C551.201 98.8726 549.364 97.0208 547.099 97.0208C544.833 97.0208 542.996 98.8726 542.996 101.157C542.996 103.441 544.833 105.293 547.099 105.293Z" fill="#47B881"/>
<path d="M422.664 106.613C422.133 106.613 421.597 106.502 421.057 106.28C420.516 106.048 420.067 105.749 419.71 105.382L420.159 104.441C420.526 104.818 420.926 105.098 421.361 105.281C421.795 105.464 422.234 105.556 422.678 105.556C423.653 105.556 424.401 105.209 424.922 104.514C425.453 103.809 425.719 102.757 425.719 101.357V100.011H425.864C425.806 100.551 425.637 101.024 425.357 101.43C425.086 101.835 424.734 102.144 424.3 102.356C423.875 102.569 423.397 102.675 422.866 102.675C422.249 102.675 421.698 102.54 421.216 102.269C420.743 101.999 420.371 101.618 420.101 101.125C419.831 100.633 419.695 100.078 419.695 99.4604C419.695 98.8136 419.835 98.2441 420.115 97.7518C420.405 97.2499 420.796 96.859 421.288 96.579C421.79 96.2895 422.364 96.1447 423.011 96.1447C424.256 96.1447 425.212 96.579 425.878 97.4478C426.554 98.3165 426.892 99.5424 426.892 101.125C426.892 102.293 426.723 103.288 426.385 104.108C426.047 104.929 425.564 105.551 424.937 105.976C424.309 106.401 423.552 106.613 422.664 106.613ZM423.113 101.676C423.557 101.676 423.947 101.579 424.285 101.386C424.623 101.193 424.884 100.928 425.067 100.59C425.26 100.252 425.357 99.8609 425.357 99.4169C425.357 98.9633 425.26 98.5675 425.067 98.2296C424.884 97.8918 424.623 97.6264 424.285 97.4333C423.947 97.2403 423.557 97.1437 423.113 97.1437C422.668 97.1437 422.273 97.2403 421.925 97.4333C421.587 97.6264 421.322 97.8918 421.129 98.2296C420.945 98.5675 420.854 98.9633 420.854 99.4169C420.854 99.8609 420.945 100.252 421.129 100.59C421.322 100.928 421.587 101.193 421.925 101.386C422.273 101.579 422.668 101.676 423.113 101.676ZM428.543 100.691V99.2142H430.02V100.691H428.543ZM428.543 106.483V105.006H430.02V106.483H428.543ZM435.405 106.613C434.961 106.613 434.527 106.565 434.102 106.468C433.677 106.372 433.277 106.232 432.9 106.048C432.534 105.865 432.21 105.643 431.93 105.382L432.379 104.456C432.852 104.832 433.335 105.112 433.827 105.295C434.319 105.469 434.845 105.556 435.405 105.556C436.139 105.556 436.713 105.358 437.128 104.962C437.543 104.567 437.751 104.045 437.751 103.399C437.751 102.733 437.553 102.187 437.157 101.763C436.761 101.338 436.211 101.125 435.507 101.125C435.005 101.125 434.556 101.227 434.16 101.43C433.764 101.623 433.422 101.927 433.132 102.342H432.263V96.275H438.316V97.2885H433.422V101.357H433.103C433.364 100.952 433.721 100.643 434.175 100.43C434.638 100.208 435.159 100.097 435.738 100.097C436.395 100.097 436.959 100.233 437.432 100.503C437.915 100.773 438.287 101.15 438.547 101.632C438.808 102.115 438.938 102.68 438.938 103.326C438.938 103.973 438.793 104.547 438.504 105.049C438.224 105.542 437.818 105.928 437.288 106.208C436.766 106.478 436.139 106.613 435.405 106.613ZM445.092 106.483V104.267H440.227V103.399L445.28 96.275H446.265V103.297H447.829V104.267H446.265V106.483H445.092ZM445.092 103.297V97.6939H445.411L441.212 103.601V103.297H445.092Z" fill="#9EA0A5"/>
</g>
<g filter="url(#filter1_d_222_197)">
<g filter="url(#filter2_d_222_197)">
<rect x="235.834" y="54" width="34.6944" height="34.6944" rx="3.09087" fill="white"/>
<rect x="235.885" y="54.051" width="34.5923" height="34.5923" rx="3.03985" stroke="#D8D8D8" strokeWidth="0.102042"/>
</g>
<path d="M258.856 68.6167C258.804 69.7687 258.004 71.3461 256.458 73.3482C254.859 75.4395 253.507 76.4851 252.4 76.4851C251.715 76.4851 251.135 75.8484 250.661 74.5747C250.344 73.4071 250.028 72.2396 249.712 71.0721C249.36 69.7991 248.983 69.1617 248.579 69.1617C248.491 69.1617 248.183 69.348 247.656 69.7191L247.103 69.0018C247.679 68.4929 248.251 67.9795 248.819 67.4617C249.593 66.7886 250.174 66.4346 250.561 66.3988C251.476 66.3103 252.04 66.9399 252.251 68.2876C252.48 69.7416 252.638 70.646 252.727 71C252.99 72.2062 253.28 72.8086 253.598 72.8086C253.844 72.8086 254.213 72.4175 254.706 71.635C255.199 70.8524 255.463 70.257 255.498 69.848C255.568 69.1726 255.304 68.8341 254.706 68.8341C254.425 68.8341 254.135 68.8993 253.836 69.0281C254.414 67.1231 255.518 66.1979 257.148 66.2507C258.356 66.2863 258.926 67.075 258.856 68.6167" fill="#32B8E8"/>
</g>
<g filter="url(#filter3_d_222_197)">
<rect width="583.191" height="49.7295" transform="translate(61.8088 139.082)" fill="white"/>
<path d="M71.1393 169.774L75.8491 160.458V160.375H70.4195V159.244H77.1654V160.437L72.4762 169.774H71.1393ZM82.1911 169.918C81.4849 169.918 80.8611 169.793 80.3195 169.543C79.7813 169.289 79.3614 168.941 79.0598 168.499C78.7581 168.054 78.609 167.546 78.6125 166.977C78.609 166.532 78.6964 166.12 78.8747 165.743C79.0529 165.363 79.2963 165.046 79.6048 164.792C79.9167 164.535 80.2647 164.372 80.6486 164.304V164.242C80.1447 164.112 79.7436 163.829 79.4454 163.394C79.1472 162.955 78.9998 162.456 79.0032 161.897C78.9998 161.363 79.1352 160.884 79.4094 160.463C79.6836 160.041 80.0607 159.709 80.5406 159.465C81.0239 159.222 81.5741 159.1 82.1911 159.1C82.8012 159.1 83.3462 159.222 83.8261 159.465C84.306 159.709 84.6831 160.041 84.9573 160.463C85.2349 160.884 85.3755 161.363 85.3789 161.897C85.3755 162.456 85.2229 162.955 84.9213 163.394C84.6231 163.829 84.2272 164.112 83.7336 164.242V164.304C84.1141 164.372 84.4568 164.535 84.7619 164.792C85.067 165.046 85.3104 165.363 85.492 165.743C85.6737 166.12 85.7663 166.532 85.7697 166.977C85.7663 167.546 85.612 168.054 85.3069 168.499C85.0053 168.941 84.5854 169.289 84.0472 169.543C83.5125 169.793 82.8938 169.918 82.1911 169.918ZM82.1911 168.787C82.6675 168.787 83.0789 168.71 83.4251 168.556C83.7713 168.402 84.0386 168.184 84.2272 167.903C84.4157 167.622 84.5117 167.293 84.5151 166.916C84.5117 166.518 84.4088 166.167 84.2066 165.862C84.0044 165.557 83.7284 165.317 83.3788 165.142C83.0326 164.967 82.6367 164.88 82.1911 164.88C81.742 164.88 81.341 164.967 80.9879 165.142C80.6383 165.317 80.3623 165.557 80.1601 165.862C79.9613 166.167 79.8636 166.518 79.867 166.916C79.8636 167.293 79.9544 167.622 80.1395 167.903C80.3281 168.184 80.5971 168.402 80.9468 168.556C81.2964 168.71 81.7112 168.787 82.1911 168.787ZM82.1911 163.789C82.5681 163.789 82.9023 163.714 83.1937 163.563C83.4885 163.412 83.7199 163.202 83.8878 162.931C84.0558 162.66 84.1415 162.343 84.1449 161.98C84.1415 161.623 84.0575 161.313 83.893 161.049C83.7284 160.782 83.5005 160.576 83.2091 160.432C82.9178 160.285 82.5784 160.211 82.1911 160.211C81.7969 160.211 81.4524 160.285 81.1576 160.432C80.8628 160.576 80.6349 160.782 80.4737 161.049C80.3126 161.313 80.2338 161.623 80.2372 161.98C80.2338 162.343 80.3144 162.66 80.4789 162.931C80.6469 163.202 80.8782 163.412 81.173 163.563C81.4678 163.714 81.8072 163.789 82.1911 163.789ZM91.0409 159.1C91.4728 159.104 91.9047 159.186 92.3366 159.347C92.7685 159.508 93.1627 159.776 93.5192 160.149C93.8757 160.519 94.1619 161.025 94.3778 161.666C94.5938 162.307 94.7018 163.111 94.7018 164.077C94.7018 165.013 94.6127 165.844 94.4344 166.571C94.2596 167.294 94.0059 167.905 93.6734 168.402C93.3444 168.899 92.9433 169.276 92.4703 169.533C92.0007 169.79 91.4694 169.918 90.8764 169.918C90.2868 169.918 89.7606 169.802 89.2979 169.569C88.8385 169.332 88.4615 169.005 88.1667 168.587C87.8753 168.165 87.6885 167.677 87.6063 167.121H88.8608C88.9739 167.605 89.1985 168.004 89.5344 168.319C89.8737 168.631 90.3211 168.787 90.8764 168.787C91.6887 168.787 92.3297 168.432 92.7994 167.723C93.2724 167.013 93.5089 166.011 93.5089 164.715H93.4266C93.2347 165.003 93.0067 165.251 92.7428 165.461C92.4789 165.67 92.1858 165.831 91.8636 165.944C91.5414 166.057 91.1986 166.114 90.8352 166.114C90.2319 166.114 89.6783 165.964 89.1745 165.666C88.674 165.365 88.273 164.952 87.9713 164.427C87.6731 163.899 87.524 163.296 87.524 162.617C87.524 161.973 87.668 161.383 87.9559 160.848C88.2472 160.31 88.6552 159.882 89.1796 159.563C89.7075 159.244 90.3279 159.09 91.0409 159.1ZM91.0409 160.231C90.609 160.231 90.2199 160.339 89.8737 160.555C89.531 160.768 89.2584 161.056 89.0562 161.419C88.8574 161.779 88.758 162.178 88.758 162.617C88.758 163.056 88.854 163.455 89.0459 163.815C89.2413 164.172 89.507 164.456 89.8429 164.669C90.1822 164.878 90.5679 164.982 90.9998 164.982C91.3254 164.982 91.6288 164.919 91.9098 164.792C92.1909 164.662 92.436 164.485 92.6451 164.263C92.8576 164.036 93.0239 163.781 93.1438 163.496C93.2638 163.208 93.3238 162.909 93.3238 162.597C93.3238 162.185 93.2244 161.8 93.0256 161.44C92.8302 161.08 92.5594 160.788 92.2132 160.566C91.8704 160.343 91.4797 160.231 91.0409 160.231ZM96.672 169.774V168.849L100.148 165.044C100.556 164.598 100.892 164.211 101.156 163.882C101.42 163.55 101.615 163.238 101.742 162.946C101.872 162.651 101.937 162.343 101.937 162.021C101.937 161.651 101.848 161.33 101.67 161.059C101.495 160.788 101.255 160.579 100.95 160.432C100.645 160.285 100.302 160.211 99.9216 160.211C99.5171 160.211 99.164 160.295 98.8624 160.463C98.5642 160.627 98.3328 160.859 98.1683 161.157C98.0072 161.455 97.9266 161.805 97.9266 162.206H96.7132C96.7132 161.589 96.8554 161.047 97.1399 160.581C97.4244 160.115 97.8118 159.752 98.3019 159.491C98.7955 159.231 99.3491 159.1 99.9627 159.1C100.58 159.1 101.126 159.231 101.603 159.491C102.079 159.752 102.453 160.103 102.724 160.545C102.995 160.987 103.13 161.479 103.13 162.021C103.13 162.408 103.06 162.787 102.919 163.157C102.782 163.524 102.542 163.933 102.199 164.386C101.86 164.835 101.389 165.383 100.785 166.031L98.4202 168.561V168.643H103.315V169.774H96.672ZM108.678 169.918C108.074 169.918 107.531 169.798 107.048 169.558C106.564 169.319 106.177 168.989 105.886 168.571C105.594 168.153 105.435 167.677 105.407 167.142H106.641C106.689 167.618 106.905 168.013 107.289 168.324C107.677 168.633 108.139 168.787 108.678 168.787C109.109 168.787 109.493 168.686 109.829 168.484C110.169 168.282 110.434 168.004 110.626 167.651C110.822 167.294 110.919 166.892 110.919 166.443C110.919 165.983 110.818 165.574 110.616 165.214C110.417 164.85 110.143 164.564 109.793 164.355C109.444 164.146 109.044 164.04 108.595 164.036C108.273 164.033 107.942 164.083 107.603 164.185C107.264 164.285 106.984 164.413 106.765 164.571L105.572 164.427L106.21 159.244H111.68V160.375H107.279L106.909 163.481H106.971C107.186 163.31 107.457 163.167 107.783 163.054C108.109 162.941 108.448 162.885 108.801 162.885C109.445 162.885 110.02 163.039 110.523 163.347C111.031 163.652 111.428 164.071 111.716 164.602C112.008 165.133 112.153 165.74 112.153 166.422C112.153 167.094 112.003 167.694 111.701 168.222C111.403 168.746 110.991 169.161 110.467 169.466C109.942 169.768 109.346 169.918 108.678 169.918ZM114.144 169.774V168.849L117.62 165.044C118.028 164.598 118.364 164.211 118.628 163.882C118.892 163.55 119.087 163.238 119.214 162.946C119.344 162.651 119.409 162.343 119.409 162.021C119.409 161.651 119.32 161.33 119.142 161.059C118.967 160.788 118.727 160.579 118.422 160.432C118.117 160.285 117.774 160.211 117.394 160.211C116.989 160.211 116.636 160.295 116.335 160.463C116.036 160.627 115.805 160.859 115.64 161.157C115.479 161.455 115.399 161.805 115.399 162.206H114.185C114.185 161.589 114.328 161.047 114.612 160.581C114.897 160.115 115.284 159.752 115.774 159.491C116.268 159.231 116.821 159.1 117.435 159.1C118.052 159.1 118.599 159.231 119.075 159.491C119.551 159.752 119.925 160.103 120.196 160.545C120.467 160.987 120.602 161.479 120.602 162.021C120.602 162.408 120.532 162.787 120.391 163.157C120.254 163.524 120.014 163.933 119.671 164.386C119.332 164.835 118.861 165.383 118.258 166.031L115.892 168.561V168.643H120.787V169.774H114.144ZM126.561 159.244V169.774H125.286V160.581H125.224L122.653 162.288V160.992L125.286 159.244H126.561ZM129.291 167.615V166.566L133.918 159.244H134.679V160.869H134.165L130.669 166.401V166.484H136.901V167.615H129.291ZM134.248 169.774V167.296V166.808V159.244H135.461V169.774H134.248ZM142.066 169.918C141.463 169.918 140.92 169.798 140.437 169.558C139.953 169.319 139.566 168.989 139.275 168.571C138.983 168.153 138.824 167.677 138.796 167.142H140.03C140.078 167.618 140.294 168.013 140.678 168.324C141.066 168.633 141.528 168.787 142.066 168.787C142.498 168.787 142.882 168.686 143.218 168.484C143.558 168.282 143.823 168.004 144.015 167.651C144.211 167.294 144.308 166.892 144.308 166.443C144.308 165.983 144.207 165.574 144.005 165.214C143.806 164.85 143.532 164.564 143.182 164.355C142.833 164.146 142.433 164.04 141.984 164.036C141.662 164.033 141.331 164.083 140.992 164.185C140.653 164.285 140.373 164.413 140.154 164.571L138.961 164.427L139.598 159.244H145.069V160.375H140.668L140.298 163.481H140.359C140.575 163.31 140.846 163.167 141.172 163.054C141.497 162.941 141.837 162.885 142.19 162.885C142.834 162.885 143.408 163.039 143.912 163.347C144.42 163.652 144.817 164.071 145.105 164.602C145.397 165.133 145.542 165.74 145.542 166.422C145.542 167.094 145.391 167.694 145.09 168.222C144.792 168.746 144.38 169.161 143.856 169.466C143.331 169.768 142.735 169.918 142.066 169.918ZM147.862 169.774L152.572 160.458V160.375H147.142V159.244H153.888V160.437L149.199 169.774H147.862ZM154.848 169.857C154.594 169.857 154.377 169.766 154.195 169.584C154.013 169.402 153.923 169.185 153.923 168.931C153.923 168.678 154.013 168.46 154.195 168.278C154.377 168.097 154.594 168.006 154.848 168.006C155.102 168.006 155.319 168.097 155.501 168.278C155.683 168.46 155.774 168.678 155.774 168.931C155.774 169.099 155.731 169.253 155.645 169.394C155.563 169.534 155.451 169.648 155.311 169.733C155.174 169.816 155.019 169.857 154.848 169.857ZM157.899 169.774V161.877H159.072V163.111H159.175C159.339 162.689 159.605 162.362 159.971 162.129C160.338 161.892 160.779 161.774 161.293 161.774C161.814 161.774 162.248 161.892 162.594 162.129C162.943 162.362 163.216 162.689 163.411 163.111H163.494C163.696 162.703 163.999 162.379 164.404 162.139C164.808 161.896 165.293 161.774 165.859 161.774C166.565 161.774 167.142 161.995 167.591 162.437C168.041 162.876 168.265 163.56 168.265 164.489V169.774H167.052V164.489C167.052 163.906 166.892 163.49 166.573 163.239C166.255 162.989 165.879 162.864 165.447 162.864C164.892 162.864 164.462 163.032 164.157 163.368C163.852 163.7 163.699 164.122 163.699 164.633V169.774H162.465V164.365C162.465 163.916 162.32 163.555 162.028 163.28C161.737 163.003 161.361 162.864 160.902 162.864C160.587 162.864 160.292 162.948 160.018 163.116C159.747 163.284 159.528 163.517 159.36 163.815C159.195 164.11 159.113 164.451 159.113 164.838V169.774H157.899ZM170.432 172.736V161.877H171.604V163.131H171.748C171.837 162.994 171.961 162.819 172.118 162.607C172.28 162.391 172.509 162.199 172.807 162.031C173.109 161.86 173.517 161.774 174.031 161.774C174.696 161.774 175.282 161.94 175.79 162.273C176.297 162.605 176.693 163.077 176.977 163.687C177.262 164.297 177.404 165.017 177.404 165.846C177.404 166.683 177.262 167.408 176.977 168.021C176.693 168.631 176.299 169.104 175.795 169.44C175.291 169.773 174.71 169.939 174.052 169.939C173.544 169.939 173.138 169.855 172.833 169.687C172.528 169.516 172.293 169.322 172.129 169.106C171.964 168.887 171.837 168.705 171.748 168.561H171.645V172.736H170.432ZM171.625 165.826C171.625 166.422 171.712 166.948 171.887 167.404C172.062 167.857 172.317 168.211 172.653 168.468C172.989 168.722 173.4 168.849 173.887 168.849C174.394 168.849 174.818 168.715 175.157 168.448C175.5 168.177 175.757 167.814 175.928 167.358C176.103 166.899 176.191 166.388 176.191 165.826C176.191 165.27 176.105 164.77 175.934 164.324C175.766 163.875 175.51 163.52 175.167 163.26C174.828 162.996 174.401 162.864 173.887 162.864C173.394 162.864 172.979 162.989 172.643 163.239C172.307 163.486 172.053 163.832 171.882 164.278C171.711 164.72 171.625 165.236 171.625 165.826ZM178.936 167.615V166.566L183.564 159.244H184.324V160.869H183.81L180.314 166.401V166.484H186.546V167.615H178.936ZM183.893 169.774V167.296V166.808V159.244H185.106V169.774H183.893Z" fill="#3A3B3F"/>
<path d="M303.912 169.918C303.227 169.918 302.613 169.79 302.072 169.533C301.53 169.272 301.1 168.916 300.781 168.463C300.466 168.011 300.298 167.493 300.277 166.91H302.128C302.162 167.342 302.349 167.695 302.689 167.97C303.028 168.24 303.436 168.376 303.912 168.376C304.286 168.376 304.618 168.29 304.91 168.119C305.201 167.947 305.431 167.709 305.599 167.404C305.767 167.099 305.849 166.751 305.846 166.36C305.849 165.963 305.765 165.61 305.594 165.301C305.422 164.993 305.187 164.751 304.889 164.576C304.591 164.398 304.248 164.309 303.861 164.309C303.546 164.305 303.235 164.364 302.93 164.484C302.625 164.604 302.384 164.761 302.205 164.957L300.483 164.674L301.033 159.244H307.141V160.838H302.611L302.308 163.63H302.37C302.565 163.4 302.841 163.21 303.198 163.059C303.554 162.905 303.945 162.828 304.37 162.828C305.008 162.828 305.577 162.979 306.077 163.28C306.577 163.579 306.972 163.99 307.26 164.514C307.548 165.039 307.691 165.639 307.691 166.314C307.691 167.01 307.53 167.63 307.208 168.175C306.889 168.717 306.445 169.144 305.876 169.456C305.311 169.764 304.656 169.918 303.912 169.918ZM310.176 169.888C309.864 169.888 309.597 169.778 309.374 169.558C309.151 169.339 309.041 169.072 309.045 168.756C309.041 168.448 309.151 168.184 309.374 167.965C309.597 167.745 309.864 167.635 310.176 167.635C310.478 167.635 310.74 167.745 310.963 167.965C311.189 168.184 311.304 168.448 311.307 168.756C311.304 168.965 311.249 169.156 311.143 169.327C311.04 169.498 310.903 169.636 310.731 169.738C310.563 169.838 310.378 169.888 310.176 169.888ZM316.139 159.244V169.774H314.231V161.1H314.169L311.707 162.674V160.926L314.324 159.244H316.139ZM322.403 159.244H324.738L327.864 166.875H327.987L331.113 159.244H333.448V169.774H331.617V162.54H331.519L328.609 169.744H327.242L324.331 162.525H324.234V169.774H322.403V159.244ZM335.473 169.774V159.244H337.334V163.183H337.411C337.507 162.991 337.643 162.787 337.818 162.571C337.993 162.352 338.229 162.165 338.527 162.01C338.825 161.853 339.206 161.774 339.669 161.774C340.279 161.774 340.829 161.93 341.319 162.242C341.813 162.55 342.204 163.008 342.491 163.615C342.783 164.218 342.929 164.958 342.929 165.836C342.929 166.703 342.786 167.44 342.502 168.047C342.217 168.654 341.83 169.116 341.34 169.435C340.85 169.754 340.294 169.913 339.674 169.913C339.221 169.913 338.846 169.838 338.548 169.687C338.25 169.536 338.01 169.355 337.828 169.142C337.65 168.926 337.511 168.722 337.411 168.53H337.304V169.774H335.473ZM337.298 165.826C337.298 166.336 337.37 166.784 337.514 167.168C337.662 167.551 337.873 167.851 338.147 168.067C338.424 168.28 338.76 168.386 339.155 168.386C339.566 168.386 339.91 168.276 340.188 168.057C340.466 167.834 340.675 167.531 340.815 167.147C340.959 166.76 341.031 166.319 341.031 165.826C341.031 165.335 340.961 164.9 340.82 164.52C340.68 164.139 340.471 163.841 340.193 163.625C339.915 163.409 339.569 163.301 339.155 163.301C338.757 163.301 338.419 163.406 338.142 163.615C337.864 163.824 337.653 164.117 337.509 164.494C337.369 164.871 337.298 165.315 337.298 165.826Z" fill="#3A3B3F"/>
<path d="M560.964 159.568V170.098H559.689V159.568H560.964ZM564.518 165.347V170.098H563.305V162.201H564.477V163.435H564.58C564.765 163.033 565.046 162.711 565.423 162.468C565.8 162.221 566.287 162.098 566.883 162.098C567.418 162.098 567.886 162.207 568.287 162.427C568.688 162.643 569 162.972 569.223 163.414C569.445 163.853 569.557 164.408 569.557 165.08V170.098H568.343V165.162C568.343 164.542 568.182 164.058 567.86 163.712C567.538 163.363 567.096 163.188 566.534 163.188C566.146 163.188 565.8 163.272 565.495 163.44C565.193 163.608 564.955 163.853 564.78 164.175C564.605 164.497 564.518 164.888 564.518 165.347ZM571.887 170.098V159.568H575.445C576.271 159.568 576.946 159.717 577.471 160.015C577.999 160.31 578.39 160.709 578.643 161.213C578.897 161.717 579.024 162.279 579.024 162.9C579.024 163.52 578.897 164.084 578.643 164.591C578.393 165.099 578.006 165.503 577.481 165.805C576.957 166.103 576.285 166.252 575.466 166.252H572.915V165.121H575.424C575.99 165.121 576.444 165.023 576.787 164.828C577.13 164.633 577.378 164.369 577.533 164.036C577.69 163.7 577.769 163.321 577.769 162.9C577.769 162.478 577.69 162.101 577.533 161.769C577.378 161.436 577.128 161.176 576.782 160.987C576.436 160.795 575.976 160.699 575.404 160.699H573.162V170.098H571.887ZM580.862 170.098V162.201H582.034V163.393H582.116C582.26 163.003 582.521 162.686 582.898 162.442C583.275 162.199 583.7 162.077 584.173 162.077C584.262 162.077 584.373 162.079 584.507 162.082C584.641 162.086 584.742 162.091 584.81 162.098V163.332C584.769 163.321 584.675 163.306 584.528 163.285C584.384 163.261 584.231 163.249 584.07 163.249C583.686 163.249 583.343 163.33 583.042 163.491C582.743 163.649 582.507 163.868 582.332 164.149C582.161 164.427 582.075 164.744 582.075 165.1V170.098H580.862ZM589.165 170.263C588.452 170.263 587.826 170.093 587.288 169.754C586.754 169.414 586.335 168.94 586.034 168.329C585.736 167.719 585.586 167.006 585.586 166.19C585.586 165.368 585.736 164.65 586.034 164.036C586.335 163.423 586.754 162.946 587.288 162.607C587.826 162.267 588.452 162.098 589.165 162.098C589.878 162.098 590.502 162.267 591.037 162.607C591.575 162.946 591.993 163.423 592.291 164.036C592.593 164.65 592.744 165.368 592.744 166.19C592.744 167.006 592.593 167.719 592.291 168.329C591.993 168.94 591.575 169.414 591.037 169.754C590.502 170.093 589.878 170.263 589.165 170.263ZM589.165 169.173C589.707 169.173 590.152 169.034 590.502 168.756C590.852 168.479 591.11 168.113 591.278 167.661C591.446 167.209 591.53 166.718 591.53 166.19C591.53 165.663 591.446 165.171 591.278 164.715C591.11 164.259 590.852 163.89 590.502 163.609C590.152 163.328 589.707 163.188 589.165 163.188C588.623 163.188 588.178 163.328 587.828 163.609C587.479 163.89 587.22 164.259 587.052 164.715C586.884 165.171 586.8 165.663 586.8 166.19C586.8 166.718 586.884 167.209 587.052 167.661C587.22 168.113 587.479 168.479 587.828 168.756C588.178 169.034 588.623 169.173 589.165 169.173ZM597.732 173.224C597.146 173.224 596.642 173.149 596.22 172.998C595.799 172.851 595.447 172.655 595.166 172.412C594.889 172.172 594.668 171.915 594.503 171.641L595.47 170.962C595.579 171.106 595.718 171.27 595.886 171.456C596.054 171.644 596.284 171.807 596.575 171.944C596.87 172.085 597.256 172.155 597.732 172.155C598.37 172.155 598.896 172.001 599.311 171.692C599.725 171.384 599.933 170.9 599.933 170.242V168.638H599.83C599.741 168.782 599.614 168.96 599.449 169.173C599.288 169.382 599.055 169.569 598.75 169.733C598.448 169.894 598.041 169.975 597.526 169.975C596.889 169.975 596.316 169.824 595.809 169.522C595.305 169.221 594.906 168.782 594.611 168.206C594.32 167.63 594.174 166.931 594.174 166.108C594.174 165.299 594.316 164.595 594.601 163.995C594.885 163.392 595.281 162.925 595.789 162.596C596.296 162.264 596.882 162.098 597.547 162.098C598.061 162.098 598.469 162.183 598.771 162.355C599.076 162.523 599.309 162.715 599.47 162.931C599.634 163.143 599.761 163.318 599.85 163.455H599.974V162.201H601.146V170.324C601.146 171.003 600.992 171.555 600.683 171.98C600.378 172.408 599.967 172.722 599.449 172.921C598.935 173.123 598.363 173.224 597.732 173.224ZM597.691 168.885C598.178 168.885 598.589 168.773 598.925 168.55C599.261 168.328 599.516 168.007 599.691 167.589C599.866 167.171 599.953 166.67 599.953 166.088C599.953 165.519 599.868 165.016 599.696 164.581C599.525 164.146 599.271 163.805 598.935 163.558C598.599 163.311 598.185 163.188 597.691 163.188C597.177 163.188 596.748 163.318 596.406 163.578C596.066 163.839 595.811 164.189 595.639 164.627C595.471 165.066 595.387 165.553 595.387 166.088C595.387 166.636 595.473 167.121 595.645 167.543C595.819 167.961 596.076 168.29 596.416 168.53C596.759 168.766 597.184 168.885 597.691 168.885ZM603.316 170.098V162.201H604.488V163.393H604.57C604.714 163.003 604.975 162.686 605.352 162.442C605.729 162.199 606.154 162.077 606.627 162.077C606.716 162.077 606.827 162.079 606.961 162.082C607.095 162.086 607.196 162.091 607.264 162.098V163.332C607.223 163.321 607.129 163.306 606.982 163.285C606.838 163.261 606.685 163.249 606.524 163.249C606.14 163.249 605.797 163.33 605.496 163.491C605.198 163.649 604.961 163.868 604.786 164.149C604.615 164.427 604.529 164.744 604.529 165.1V170.098H603.316ZM611.722 170.263C610.961 170.263 610.305 170.095 609.753 169.759C609.204 169.419 608.781 168.946 608.483 168.34C608.188 167.73 608.041 167.02 608.041 166.211C608.041 165.402 608.188 164.689 608.483 164.072C608.781 163.452 609.196 162.968 609.727 162.622C610.262 162.273 610.886 162.098 611.599 162.098C612.01 162.098 612.416 162.166 612.817 162.303C613.218 162.44 613.583 162.663 613.912 162.972C614.241 163.277 614.504 163.681 614.699 164.185C614.894 164.689 614.992 165.31 614.992 166.046V166.561H608.904V165.512H613.758C613.758 165.066 613.669 164.669 613.491 164.319C613.316 163.969 613.066 163.693 612.74 163.491C612.418 163.289 612.037 163.188 611.599 163.188C611.115 163.188 610.697 163.308 610.344 163.548C609.994 163.784 609.725 164.093 609.537 164.473C609.348 164.854 609.254 165.262 609.254 165.697V166.396C609.254 166.993 609.357 167.498 609.562 167.913C609.772 168.324 610.061 168.638 610.431 168.854C610.802 169.066 611.232 169.173 611.722 169.173C612.041 169.173 612.329 169.128 612.586 169.039C612.846 168.946 613.071 168.809 613.259 168.628C613.448 168.443 613.594 168.213 613.696 167.939L614.869 168.268C614.745 168.665 614.538 169.015 614.247 169.317C613.955 169.615 613.595 169.848 613.167 170.016C612.738 170.18 612.257 170.263 611.722 170.263ZM622.38 163.969L621.29 164.278C621.222 164.096 621.121 163.92 620.987 163.748C620.857 163.573 620.679 163.429 620.452 163.316C620.226 163.203 619.936 163.147 619.583 163.147C619.1 163.147 618.697 163.258 618.375 163.481C618.056 163.7 617.897 163.98 617.897 164.319C617.897 164.621 618.007 164.859 618.226 165.034C618.445 165.208 618.788 165.354 619.254 165.471L620.427 165.759C621.133 165.93 621.659 166.192 622.005 166.545C622.351 166.895 622.524 167.346 622.524 167.898C622.524 168.35 622.394 168.754 622.134 169.111C621.877 169.467 621.517 169.749 621.054 169.954C620.591 170.16 620.053 170.263 619.439 170.263C618.634 170.263 617.967 170.088 617.439 169.738C616.911 169.389 616.577 168.878 616.437 168.206L617.588 167.918C617.698 168.343 617.905 168.662 618.211 168.874C618.519 169.087 618.922 169.193 619.419 169.193C619.984 169.193 620.433 169.073 620.766 168.833C621.102 168.59 621.27 168.299 621.27 167.959C621.27 167.685 621.174 167.455 620.982 167.27C620.79 167.082 620.495 166.941 620.098 166.849L618.781 166.54C618.058 166.369 617.527 166.103 617.187 165.743C616.851 165.38 616.683 164.926 616.683 164.381C616.683 163.935 616.809 163.541 617.059 163.198C617.312 162.855 617.657 162.586 618.092 162.391C618.531 162.195 619.028 162.098 619.583 162.098C620.365 162.098 620.978 162.269 621.424 162.612C621.873 162.955 622.192 163.407 622.38 163.969ZM629.893 163.969L628.803 164.278C628.735 164.096 628.634 163.92 628.5 163.748C628.37 163.573 628.192 163.429 627.965 163.316C627.739 163.203 627.449 163.147 627.096 163.147C626.613 163.147 626.21 163.258 625.888 163.481C625.569 163.7 625.41 163.98 625.41 164.319C625.41 164.621 625.52 164.859 625.739 165.034C625.958 165.208 626.301 165.354 626.767 165.471L627.94 165.759C628.646 165.93 629.172 166.192 629.518 166.545C629.864 166.895 630.037 167.346 630.037 167.898C630.037 168.35 629.907 168.754 629.647 169.111C629.39 169.467 629.03 169.749 628.567 169.954C628.104 170.16 627.566 170.263 626.952 170.263C626.147 170.263 625.48 170.088 624.952 169.738C624.424 169.389 624.09 168.878 623.95 168.206L625.101 167.918C625.211 168.343 625.418 168.662 625.724 168.874C626.032 169.087 626.435 169.193 626.932 169.193C627.497 169.193 627.946 169.073 628.279 168.833C628.615 168.59 628.783 168.299 628.783 167.959C628.783 167.685 628.687 167.455 628.495 167.27C628.303 167.082 628.008 166.941 627.61 166.849L626.294 166.54C625.571 166.369 625.04 166.103 624.7 165.743C624.364 165.38 624.196 164.926 624.196 164.381C624.196 163.935 624.322 163.541 624.572 163.198C624.825 162.855 625.17 162.586 625.605 162.391C626.044 162.195 626.541 162.098 627.096 162.098C627.878 162.098 628.491 162.269 628.937 162.612C629.386 162.955 629.705 163.407 629.893 163.969Z" fill="#9EA0A5"/>
<path fill-rule="evenodd" clip-rule="evenodd" d="M545.969 168.574C548.234 168.574 550.071 166.723 550.071 164.438C550.071 162.154 548.234 160.302 545.969 160.302C543.703 160.302 541.866 162.154 541.866 164.438C541.866 166.723 543.703 168.574 545.969 168.574Z" fill="#F7D154"/>
<path d="M422.518 169.918C421.84 169.918 421.235 169.802 420.703 169.569C420.176 169.336 419.756 169.012 419.444 168.597C419.135 168.179 418.967 167.694 418.94 167.142H420.236C420.263 167.481 420.38 167.774 420.585 168.021C420.791 168.264 421.06 168.453 421.392 168.587C421.725 168.72 422.093 168.787 422.498 168.787C422.95 168.787 423.351 168.708 423.701 168.551C424.051 168.393 424.325 168.174 424.524 167.893C424.723 167.611 424.822 167.286 424.822 166.916C424.822 166.528 424.726 166.187 424.534 165.892C424.342 165.594 424.061 165.361 423.691 165.193C423.321 165.025 422.868 164.941 422.333 164.941H421.49V163.81H422.333C422.752 163.81 423.118 163.735 423.434 163.584C423.752 163.433 424.001 163.22 424.179 162.946C424.361 162.672 424.452 162.35 424.452 161.98C424.452 161.623 424.373 161.313 424.215 161.049C424.058 160.785 423.835 160.579 423.547 160.432C423.262 160.285 422.926 160.211 422.539 160.211C422.176 160.211 421.833 160.278 421.511 160.411C421.192 160.542 420.931 160.732 420.729 160.982C420.527 161.229 420.417 161.527 420.4 161.877H419.166C419.187 161.325 419.353 160.842 419.665 160.427C419.977 160.009 420.385 159.683 420.889 159.45C421.396 159.217 421.953 159.1 422.56 159.1C423.211 159.1 423.77 159.232 424.236 159.496C424.702 159.757 425.06 160.101 425.31 160.53C425.561 160.958 425.686 161.421 425.686 161.918C425.686 162.511 425.53 163.017 425.218 163.435C424.909 163.853 424.489 164.143 423.958 164.304V164.386C424.623 164.496 425.142 164.778 425.516 165.234C425.89 165.687 426.076 166.247 426.076 166.916C426.076 167.488 425.921 168.002 425.609 168.458C425.3 168.911 424.878 169.267 424.344 169.528C423.809 169.788 423.201 169.918 422.518 169.918ZM431.83 159.244V169.774H430.555V160.581H430.493L427.922 162.288V160.992L430.555 159.244H431.83ZM435.711 168.427C435.458 168.427 435.24 168.336 435.058 168.155C434.877 167.973 434.786 167.755 434.786 167.502C434.786 167.248 434.877 167.03 435.058 166.849C435.24 166.667 435.458 166.576 435.711 166.576C435.965 166.576 436.183 166.667 436.364 166.849C436.546 167.03 436.637 167.248 436.637 167.502C436.637 167.67 436.594 167.824 436.508 167.965C436.426 168.105 436.315 168.218 436.174 168.304C436.037 168.386 435.883 168.427 435.711 168.427ZM435.711 163.101C435.458 163.101 435.24 163.01 435.058 162.828C434.877 162.646 434.786 162.429 434.786 162.175C434.786 161.921 434.877 161.704 435.058 161.522C435.24 161.34 435.458 161.25 435.711 161.25C435.965 161.25 436.183 161.34 436.364 161.522C436.546 161.704 436.637 161.921 436.637 162.175C436.637 162.343 436.594 162.497 436.508 162.638C436.426 162.778 436.315 162.891 436.174 162.977C436.037 163.059 435.883 163.101 435.711 163.101ZM442.444 159.244V169.774H441.169V160.581H441.107L438.536 162.288V160.992L441.169 159.244H442.444ZM448.794 169.918C448.088 169.918 447.464 169.793 446.922 169.543C446.384 169.289 445.964 168.941 445.663 168.499C445.361 168.054 445.212 167.546 445.215 166.977C445.212 166.532 445.299 166.12 445.477 165.743C445.656 165.363 445.899 165.046 446.208 164.792C446.519 164.535 446.867 164.372 447.251 164.304V164.242C446.747 164.112 446.346 163.829 446.048 163.394C445.75 162.955 445.603 162.456 445.606 161.897C445.603 161.363 445.738 160.884 446.012 160.463C446.286 160.041 446.663 159.709 447.143 159.465C447.627 159.222 448.177 159.1 448.794 159.1C449.404 159.1 449.949 159.222 450.429 159.465C450.909 159.709 451.286 160.041 451.56 160.463C451.838 160.884 451.978 161.363 451.982 161.897C451.978 162.456 451.826 162.955 451.524 163.394C451.226 163.829 450.83 164.112 450.336 164.242V164.304C450.717 164.372 451.06 164.535 451.365 164.792C451.67 165.046 451.913 165.363 452.095 165.743C452.276 166.12 452.369 166.532 452.372 166.977C452.369 167.546 452.215 168.054 451.91 168.499C451.608 168.941 451.188 169.289 450.65 169.543C450.115 169.793 449.497 169.918 448.794 169.918ZM448.794 168.787C449.27 168.787 449.682 168.71 450.028 168.556C450.374 168.402 450.641 168.184 450.83 167.903C451.018 167.622 451.114 167.293 451.118 166.916C451.114 166.518 451.012 166.167 450.809 165.862C450.607 165.557 450.331 165.317 449.982 165.142C449.635 164.967 449.239 164.88 448.794 164.88C448.345 164.88 447.944 164.967 447.591 165.142C447.241 165.317 446.965 165.557 446.763 165.862C446.564 166.167 446.466 166.518 446.47 166.916C446.466 167.293 446.557 167.622 446.742 167.903C446.931 168.184 447.2 168.402 447.55 168.556C447.899 168.71 448.314 168.787 448.794 168.787ZM448.794 163.789C449.171 163.789 449.505 163.714 449.796 163.563C450.091 163.412 450.323 163.202 450.491 162.931C450.659 162.66 450.744 162.343 450.748 161.98C450.744 161.623 450.66 161.313 450.496 161.049C450.331 160.782 450.103 160.576 449.812 160.432C449.521 160.285 449.181 160.211 448.794 160.211C448.4 160.211 448.055 160.285 447.76 160.432C447.466 160.576 447.238 160.782 447.077 161.049C446.915 161.313 446.837 161.623 446.84 161.98C446.837 162.343 446.917 162.66 447.082 162.931C447.25 163.202 447.481 163.412 447.776 163.563C448.071 163.714 448.41 163.789 448.794 163.789Z" fill="#9EA0A5"/>
</g>
<g filter="url(#filter4_d_222_197)">
<rect width="583.191" height="49.7295" transform="translate(61.8088 205.764)" fill="white"/>
<path d="M561.949 236.77V226.24H568.263V227.371H563.224V230.929H567.79V232.06H563.224V236.77H561.949ZM572.555 236.955C572.054 236.955 571.6 236.861 571.192 236.672C570.784 236.48 570.461 236.204 570.221 235.845C569.981 235.481 569.861 235.042 569.861 234.528C569.861 234.076 569.95 233.709 570.128 233.428C570.306 233.143 570.545 232.921 570.843 232.76C571.141 232.598 571.47 232.478 571.83 232.4C572.193 232.317 572.558 232.252 572.925 232.204C573.405 232.143 573.794 232.096 574.092 232.065C574.394 232.031 574.613 231.975 574.75 231.896C574.891 231.817 574.961 231.68 574.961 231.484V231.443C574.961 230.936 574.822 230.542 574.545 230.261C574.271 229.98 573.854 229.839 573.295 229.839C572.716 229.839 572.262 229.966 571.933 230.22C571.604 230.473 571.372 230.744 571.239 231.032L570.087 230.621C570.293 230.141 570.567 229.767 570.91 229.5C571.256 229.229 571.633 229.04 572.041 228.934C572.452 228.824 572.857 228.77 573.254 228.77C573.508 228.77 573.799 228.8 574.128 228.862C574.461 228.92 574.781 229.042 575.09 229.227C575.402 229.412 575.66 229.692 575.866 230.065C576.072 230.439 576.175 230.939 576.175 231.567V236.77H574.961V235.701H574.9C574.817 235.872 574.68 236.055 574.488 236.251C574.296 236.446 574.041 236.612 573.722 236.749C573.403 236.887 573.014 236.955 572.555 236.955ZM572.74 235.865C573.22 235.865 573.624 235.771 573.953 235.582C574.286 235.394 574.536 235.15 574.704 234.852C574.876 234.554 574.961 234.24 574.961 233.911V232.801C574.91 232.862 574.797 232.919 574.622 232.97C574.45 233.018 574.252 233.061 574.025 233.099C573.803 233.133 573.585 233.164 573.372 233.191C573.163 233.215 572.994 233.236 572.863 233.253C572.548 233.294 572.253 233.361 571.979 233.454C571.708 233.543 571.489 233.678 571.321 233.86C571.156 234.038 571.074 234.281 571.074 234.59C571.074 235.012 571.23 235.33 571.542 235.546C571.857 235.759 572.257 235.865 572.74 235.865ZM578.338 236.77V228.872H579.551V236.77H578.338ZM578.955 227.556C578.718 227.556 578.514 227.476 578.343 227.314C578.175 227.153 578.091 226.96 578.091 226.733C578.091 226.507 578.175 226.314 578.343 226.152C578.514 225.991 578.718 225.911 578.955 225.911C579.191 225.911 579.393 225.991 579.561 226.152C579.733 226.314 579.819 226.507 579.819 226.733C579.819 226.96 579.733 227.153 579.561 227.314C579.393 227.476 579.191 227.556 578.955 227.556ZM582.935 226.24V236.77H581.722V226.24H582.935ZM588.417 236.935C587.656 236.935 587 236.767 586.448 236.431C585.9 236.091 585.476 235.618 585.178 235.012C584.883 234.401 584.736 233.692 584.736 232.883C584.736 232.074 584.883 231.361 585.178 230.744C585.476 230.124 585.891 229.64 586.422 229.294C586.957 228.944 587.581 228.77 588.294 228.77C588.705 228.77 589.112 228.838 589.513 228.975C589.914 229.112 590.279 229.335 590.608 229.644C590.937 229.949 591.199 230.353 591.394 230.857C591.59 231.361 591.688 231.981 591.688 232.718V233.233H585.6V232.184H590.454C590.454 231.738 590.364 231.34 590.186 230.991C590.011 230.641 589.761 230.365 589.435 230.163C589.113 229.961 588.733 229.86 588.294 229.86C587.811 229.86 587.393 229.98 587.039 230.22C586.69 230.456 586.421 230.765 586.232 231.145C586.044 231.526 585.949 231.933 585.949 232.369V233.068C585.949 233.664 586.052 234.17 586.258 234.585C586.467 234.996 586.757 235.31 587.127 235.526C587.497 235.738 587.927 235.845 588.417 235.845C588.736 235.845 589.024 235.8 589.281 235.711C589.542 235.618 589.766 235.481 589.955 235.299C590.143 235.114 590.289 234.885 590.392 234.611L591.564 234.94C591.441 235.337 591.233 235.687 590.942 235.988C590.651 236.287 590.291 236.52 589.862 236.688C589.434 236.852 588.952 236.935 588.417 236.935ZM596.464 236.935C595.806 236.935 595.225 236.768 594.721 236.436C594.217 236.1 593.823 235.627 593.538 235.017C593.254 234.403 593.111 233.678 593.111 232.842C593.111 232.012 593.254 231.292 593.538 230.682C593.823 230.072 594.219 229.601 594.726 229.268C595.233 228.936 595.819 228.77 596.484 228.77C596.999 228.77 597.405 228.855 597.703 229.027C598.005 229.195 598.234 229.387 598.392 229.603C598.553 229.815 598.678 229.99 598.767 230.127H598.87V226.24H600.084V236.77H598.911V235.557H598.767C598.678 235.701 598.551 235.882 598.387 236.102C598.222 236.318 597.988 236.511 597.682 236.683C597.377 236.851 596.971 236.935 596.464 236.935ZM596.628 235.845C597.115 235.845 597.526 235.718 597.862 235.464C598.198 235.207 598.454 234.852 598.628 234.4C598.803 233.944 598.891 233.418 598.891 232.821C598.891 232.232 598.805 231.716 598.634 231.274C598.462 230.828 598.209 230.482 597.873 230.235C597.537 229.985 597.122 229.86 596.628 229.86C596.114 229.86 595.686 229.992 595.343 230.256C595.004 230.516 594.748 230.871 594.577 231.32C594.409 231.765 594.325 232.266 594.325 232.821C594.325 233.383 594.411 233.894 594.582 234.353C594.757 234.809 595.014 235.173 595.353 235.443C595.696 235.711 596.121 235.845 596.628 235.845Z" fill="#9EA0A5"/>
<path fill-rule="evenodd" clip-rule="evenodd" d="M548.229 235.246C550.495 235.246 552.332 233.395 552.332 231.11C552.332 228.826 550.495 226.974 548.229 226.974C545.963 226.974 544.127 228.826 544.127 231.11C544.127 233.395 545.963 235.246 548.229 235.246Z" fill="#EC4C47"/>
<path d="M73.2558 236.457V225.926H76.8139C77.6366 225.926 78.3118 226.067 78.8397 226.348C79.3676 226.626 79.7584 227.008 80.012 227.495C80.2657 227.981 80.3925 228.535 80.3925 229.155C80.3925 229.776 80.2657 230.326 80.012 230.806C79.7584 231.286 79.3693 231.663 78.8449 231.937C78.3204 232.208 77.6503 232.343 76.8345 232.343H73.9551V231.191H76.7933C77.3555 231.191 77.808 231.109 78.1507 230.945C78.4969 230.78 78.7472 230.547 78.9014 230.245C79.0591 229.94 79.1379 229.577 79.1379 229.155C79.1379 228.734 79.0591 228.365 78.9014 228.05C78.7437 227.735 78.4918 227.491 78.1456 227.32C77.7994 227.145 77.3418 227.058 76.7728 227.058H74.531V236.457H73.2558ZM78.2124 231.726L80.8038 236.457H79.323L76.7728 231.726H78.2124ZM85.5275 236.621C84.7665 236.621 84.1101 236.453 83.5582 236.117C83.0098 235.778 82.5864 235.305 82.2882 234.698C81.9934 234.088 81.846 233.378 81.846 232.569C81.846 231.76 81.9934 231.047 82.2882 230.43C82.5864 229.81 83.0012 229.327 83.5325 228.981C84.0672 228.631 84.6911 228.456 85.4041 228.456C85.8154 228.456 86.2216 228.525 86.6226 228.662C87.0237 228.799 87.3888 229.022 87.7178 229.33C88.0469 229.635 88.3091 230.04 88.5045 230.544C88.6999 231.047 88.7976 231.668 88.7976 232.405V232.919H82.7098V231.87H87.5636C87.5636 231.425 87.4744 231.027 87.2962 230.677C87.1214 230.328 86.8712 230.052 86.5455 229.849C86.2233 229.647 85.8428 229.546 85.4041 229.546C84.9207 229.546 84.5026 229.666 84.1495 229.906C83.7999 230.143 83.5308 230.451 83.3422 230.832C83.1537 231.212 83.0595 231.62 83.0595 232.055V232.755C83.0595 233.351 83.1623 233.857 83.368 234.271C83.5771 234.683 83.8667 234.996 84.2369 235.212C84.6071 235.425 85.0373 235.531 85.5275 235.531C85.8462 235.531 86.1342 235.486 86.3913 235.397C86.6518 235.305 86.8763 235.168 87.0648 234.986C87.2534 234.801 87.399 234.571 87.5019 234.297L88.6742 234.626C88.5508 235.024 88.3434 235.373 88.052 235.675C87.7607 235.973 87.4007 236.206 86.9723 236.374C86.5438 236.539 86.0622 236.621 85.5275 236.621ZM91.8052 225.926V236.457H90.5917V225.926H91.8052ZM97.1844 236.621C96.4714 236.621 95.8458 236.451 95.3076 236.112C94.7729 235.773 94.3547 235.298 94.0531 234.688C93.7549 234.078 93.6057 233.365 93.6057 232.549C93.6057 231.726 93.7549 231.008 94.0531 230.395C94.3547 229.781 94.7729 229.304 95.3076 228.965C95.8458 228.626 96.4714 228.456 97.1844 228.456C97.8973 228.456 98.5212 228.626 99.0559 228.965C99.5941 229.304 100.012 229.781 100.31 230.395C100.612 231.008 100.763 231.726 100.763 232.549C100.763 233.365 100.612 234.078 100.31 234.688C100.012 235.298 99.5941 235.773 99.0559 236.112C98.5212 236.451 97.8973 236.621 97.1844 236.621ZM97.1844 235.531C97.7259 235.531 98.1716 235.392 98.5212 235.115C98.8708 234.837 99.1296 234.472 99.2976 234.019C99.4655 233.567 99.5495 233.077 99.5495 232.549C99.5495 232.021 99.4655 231.529 99.2976 231.073C99.1296 230.617 98.8708 230.249 98.5212 229.968C98.1716 229.687 97.7259 229.546 97.1844 229.546C96.6428 229.546 96.1972 229.687 95.8475 229.968C95.4979 230.249 95.2391 230.617 95.0711 231.073C94.9032 231.529 94.8192 232.021 94.8192 232.549C94.8192 233.077 94.9032 233.567 95.0711 234.019C95.2391 234.472 95.4979 234.837 95.8475 235.115C96.1972 235.392 96.6428 235.531 97.1844 235.531ZM104.888 236.642C104.387 236.642 103.933 236.547 103.525 236.359C103.117 236.167 102.793 235.891 102.553 235.531C102.313 235.168 102.193 234.729 102.193 234.215C102.193 233.762 102.282 233.396 102.461 233.114C102.639 232.83 102.877 232.607 103.175 232.446C103.474 232.285 103.803 232.165 104.163 232.086C104.526 232.004 104.891 231.939 105.258 231.891C105.738 231.829 106.127 231.783 106.425 231.752C106.727 231.718 106.946 231.661 107.083 231.582C107.224 231.503 107.294 231.366 107.294 231.171V231.13C107.294 230.622 107.155 230.228 106.877 229.947C106.603 229.666 106.187 229.526 105.628 229.526C105.049 229.526 104.595 229.652 104.265 229.906C103.936 230.16 103.705 230.43 103.571 230.718L102.42 230.307C102.625 229.827 102.899 229.454 103.242 229.186C103.588 228.915 103.966 228.727 104.373 228.621C104.785 228.511 105.189 228.456 105.587 228.456C105.841 228.456 106.132 228.487 106.461 228.549C106.793 228.607 107.114 228.729 107.422 228.914C107.734 229.099 107.993 229.378 108.199 229.752C108.404 230.125 108.507 230.626 108.507 231.253V236.457H107.294V235.387H107.232C107.15 235.558 107.013 235.742 106.821 235.937C106.629 236.133 106.374 236.299 106.055 236.436C105.736 236.573 105.347 236.642 104.888 236.642ZM105.073 235.552C105.553 235.552 105.957 235.457 106.286 235.269C106.619 235.08 106.869 234.837 107.037 234.539C107.208 234.24 107.294 233.927 107.294 233.598V232.487C107.242 232.549 107.129 232.605 106.955 232.657C106.783 232.705 106.584 232.748 106.358 232.785C106.135 232.82 105.918 232.851 105.705 232.878C105.496 232.902 105.326 232.922 105.196 232.94C104.881 232.981 104.586 233.048 104.312 233.14C104.041 233.229 103.822 233.365 103.654 233.546C103.489 233.725 103.407 233.968 103.407 234.276C103.407 234.698 103.563 235.017 103.875 235.233C104.19 235.445 104.589 235.552 105.073 235.552ZM113.653 236.621C112.994 236.621 112.413 236.455 111.91 236.122C111.406 235.786 111.011 235.313 110.727 234.703C110.442 234.09 110.3 233.365 110.3 232.528C110.3 231.699 110.442 230.979 110.727 230.369C111.011 229.759 111.407 229.287 111.915 228.955C112.422 228.622 113.008 228.456 113.673 228.456C114.187 228.456 114.594 228.542 114.892 228.713C115.193 228.881 115.423 229.073 115.581 229.289C115.742 229.502 115.867 229.676 115.956 229.813H116.059V225.926H117.272V236.457H116.1V235.243H115.956C115.867 235.387 115.74 235.569 115.576 235.788C115.411 236.004 115.176 236.198 114.871 236.369C114.566 236.537 114.16 236.621 113.653 236.621ZM113.817 235.531C114.304 235.531 114.715 235.404 115.051 235.151C115.387 234.893 115.642 234.539 115.817 234.086C115.992 233.63 116.079 233.104 116.079 232.508C116.079 231.918 115.994 231.402 115.822 230.96C115.651 230.514 115.397 230.168 115.061 229.921C114.725 229.671 114.311 229.546 113.817 229.546C113.303 229.546 112.874 229.678 112.532 229.942C112.192 230.203 111.937 230.557 111.766 231.006C111.598 231.452 111.514 231.952 111.514 232.508C111.514 233.07 111.599 233.581 111.771 234.04C111.946 234.496 112.203 234.859 112.542 235.13C112.885 235.397 113.31 235.531 113.817 235.531ZM122.923 236.621C122.162 236.621 121.505 236.453 120.953 236.117C120.405 235.778 119.982 235.305 119.683 234.698C119.389 234.088 119.241 233.378 119.241 232.569C119.241 231.76 119.389 231.047 119.683 230.43C119.982 229.81 120.396 229.327 120.928 228.981C121.462 228.631 122.086 228.456 122.799 228.456C123.211 228.456 123.617 228.525 124.018 228.662C124.419 228.799 124.784 229.022 125.113 229.33C125.442 229.635 125.704 230.04 125.9 230.544C126.095 231.047 126.193 231.668 126.193 232.405V232.919H120.105V231.87H124.959C124.959 231.425 124.87 231.027 124.691 230.677C124.517 230.328 124.266 230.052 123.941 229.849C123.619 229.647 123.238 229.546 122.799 229.546C122.316 229.546 121.898 229.666 121.545 229.906C121.195 230.143 120.926 230.451 120.738 230.832C120.549 231.212 120.455 231.62 120.455 232.055V232.755C120.455 233.351 120.558 233.857 120.763 234.271C120.972 234.683 121.262 234.996 121.632 235.212C122.002 235.425 122.433 235.531 122.923 235.531C123.242 235.531 123.529 235.486 123.787 235.397C124.047 235.305 124.272 235.168 124.46 234.986C124.649 234.801 124.794 234.571 124.897 234.297L126.069 234.626C125.946 235.024 125.739 235.373 125.447 235.675C125.156 235.973 124.796 236.206 124.368 236.374C123.939 236.539 123.457 236.621 122.923 236.621ZM130.969 236.621C130.311 236.621 129.73 236.455 129.226 236.122C128.722 235.786 128.328 235.313 128.044 234.703C127.759 234.09 127.617 233.365 127.617 232.528C127.617 231.699 127.759 230.979 128.044 230.369C128.328 229.759 128.724 229.287 129.231 228.955C129.739 228.622 130.325 228.456 130.99 228.456C131.504 228.456 131.91 228.542 132.208 228.713C132.51 228.881 132.74 229.073 132.897 229.289C133.058 229.502 133.184 229.676 133.273 229.813H133.375V225.926H134.589V236.457H133.417V235.243H133.273C133.184 235.387 133.057 235.569 132.892 235.788C132.728 236.004 132.493 236.198 132.188 236.369C131.883 236.537 131.476 236.621 130.969 236.621ZM131.134 235.531C131.62 235.531 132.032 235.404 132.368 235.151C132.704 234.893 132.959 234.539 133.134 234.086C133.309 233.63 133.396 233.104 133.396 232.508C133.396 231.918 133.31 231.402 133.139 230.96C132.968 230.514 132.714 230.168 132.378 229.921C132.042 229.671 131.627 229.546 131.134 229.546C130.62 229.546 130.191 229.678 129.848 229.942C129.509 230.203 129.254 230.557 129.082 231.006C128.914 231.452 128.83 231.952 128.83 232.508C128.83 233.07 128.916 233.581 129.087 234.04C129.262 234.496 129.519 234.859 129.859 235.13C130.201 235.397 130.626 235.531 131.134 235.531ZM144.136 239.583C143.55 239.583 143.046 239.507 142.625 239.356C142.203 239.209 141.852 239.014 141.571 238.77C141.293 238.53 141.072 238.273 140.907 237.999L141.874 237.32C141.984 237.464 142.123 237.629 142.291 237.814C142.459 238.002 142.688 238.165 142.98 238.302C143.274 238.443 143.66 238.513 144.136 238.513C144.774 238.513 145.3 238.359 145.715 238.05C146.13 237.742 146.337 237.259 146.337 236.601V234.996H146.234C146.145 235.14 146.018 235.319 145.854 235.531C145.693 235.74 145.46 235.927 145.154 236.091C144.853 236.253 144.445 236.333 143.931 236.333C143.293 236.333 142.721 236.182 142.213 235.881C141.71 235.579 141.31 235.14 141.015 234.564C140.724 233.989 140.578 233.289 140.578 232.467C140.578 231.658 140.721 230.953 141.005 230.353C141.29 229.75 141.686 229.284 142.193 228.955C142.7 228.622 143.286 228.456 143.951 228.456C144.465 228.456 144.873 228.542 145.175 228.713C145.48 228.881 145.713 229.073 145.874 229.289C146.039 229.502 146.166 229.676 146.255 229.813H146.378V228.559H147.551V236.683C147.551 237.361 147.396 237.913 147.088 238.338C146.783 238.767 146.371 239.081 145.854 239.279C145.34 239.482 144.767 239.583 144.136 239.583ZM144.095 235.243C144.582 235.243 144.993 235.132 145.329 234.909C145.665 234.686 145.921 234.366 146.095 233.947C146.27 233.529 146.358 233.029 146.358 232.446C146.358 231.877 146.272 231.375 146.101 230.94C145.929 230.504 145.676 230.163 145.34 229.916C145.004 229.67 144.589 229.546 144.095 229.546C143.581 229.546 143.153 229.676 142.81 229.937C142.471 230.197 142.215 230.547 142.044 230.986C141.876 231.425 141.792 231.911 141.792 232.446C141.792 232.994 141.878 233.48 142.049 233.901C142.224 234.319 142.481 234.648 142.82 234.888C143.163 235.125 143.588 235.243 144.095 235.243ZM154.697 233.228V228.559H155.911V236.457H154.697V235.12H154.615C154.43 235.521 154.142 235.862 153.751 236.143C153.36 236.421 152.867 236.559 152.27 236.559C151.777 236.559 151.338 236.451 150.954 236.235C150.57 236.016 150.268 235.687 150.049 235.248C149.83 234.806 149.72 234.249 149.72 233.577V228.559H150.933V233.495C150.933 234.071 151.095 234.53 151.417 234.873C151.742 235.216 152.157 235.387 152.661 235.387C152.963 235.387 153.269 235.31 153.581 235.156C153.897 235.001 154.161 234.765 154.373 234.446C154.589 234.127 154.697 233.721 154.697 233.228ZM158.863 239.418C158.657 239.418 158.474 239.401 158.313 239.367C158.152 239.336 158.04 239.305 157.979 239.274L158.287 238.205C158.582 238.28 158.842 238.308 159.069 238.287C159.295 238.266 159.495 238.165 159.67 237.984C159.848 237.805 160.011 237.516 160.159 237.115L160.385 236.498L157.464 228.559H158.781L160.961 234.852H161.043L163.223 228.559H164.539L161.187 237.608C161.036 238.016 160.849 238.354 160.626 238.621C160.404 238.892 160.145 239.093 159.85 239.223C159.559 239.353 159.23 239.418 158.863 239.418ZM166.479 236.539C166.225 236.539 166.007 236.448 165.826 236.266C165.644 236.085 165.553 235.867 165.553 235.613C165.553 235.36 165.644 235.142 165.826 234.96C166.007 234.779 166.225 234.688 166.479 234.688C166.732 234.688 166.95 234.779 167.132 234.96C167.313 235.142 167.404 235.36 167.404 235.613C167.404 235.781 167.361 235.936 167.276 236.076C167.193 236.217 167.082 236.33 166.941 236.415C166.804 236.498 166.65 236.539 166.479 236.539ZM169.53 236.457V228.559H170.702V229.793H170.805C170.97 229.371 171.235 229.044 171.602 228.811C171.969 228.574 172.409 228.456 172.924 228.456C173.445 228.456 173.878 228.574 174.224 228.811C174.574 229.044 174.847 229.371 175.042 229.793H175.124C175.326 229.385 175.63 229.061 176.034 228.821C176.439 228.578 176.924 228.456 177.489 228.456C178.195 228.456 178.773 228.677 179.222 229.119C179.671 229.558 179.896 230.242 179.896 231.171V236.457H178.682V231.171C178.682 230.588 178.523 230.172 178.204 229.921C177.885 229.671 177.51 229.546 177.078 229.546C176.523 229.546 176.093 229.714 175.787 230.05C175.482 230.383 175.33 230.804 175.33 231.315V236.457H174.096V231.047C174.096 230.598 173.95 230.237 173.659 229.963C173.367 229.685 172.992 229.546 172.533 229.546C172.217 229.546 171.923 229.63 171.648 229.798C171.378 229.966 171.158 230.199 170.99 230.497C170.826 230.792 170.743 231.133 170.743 231.521V236.457H169.53ZM182.063 239.418V228.559H183.235V229.813H183.379C183.468 229.676 183.591 229.502 183.749 229.289C183.91 229.073 184.14 228.881 184.438 228.713C184.74 228.542 185.148 228.456 185.662 228.456C186.327 228.456 186.913 228.622 187.42 228.955C187.928 229.287 188.323 229.759 188.608 230.369C188.892 230.979 189.035 231.699 189.035 232.528C189.035 233.365 188.892 234.09 188.608 234.703C188.323 235.313 187.929 235.786 187.425 236.122C186.921 236.455 186.34 236.621 185.682 236.621C185.175 236.621 184.769 236.537 184.464 236.369C184.159 236.198 183.924 236.004 183.759 235.788C183.595 235.569 183.468 235.387 183.379 235.243H183.276V239.418H182.063ZM183.255 232.508C183.255 233.104 183.343 233.63 183.518 234.086C183.692 234.539 183.948 234.893 184.284 235.151C184.62 235.404 185.031 235.531 185.518 235.531C186.025 235.531 186.448 235.397 186.788 235.13C187.131 234.859 187.388 234.496 187.559 234.04C187.734 233.581 187.821 233.07 187.821 232.508C187.821 231.952 187.736 231.452 187.564 231.006C187.396 230.557 187.141 230.203 186.798 229.942C186.459 229.678 186.032 229.546 185.518 229.546C185.024 229.546 184.609 229.671 184.273 229.921C183.938 230.168 183.684 230.514 183.513 230.96C183.341 231.402 183.255 231.918 183.255 232.508ZM190.567 234.297V233.248L195.194 225.926H195.955V227.551H195.441L191.945 233.084V233.166H198.176V234.297H190.567ZM195.523 236.457V233.978V233.49V225.926H196.737V236.457H195.523Z" fill="#3A3B3F"/>
<path d="M306.291 236.601C305.551 236.601 304.893 236.474 304.317 236.22C303.744 235.966 303.292 235.613 302.959 235.161C302.627 234.708 302.45 234.186 302.43 233.593H304.363C304.38 233.877 304.474 234.126 304.646 234.338C304.817 234.547 305.045 234.71 305.33 234.827C305.614 234.943 305.933 235.001 306.286 235.001C306.663 235.001 306.997 234.936 307.289 234.806C307.58 234.672 307.808 234.487 307.972 234.251C308.137 234.014 308.218 233.742 308.214 233.433C308.218 233.114 308.135 232.833 307.967 232.59C307.799 232.347 307.556 232.156 307.237 232.019C306.922 231.882 306.541 231.814 306.096 231.814H305.165V230.343H306.096C306.462 230.343 306.783 230.28 307.057 230.153C307.335 230.026 307.553 229.848 307.71 229.618C307.868 229.385 307.945 229.116 307.942 228.811C307.945 228.513 307.878 228.254 307.741 228.034C307.607 227.812 307.417 227.639 307.17 227.515C306.927 227.392 306.641 227.33 306.312 227.33C305.989 227.33 305.691 227.388 305.417 227.505C305.143 227.621 304.922 227.788 304.754 228.004C304.586 228.216 304.497 228.47 304.486 228.765H302.651C302.664 228.175 302.834 227.657 303.16 227.212C303.489 226.763 303.928 226.413 304.476 226.163C305.025 225.909 305.64 225.782 306.322 225.782C307.025 225.782 307.635 225.914 308.152 226.178C308.673 226.439 309.076 226.79 309.361 227.232C309.645 227.675 309.787 228.163 309.787 228.698C309.791 229.291 309.616 229.788 309.263 230.189C308.913 230.59 308.454 230.852 307.885 230.976V231.058C308.625 231.161 309.193 231.435 309.587 231.88C309.985 232.323 310.182 232.873 310.178 233.531C310.178 234.121 310.01 234.648 309.674 235.115C309.342 235.577 308.883 235.941 308.296 236.205C307.714 236.469 307.045 236.601 306.291 236.601ZM315.534 225.926H317.868L320.994 233.557H321.118L324.244 225.926H326.578V236.457H324.748V229.222H324.65L321.74 236.426H320.372L317.462 229.207H317.364V236.457H315.534V225.926ZM328.604 236.457V225.926H330.465V229.865H330.542C330.638 229.673 330.774 229.469 330.948 229.253C331.123 229.034 331.36 228.847 331.658 228.693C331.956 228.535 332.337 228.456 332.799 228.456C333.41 228.456 333.96 228.612 334.45 228.924C334.944 229.232 335.334 229.69 335.622 230.297C335.914 230.9 336.059 231.641 336.059 232.518C336.059 233.385 335.917 234.122 335.633 234.729C335.348 235.336 334.961 235.798 334.47 236.117C333.98 236.436 333.425 236.595 332.805 236.595C332.352 236.595 331.977 236.52 331.679 236.369C331.38 236.218 331.14 236.037 330.959 235.824C330.78 235.608 330.642 235.404 330.542 235.212H330.434V236.457H328.604ZM330.429 232.508C330.429 233.018 330.501 233.466 330.645 233.85C330.792 234.234 331.003 234.534 331.277 234.75C331.555 234.962 331.891 235.068 332.285 235.068C332.697 235.068 333.041 234.959 333.319 234.739C333.596 234.516 333.805 234.213 333.946 233.829C334.09 233.442 334.162 233.001 334.162 232.508C334.162 232.018 334.092 231.582 333.951 231.202C333.811 230.821 333.602 230.523 333.324 230.307C333.046 230.091 332.7 229.983 332.285 229.983C331.888 229.983 331.55 230.088 331.272 230.297C330.995 230.506 330.784 230.799 330.64 231.176C330.499 231.553 330.429 231.997 330.429 232.508Z" fill="#3A3B3F"/>
<path d="M424.923 225.926V236.457H423.648V227.263H423.586L421.015 228.97V227.675L423.648 225.926H424.923ZM431.457 236.601C430.779 236.601 430.174 236.484 429.642 236.251C429.115 236.018 428.695 235.694 428.383 235.279C428.074 234.861 427.906 234.376 427.879 233.824H429.175C429.202 234.163 429.319 234.456 429.524 234.703C429.73 234.947 429.999 235.135 430.331 235.269C430.664 235.402 431.032 235.469 431.437 235.469C431.889 235.469 432.29 235.391 432.64 235.233C432.99 235.075 433.264 234.856 433.463 234.575C433.662 234.294 433.761 233.968 433.761 233.598C433.761 233.21 433.665 232.869 433.473 232.575C433.281 232.276 433 232.043 432.63 231.875C432.26 231.707 431.807 231.623 431.272 231.623H430.429V230.492H431.272C431.691 230.492 432.057 230.417 432.373 230.266C432.691 230.115 432.94 229.903 433.118 229.628C433.3 229.354 433.391 229.032 433.391 228.662C433.391 228.305 433.312 227.995 433.154 227.731C432.997 227.467 432.774 227.262 432.486 227.114C432.201 226.967 431.865 226.893 431.478 226.893C431.115 226.893 430.772 226.96 430.45 227.094C430.131 227.224 429.87 227.414 429.668 227.664C429.466 227.911 429.356 228.209 429.339 228.559H428.105C428.126 228.007 428.292 227.524 428.604 227.109C428.916 226.691 429.324 226.365 429.828 226.132C430.335 225.899 430.892 225.782 431.499 225.782C432.15 225.782 432.709 225.914 433.175 226.178C433.641 226.439 433.999 226.783 434.249 227.212C434.5 227.64 434.625 228.103 434.625 228.6C434.625 229.193 434.469 229.699 434.157 230.117C433.848 230.535 433.428 230.825 432.897 230.986V231.068C433.562 231.178 434.081 231.461 434.455 231.916C434.829 232.369 435.015 232.929 435.015 233.598C435.015 234.17 434.86 234.684 434.548 235.14C434.239 235.593 433.817 235.949 433.283 236.21C432.748 236.47 432.14 236.601 431.457 236.601ZM437.972 235.109C437.718 235.109 437.5 235.019 437.319 234.837C437.137 234.655 437.046 234.438 437.046 234.184C437.046 233.93 437.137 233.713 437.319 233.531C437.5 233.349 437.718 233.258 437.972 233.258C438.225 233.258 438.443 233.349 438.625 233.531C438.806 233.713 438.897 233.93 438.897 234.184C438.897 234.352 438.854 234.506 438.769 234.647C438.686 234.787 438.575 234.9 438.434 234.986C438.297 235.068 438.143 235.109 437.972 235.109ZM437.972 229.783C437.718 229.783 437.5 229.692 437.319 229.51C437.137 229.328 437.046 229.111 437.046 228.857C437.046 228.603 437.137 228.386 437.319 228.204C437.5 228.022 437.718 227.932 437.972 227.932C438.225 227.932 438.443 228.022 438.625 228.204C438.806 228.386 438.897 228.603 438.897 228.857C438.897 229.025 438.854 229.179 438.769 229.32C438.686 229.46 438.575 229.574 438.434 229.659C438.297 229.742 438.143 229.783 437.972 229.783ZM444.437 236.601C443.662 236.601 443.003 236.39 442.457 235.968C441.912 235.543 441.496 234.928 441.208 234.122C440.92 233.313 440.776 232.336 440.776 231.191C440.776 230.053 440.92 229.082 441.208 228.276C441.499 227.467 441.918 226.85 442.463 226.425C443.011 225.997 443.669 225.782 444.437 225.782C445.205 225.782 445.861 225.997 446.406 226.425C446.955 226.85 447.373 227.467 447.661 228.276C447.952 229.082 448.098 230.053 448.098 231.191C448.098 232.336 447.954 233.313 447.666 234.122C447.378 234.928 446.962 235.543 446.417 235.968C445.872 236.39 445.212 236.601 444.437 236.601ZM444.437 235.469C445.205 235.469 445.801 235.099 446.226 234.359C446.651 233.618 446.864 232.563 446.864 231.191C446.864 230.28 446.766 229.503 446.571 228.862C446.379 228.221 446.101 227.733 445.738 227.397C445.378 227.061 444.944 226.893 444.437 226.893C443.676 226.893 443.081 227.268 442.653 228.019C442.224 228.766 442.01 229.824 442.01 231.191C442.01 232.103 442.106 232.878 442.298 233.516C442.49 234.153 442.766 234.638 443.126 234.971C443.489 235.303 443.926 235.469 444.437 235.469ZM453.496 236.601C453.064 236.594 452.633 236.511 452.201 236.354C451.769 236.196 451.375 235.93 451.018 235.557C450.662 235.18 450.375 234.671 450.159 234.03C449.943 233.385 449.836 232.576 449.836 231.603C449.836 230.67 449.923 229.844 450.098 229.125C450.273 228.401 450.526 227.793 450.859 227.299C451.191 226.802 451.592 226.425 452.062 226.168C452.535 225.911 453.068 225.782 453.661 225.782C454.25 225.782 454.775 225.901 455.234 226.137C455.697 226.37 456.074 226.696 456.365 227.114C456.657 227.532 456.845 228.014 456.931 228.559H455.676C455.56 228.086 455.334 227.693 454.998 227.381C454.662 227.07 454.216 226.914 453.661 226.914C452.845 226.914 452.202 227.268 451.733 227.978C451.267 228.687 451.032 229.683 451.028 230.965H451.111C451.303 230.674 451.531 230.425 451.794 230.22C452.062 230.011 452.357 229.849 452.679 229.736C453.001 229.623 453.342 229.567 453.702 229.567C454.305 229.567 454.857 229.718 455.358 230.019C455.858 230.317 456.259 230.73 456.561 231.258C456.862 231.783 457.013 232.384 457.013 233.063C457.013 233.714 456.868 234.311 456.576 234.852C456.285 235.391 455.875 235.819 455.347 236.138C454.823 236.453 454.206 236.607 453.496 236.601ZM453.496 235.469C453.928 235.469 454.316 235.361 454.658 235.145C455.005 234.929 455.277 234.64 455.476 234.276C455.678 233.913 455.779 233.509 455.779 233.063C455.779 232.628 455.682 232.232 455.486 231.875C455.294 231.515 455.029 231.229 454.689 231.017C454.353 230.804 453.969 230.698 453.538 230.698C453.212 230.698 452.909 230.763 452.627 230.893C452.346 231.02 452.1 231.195 451.887 231.418C451.678 231.641 451.513 231.896 451.393 232.184C451.273 232.468 451.213 232.768 451.213 233.084C451.213 233.502 451.311 233.893 451.507 234.256C451.705 234.619 451.976 234.912 452.319 235.135C452.665 235.358 453.058 235.469 453.496 235.469Z" fill="#9EA0A5"/>
</g>
<g filter="url(#filter5_d_222_197)">
<g filter="url(#filter6_d_222_197)">
<rect x="481.255" y="110.893" width="34.6944" height="34.6944" rx="3.09087" fill="white"/>
<rect x="481.306" y="110.944" width="34.5923" height="34.5923" rx="3.03985" stroke="#D8D8D8" strokeWidth="0.102042"/>
</g>
<path d="M503.633 133.92C503.991 133.92 504.282 133.63 504.282 133.271V122.811C504.282 122.452 503.991 122.162 503.633 122.162H493.172C492.814 122.162 492.523 122.452 492.523 122.811V133.271C492.523 133.63 492.814 133.92 493.172 133.92H503.633Z" fill="#395185"/>
<path d="M500.637 133.92V129.367H502.165L502.394 127.592H500.637V126.459C500.637 125.945 500.779 125.595 501.516 125.595L502.456 125.595V124.008C502.293 123.986 501.736 123.938 501.087 123.938C499.732 123.938 498.804 124.765 498.804 126.284V127.592H497.272V129.367H498.804V133.92H500.637Z" fill="white"/>
</g>
<g filter="url(#filter7_d_222_197)">
<g filter="url(#filter8_d_222_197)">
<rect x="54" y="110.893" width="34.6944" height="34.6944" rx="3.09087" fill="white"/>
<rect x="54.051" y="110.944" width="34.5923" height="34.5923" rx="3.03985" stroke="#D8D8D8" strokeWidth="0.102042"/>
</g>
<path d="M66.1043 121.672L65.269 123.885V132.735H68.3304V134.396H70.0017L71.6714 132.735H74.1766L77.5176 129.417V121.672H66.1043ZM67.2172 122.778H76.4043V128.863L74.4551 130.8H71.3933L69.7241 132.458V130.8H67.2172V122.778ZM70.2797 128.311H71.3933V124.992H70.2797V128.311ZM73.3417 128.311H74.4551V124.992H73.3417V128.311Z" fill="#5A3E85"/>
</g>
<g filter="url(#filter9_d_222_197)">
<g filter="url(#filter10_d_222_197)">
<rect x="357.429" y="230.257" width="34.6944" height="34.6944" rx="3.09087" fill="white"/>
<rect x="357.48" y="230.308" width="34.5923" height="34.5923" rx="3.03985" stroke="#D8D8D8" strokeWidth="0.102042"/>
</g>
<path d="M379.807 253.284C380.166 253.284 380.456 252.994 380.456 252.635V242.174C380.456 241.816 380.166 241.525 379.807 241.525H369.347C368.988 241.525 368.698 241.816 368.698 242.174V252.635C368.698 252.994 368.988 253.284 369.347 253.284H379.807Z" fill="#395185"/>
<path d="M376.811 253.284V248.731H378.339L378.568 246.956H376.811V245.823C376.811 245.309 376.954 244.959 377.691 244.959L378.63 244.959V243.371C378.468 243.35 377.91 243.302 377.261 243.302C375.906 243.302 374.978 244.129 374.978 245.647V246.956H373.446V248.731H374.978V253.284H376.811Z" fill="white"/>
<path d="M372.859 249.574L377.362 247.235L372.859 244.877V249.574Z" fill="white"/>
<path opacity="0.12" d="M372.859 244.877L376.809 247.522L377.362 247.235L372.859 244.877Z" fill="#420000"/>
<path d="M382.731 244.06C382.731 244.06 382.568 242.91 382.067 242.401C381.436 241.734 380.727 241.734 380.395 241.695C378.073 241.525 374.58 241.525 374.58 241.525H374.574C374.574 241.525 371.081 241.525 368.746 241.695C368.421 241.734 367.712 241.734 367.074 242.401C366.58 242.91 366.417 244.06 366.417 244.06C366.417 244.06 366.248 245.419 366.248 246.771V248.038C366.248 249.391 366.417 250.743 366.417 250.743C366.417 250.743 366.58 251.893 367.081 252.402C367.712 253.068 368.544 253.049 368.915 253.114C370.248 253.245 374.574 253.284 374.574 253.284C374.574 253.284 378.073 253.278 380.402 253.108C380.727 253.068 381.436 253.068 382.074 252.402C382.574 251.893 382.737 250.743 382.737 250.743C382.737 250.743 382.906 249.391 382.906 248.038V246.771C382.9 245.419 382.731 244.06 382.731 244.06ZM372.857 249.574V244.877L377.358 247.235L372.857 249.574H372.857Z" fill="url(#paint0_linear_222_197)"/>
</g>
<defs>
<filter id="filter0_d_222_197" x="8.26254" y="18.8524" width="694.746" height="161.284" filterUnits="userSpaceOnUse" color-interpolation-filters="sRGB">
<feFlood flood-opacity="0" result="BackgroundImageFix"/>
<feColorMatrix in="SourceAlpha" type="matrix" values="0 0 0 0 0 0 0 0 0 0 0 0 0 0 0 0 0 0 127 0" result="hardAlpha"/>
<feOffset dx="2.2311" dy="2.2311"/>
<feGaussianBlur stdDeviation="27.8887"/>
<feComposite in2="hardAlpha" operator="out"/>
<feColorMatrix type="matrix" values="0 0 0 0 0 0 0 0 0 0 0 0 0 0 0 0 0 0 0.15 0"/>
<feBlend mode="normal" in2="BackgroundImageFix" result="effect1_dropShadow_222_197"/>
<feBlend mode="normal" in="SourceGraphic" in2="effect1_dropShadow_222_197" result="shape"/>
</filter>
<filter id="filter1_d_222_197" x="182.288" y="0.453702" width="146.249" height="146.249" filterUnits="userSpaceOnUse" color-interpolation-filters="sRGB">
<feFlood flood-opacity="0" result="BackgroundImageFix"/>
<feColorMatrix in="SourceAlpha" type="matrix" values="0 0 0 0 0 0 0 0 0 0 0 0 0 0 0 0 0 0 127 0" result="hardAlpha"/>
<feOffset dx="2.2311" dy="2.2311"/>
<feGaussianBlur stdDeviation="27.8887"/>
<feComposite in2="hardAlpha" operator="out"/>
<feColorMatrix type="matrix" values="0 0 0 0 0 0 0 0 0 0 0 0 0 0 0 0 0 0 0.15 0"/>
<feBlend mode="normal" in2="BackgroundImageFix" result="effect1_dropShadow_222_197"/>
<feBlend mode="normal" in="SourceGraphic" in2="effect1_dropShadow_222_197" result="shape"/>
</filter>
<filter id="filter2_d_222_197" x="209.562" y="27.7276" width="90.33" height="90.33" filterUnits="userSpaceOnUse" color-interpolation-filters="sRGB">
<feFlood flood-opacity="0" result="BackgroundImageFix"/>
<feColorMatrix in="SourceAlpha" type="matrix" values="0 0 0 0 0 0 0 0 0 0 0 0 0 0 0 0 0 0 127 0" result="hardAlpha"/>
<feOffset dx="1.54544" dy="1.54544"/>
<feGaussianBlur stdDeviation="13.9089"/>
<feColorMatrix type="matrix" values="0 0 0 0 0.176471 0 0 0 0 0.168627 0 0 0 0 0.494118 0 0 0 0.1 0"/>
<feBlend mode="normal" in2="BackgroundImageFix" result="effect1_dropShadow_222_197"/>
<feBlend mode="normal" in="SourceGraphic" in2="effect1_dropShadow_222_197" result="shape"/>
</filter>
<filter id="filter3_d_222_197" x="8.26254" y="85.5352" width="694.746" height="161.284" filterUnits="userSpaceOnUse" color-interpolation-filters="sRGB">
<feFlood flood-opacity="0" result="BackgroundImageFix"/>
<feColorMatrix in="SourceAlpha" type="matrix" values="0 0 0 0 0 0 0 0 0 0 0 0 0 0 0 0 0 0 127 0" result="hardAlpha"/>
<feOffset dx="2.2311" dy="2.2311"/>
<feGaussianBlur stdDeviation="27.8887"/>
<feComposite in2="hardAlpha" operator="out"/>
<feColorMatrix type="matrix" values="0 0 0 0 0 0 0 0 0 0 0 0 0 0 0 0 0 0 0.15 0"/>
<feBlend mode="normal" in2="BackgroundImageFix" result="effect1_dropShadow_222_197"/>
<feBlend mode="normal" in="SourceGraphic" in2="effect1_dropShadow_222_197" result="shape"/>
</filter>
<filter id="filter4_d_222_197" x="8.26254" y="152.217" width="694.746" height="161.284" filterUnits="userSpaceOnUse" color-interpolation-filters="sRGB">
<feFlood flood-opacity="0" result="BackgroundImageFix"/>
<feColorMatrix in="SourceAlpha" type="matrix" values="0 0 0 0 0 0 0 0 0 0 0 0 0 0 0 0 0 0 127 0" result="hardAlpha"/>
<feOffset dx="2.2311" dy="2.2311"/>
<feGaussianBlur stdDeviation="27.8887"/>
<feComposite in2="hardAlpha" operator="out"/>
<feColorMatrix type="matrix" values="0 0 0 0 0 0 0 0 0 0 0 0 0 0 0 0 0 0 0.15 0"/>
<feBlend mode="normal" in2="BackgroundImageFix" result="effect1_dropShadow_222_197"/>
<feBlend mode="normal" in="SourceGraphic" in2="effect1_dropShadow_222_197" result="shape"/>
</filter>
<filter id="filter5_d_222_197" x="427.709" y="57.3465" width="146.249" height="146.249" filterUnits="userSpaceOnUse" color-interpolation-filters="sRGB">
<feFlood flood-opacity="0" result="BackgroundImageFix"/>
<feColorMatrix in="SourceAlpha" type="matrix" values="0 0 0 0 0 0 0 0 0 0 0 0 0 0 0 0 0 0 127 0" result="hardAlpha"/>
<feOffset dx="2.2311" dy="2.2311"/>
<feGaussianBlur stdDeviation="27.8887"/>
<feComposite in2="hardAlpha" operator="out"/>
<feColorMatrix type="matrix" values="0 0 0 0 0 0 0 0 0 0 0 0 0 0 0 0 0 0 0.15 0"/>
<feBlend mode="normal" in2="BackgroundImageFix" result="effect1_dropShadow_222_197"/>
<feBlend mode="normal" in="SourceGraphic" in2="effect1_dropShadow_222_197" result="shape"/>
</filter>
<filter id="filter6_d_222_197" x="454.982" y="84.6204" width="90.33" height="90.33" filterUnits="userSpaceOnUse" color-interpolation-filters="sRGB">
<feFlood flood-opacity="0" result="BackgroundImageFix"/>
<feColorMatrix in="SourceAlpha" type="matrix" values="0 0 0 0 0 0 0 0 0 0 0 0 0 0 0 0 0 0 127 0" result="hardAlpha"/>
<feOffset dx="1.54544" dy="1.54544"/>
<feGaussianBlur stdDeviation="13.9089"/>
<feColorMatrix type="matrix" values="0 0 0 0 0.176471 0 0 0 0 0.168627 0 0 0 0 0.494118 0 0 0 0.1 0"/>
<feBlend mode="normal" in2="BackgroundImageFix" result="effect1_dropShadow_222_197"/>
<feBlend mode="normal" in="SourceGraphic" in2="effect1_dropShadow_222_197" result="shape"/>
</filter>
<filter id="filter7_d_222_197" x="0.453702" y="57.3465" width="146.249" height="146.249" filterUnits="userSpaceOnUse" color-interpolation-filters="sRGB">
<feFlood flood-opacity="0" result="BackgroundImageFix"/>
<feColorMatrix in="SourceAlpha" type="matrix" values="0 0 0 0 0 0 0 0 0 0 0 0 0 0 0 0 0 0 127 0" result="hardAlpha"/>
<feOffset dx="2.2311" dy="2.2311"/>
<feGaussianBlur stdDeviation="27.8887"/>
<feComposite in2="hardAlpha" operator="out"/>
<feColorMatrix type="matrix" values="0 0 0 0 0 0 0 0 0 0 0 0 0 0 0 0 0 0 0.15 0"/>
<feBlend mode="normal" in2="BackgroundImageFix" result="effect1_dropShadow_222_197"/>
<feBlend mode="normal" in="SourceGraphic" in2="effect1_dropShadow_222_197" result="shape"/>
</filter>
<filter id="filter8_d_222_197" x="27.7276" y="84.6207" width="90.33" height="90.33" filterUnits="userSpaceOnUse" color-interpolation-filters="sRGB">
<feFlood flood-opacity="0" result="BackgroundImageFix"/>
<feColorMatrix in="SourceAlpha" type="matrix" values="0 0 0 0 0 0 0 0 0 0 0 0 0 0 0 0 0 0 127 0" result="hardAlpha"/>
<feOffset dx="1.54544" dy="1.54544"/>
<feGaussianBlur stdDeviation="13.9089"/>
<feColorMatrix type="matrix" values="0 0 0 0 0.176471 0 0 0 0 0.168627 0 0 0 0 0.494118 0 0 0 0.1 0"/>
<feBlend mode="normal" in2="BackgroundImageFix" result="effect1_dropShadow_222_197"/>
<feBlend mode="normal" in="SourceGraphic" in2="effect1_dropShadow_222_197" result="shape"/>
</filter>
<filter id="filter9_d_222_197" x="303.883" y="176.71" width="146.249" height="146.249" filterUnits="userSpaceOnUse" color-interpolation-filters="sRGB">
<feFlood flood-opacity="0" result="BackgroundImageFix"/>
<feColorMatrix in="SourceAlpha" type="matrix" values="0 0 0 0 0 0 0 0 0 0 0 0 0 0 0 0 0 0 127 0" result="hardAlpha"/>
<feOffset dx="2.2311" dy="2.2311"/>
<feGaussianBlur stdDeviation="27.8887"/>
<feComposite in2="hardAlpha" operator="out"/>
<feColorMatrix type="matrix" values="0 0 0 0 0 0 0 0 0 0 0 0 0 0 0 0 0 0 0.15 0"/>
<feBlend mode="normal" in2="BackgroundImageFix" result="effect1_dropShadow_222_197"/>
<feBlend mode="normal" in="SourceGraphic" in2="effect1_dropShadow_222_197" result="shape"/>
</filter>
<filter id="filter10_d_222_197" x="331.157" y="203.984" width="90.33" height="90.33" filterUnits="userSpaceOnUse" color-interpolation-filters="sRGB">
<feFlood flood-opacity="0" result="BackgroundImageFix"/>
<feColorMatrix in="SourceAlpha" type="matrix" values="0 0 0 0 0 0 0 0 0 0 0 0 0 0 0 0 0 0 127 0" result="hardAlpha"/>
<feOffset dx="1.54544" dy="1.54544"/>
<feGaussianBlur stdDeviation="13.9089"/>
<feColorMatrix type="matrix" values="0 0 0 0 0.176471 0 0 0 0 0.168627 0 0 0 0 0.494118 0 0 0 0.1 0"/>
<feBlend mode="normal" in2="BackgroundImageFix" result="effect1_dropShadow_222_197"/>
<feBlend mode="normal" in="SourceGraphic" in2="effect1_dropShadow_222_197" result="shape"/>
</filter>
<linearGradient id="paint0_linear_222_197" x1="374.574" y1="241.525" x2="374.574" y2="253.288" gradientUnits="userSpaceOnUse">
<stop stop-color="#E52D27"/>
<stop offset="1" stop-color="#BF171D"/>
</linearGradient>
</defs>
</svg>
