<svg width="26" height="24" viewBox="0 0 26 24" fill="none" xmlns="http://www.w3.org/2000/svg">
<path fill-rule="evenodd" clip-rule="evenodd" d="M3.35484 0C1.50214 0 0 1.43262 0 3.2V4H3.35484V8H0V10H3.35484V14H0V16H3.35484V20H0V20.8C0 22.5674 1.50214 24 3.35484 24H22.6452C24.4979 24 26 22.5674 26 20.8V20H22.6452V16H26V14H22.6452V10H26V8H22.6452V4H26V3.2C26 1.43262 24.4979 0 22.6452 0H3.35484ZM10.2963 5.10137L19.7166 10.5363C20.4992 10.9877 20.5312 12.0596 19.7768 12.5529L10.3565 18.7123C9.52148 19.2582 8.3871 18.6881 8.3871 17.7225V6.12832C8.3871 5.19355 9.45801 4.61777 10.2963 5.10137Z" fill="#3A3B3F"/>
</svg>
