<svg width="26" height="21" viewBox="0 0 26 21" fill="none" xmlns="http://www.w3.org/2000/svg">
<path d="M26 2.5571C25.0433 2.9768 24.0153 3.26045 22.9363 3.38806C24.0377 2.73495 24.8834 1.70073 25.2816 0.468457C24.2346 1.08317 23.089 1.51627 21.8944 1.74906C20.9214 0.723472 19.5351 0.0825195 18.0008 0.0825195C15.0549 0.0825195 12.6665 2.44537 12.6665 5.35965C12.6665 5.77332 12.7137 6.17604 12.8046 6.56238C8.37139 6.34223 4.44092 4.24132 1.80995 1.04852C1.35088 1.82793 1.08784 2.73455 1.08784 3.70155C1.08784 5.53247 2.02962 7.14766 3.46084 8.09407C2.61376 8.06782 1.78532 7.84148 1.04467 7.43393C1.04437 7.45603 1.04437 7.47814 1.04437 7.50034C1.04437 10.0572 2.88305 12.1902 5.32319 12.675C4.5377 12.8863 3.71376 12.9173 2.91434 12.7654C3.59308 14.862 5.56309 16.3877 7.8972 16.4304C6.07161 17.8457 3.77152 18.6894 1.27248 18.6894C0.841852 18.6894 0.41732 18.6644 0 18.6157C2.36062 20.113 5.16445 20.9867 8.1768 20.9867C17.9884 20.9867 23.3537 12.9453 23.3537 5.97166C23.3537 5.74277 23.3486 5.51519 23.3383 5.28891C24.3825 4.54204 25.2839 3.61697 26 2.5571Z" fill="#55ACEE"/>
</svg>
