<svg width="121" height="93" viewBox="0 0 121 93" fill="none" xmlns="http://www.w3.org/2000/svg">
<path d="M111.52 36.4346L113.832 52.4142L93.3842 80.2013L65.9999 60.0494L93.2642 23L111.52 36.4346ZM104.704 45.6969L111.55 50.7349L109.816 38.7502L104.704 45.6969ZM88.7901 62.5423L93.9022 55.5955C94.3623 54.9703 94.543 54.2467 94.4503 53.4645C94.3176 52.6886 93.9403 52.0541 93.3242 51.6006L86.4781 46.5627C85.862 46.1093 85.1439 45.9378 84.3637 46.0419C83.5893 46.1859 82.9521 46.5737 82.4921 47.1989L77.38 54.1457C76.9199 54.7709 76.7392 55.4946 76.8319 56.2768C76.9646 57.0526 77.3419 57.6872 77.958 58.1406L84.8041 63.1786C85.4202 63.632 86.1383 63.8035 86.9185 63.6994C87.6929 63.5553 88.3301 63.1675 88.7901 62.5423ZM93.9322 69.8959L102.452 58.3179L94.4802 59.5905L92.7762 61.906L93.9322 69.8959Z" fill="#FF3D00"/>
<path d="M47.8945 27.9092L39.1709 31.9368L40.5292 34.8789L23.0819 42.934L21.7236 39.992L13 44.0195L33.3748 88.1508L42.0984 84.1232L40.7401 81.1811L58.1873 73.126L59.5457 76.068L68.2693 72.0405L47.8945 27.9092ZM20.1741 44.2766L21.5324 47.2186L18.6245 48.5612L17.2662 45.6191L20.1741 44.2766ZM46.3449 32.1938L47.7032 35.1359L44.7954 36.4784L43.4371 33.5364L46.3449 32.1938ZM41.8875 37.821L48.6791 52.5314L31.2319 60.5865L24.4403 45.8761L41.8875 37.821ZM22.8907 50.1607L24.249 53.1028L21.3412 54.4453L19.9828 51.5033L22.8907 50.1607ZM49.0616 38.078L50.4199 41.0201L47.512 42.3626L46.1537 39.4205L49.0616 38.078ZM25.6073 56.0449L26.9657 58.987L24.0578 60.3295L22.6995 57.3874L25.6073 56.0449ZM51.7782 43.9622L53.1365 46.9042L50.2287 48.2468L48.8703 45.3047L51.7782 43.9622ZM28.324 61.9291L29.6823 64.8711L26.7744 66.2137L25.4161 63.2716L28.324 61.9291ZM54.4949 49.8463L55.8532 52.7884L52.9453 54.1309L51.587 51.1889L54.4949 49.8463ZM50.0374 55.4735L56.829 70.1839L39.3818 78.239L32.5902 63.5286L50.0374 55.4735ZM31.0406 67.8132L32.399 70.7553L29.4911 72.0978L28.1328 69.1558L31.0406 67.8132ZM57.2115 55.7305L58.5698 58.6726L55.6619 60.0151L54.3036 57.073L57.2115 55.7305ZM33.7573 73.6974L35.1156 76.6395L32.2077 77.982L30.8494 75.0399L33.7573 73.6974ZM59.9281 61.6147L61.2865 64.5567L58.3786 65.8993L57.0203 62.9572L59.9281 61.6147ZM36.4739 79.5816L37.8322 82.5237L34.9244 83.8662L33.566 80.9241L36.4739 79.5816ZM62.6448 67.4988L64.0031 70.4409L61.0952 71.7834L59.7369 68.8414L62.6448 67.4988Z" fill="#FF7E00"/>
<rect x="40.0504" y="8" width="7" height="7" rx="1.5" transform="rotate(-45 40.0504 8)" stroke="#FF3D00"/>
<path d="M66 79.5C68.4 81.9 74 77.5 76.5 75" stroke="#286EE6"/>
<rect x="63.5" y="29.5" width="8" height="4" rx="1.5" stroke="#F6C338"/>
<rect x="80.5" y="0.5" width="3" height="4" rx="1.5" stroke="#EB01FF"/>
<rect x="3.5" y="46.5" width="1" height="1" rx="0.5" stroke="#EB01FF"/>
<path d="M1 40C5 30.4 6.6 40.8 13 32" stroke="#0061FF"/>
<path d="M2.53771 41.7064C7.26329 38.91 5.55808 43.9369 11.4627 42.2937" stroke="#9663FF"/>
<path d="M66.0001 13.1575C76.2807 11.5859 68.2269 18.3577 79.0713 19.2522" stroke="#FF3D00"/>
<path d="M28.0245 19.0816C28.1741 18.6209 28.8259 18.6209 28.9755 19.0816L29.4838 20.6459C29.6846 21.2639 30.2606 21.6824 30.9104 21.6824H32.5552C33.0396 21.6824 33.241 22.3022 32.8491 22.5869L31.5184 23.5537C30.9927 23.9357 30.7727 24.6127 30.9735 25.2307L31.4818 26.7951C31.6315 27.2557 31.1042 27.6388 30.7124 27.3541L29.3817 26.3873C28.8559 26.0053 28.1441 26.0053 27.6183 26.3873L26.2876 27.3541C25.8958 27.6388 25.3685 27.2557 25.5182 26.7951L26.0265 25.2307C26.2273 24.6127 26.0073 23.9357 25.4816 23.5537L24.1509 22.5869C23.759 22.3022 23.9604 21.6824 24.4448 21.6824H26.0896C26.7394 21.6824 27.3154 21.2639 27.5162 20.6459L28.0245 19.0816Z" stroke="#069B5A"/>
<path d="M105.024 6.08156C105.174 5.6209 105.826 5.62091 105.976 6.08156L106.484 7.6459C106.685 8.26393 107.261 8.68237 107.91 8.68237H109.555C110.04 8.68237 110.241 9.30218 109.849 9.58688L108.518 10.5537C107.993 10.9357 107.773 11.6127 107.974 12.2307L108.482 13.7951C108.631 14.2557 108.104 14.6388 107.712 14.3541L106.382 13.3873C105.856 13.0053 105.144 13.0053 104.618 13.3873L103.288 14.3541C102.896 14.6388 102.369 14.2557 102.518 13.7951L103.026 12.2307C103.227 11.6127 103.007 10.9357 102.482 10.5537L101.151 9.58688C100.759 9.30218 100.96 8.68237 101.445 8.68237H103.09C103.739 8.68237 104.315 8.26393 104.516 7.6459L105.024 6.08156Z" stroke="#069B5A"/>
<ellipse cx="97.5" cy="85.5" rx="20.5" ry="0.5" fill="#EBEBEB"/>
<ellipse cx="38.5" cy="92.5" rx="20.5" ry="0.5" fill="#EBEBEB"/>
</svg>
