<svg width="32" height="21" viewBox="0 0 32 21" fill="none" xmlns="http://www.w3.org/2000/svg">
<path d="M21 7.07649L29.3472 3.18053C29.6266 3.05016 29.9371 2.98861 30.2492 3.00173C30.5612 3.01486 30.8645 3.10221 31.1303 3.25552C31.396 3.40882 31.6154 3.62298 31.7676 3.87768C31.9199 4.13238 31.9998 4.41917 32 4.71084V16.2892C31.9998 16.5808 31.9199 16.8676 31.7676 17.1223C31.6154 17.377 31.396 17.5912 31.1303 17.7445C30.8645 17.8978 30.5612 17.9851 30.2492 17.9983C29.9371 18.0114 29.6266 17.9498 29.3472 17.8195L21 13.9235V7.07649Z" fill="#455A64"/>
<path d="M17.5 0H3.5C1.567 0 0 1.567 0 3.5V17.5C0 19.433 1.567 21 3.5 21H17.5C19.433 21 21 19.433 21 17.5V3.5C21 1.567 19.433 0 17.5 0Z" fill="#455A64"/>
</svg>
