<svg width="81" height="81" viewBox="0 0 81 81" fill="none" xmlns="http://www.w3.org/2000/svg">
<g filter="url(#filter0_d_327_4939)">
<rect x="23.8691" y="24" width="30.6971" height="30.6971" rx="2.73476" fill="white"/>
<rect x="23.9143" y="24.0451" width="30.6069" height="30.6069" rx="2.68962" stroke="#D8D8D8" strokeWidth="0.0902857"/>
</g>
<path d="M43.6695 44.3744C43.9866 44.3744 44.2437 44.1173 44.2437 43.8002V34.5447C44.2437 34.2275 43.9866 33.9705 43.6695 33.9705H34.414C34.0969 33.9705 33.8398 34.2275 33.8398 34.5447V43.8002C33.8398 44.1173 34.0969 44.3744 34.414 44.3744H43.6695Z" fill="#395185"/>
<path d="M41.0183 44.3745V40.3455H42.3707L42.5731 38.7754H41.0183V37.7729C41.0183 37.3183 41.1445 37.0085 41.7965 37.0085L42.6279 37.0081V35.6038C42.4841 35.5846 41.9905 35.5419 41.4163 35.5419C40.2175 35.5419 39.3969 36.2736 39.3969 37.6174V38.7754H38.041V40.3455H39.3969V44.3745H41.0183Z" fill="white"/>
<path d="M37.5215 41.0913L41.5056 39.0221L37.5215 36.9355V41.0913Z" fill="white"/>
<path opacity="0.12" d="M37.5215 36.9355L41.0162 39.2764L41.5056 39.0221L37.5215 36.9355Z" fill="#420000"/>
<path d="M46.2553 36.2131C46.2553 36.2131 46.1115 35.1958 45.6683 34.745C45.1101 34.1554 44.4828 34.1554 44.1893 34.1207C42.1347 33.9705 39.0442 33.9705 39.0442 33.9705H39.0384C39.0384 33.9705 35.9479 33.9705 33.8818 34.1207C33.5941 34.1554 32.9668 34.1554 32.4028 34.745C31.9654 35.1958 31.8215 36.2131 31.8215 36.2131C31.8215 36.2131 31.6719 37.4153 31.6719 38.6118V39.7331C31.6719 40.9295 31.8215 42.126 31.8215 42.126C31.8215 42.126 31.9654 43.1432 32.4085 43.5941C32.9668 44.1836 33.7034 44.1663 34.0315 44.2241C35.2113 44.3397 39.0384 44.3744 39.0384 44.3744C39.0384 44.3744 42.1347 44.3686 44.195 44.2183C44.4828 44.1836 45.1101 44.1836 45.6741 43.5941C46.1172 43.1432 46.2611 42.126 46.2611 42.126C46.2611 42.126 46.4107 40.9295 46.4107 39.7331V38.6118C46.405 37.4153 46.2553 36.2131 46.2553 36.2131ZM37.5191 41.0914V36.9356L41.5016 39.0221L37.5191 41.0914H37.5191Z" fill="url(#paint0_linear_327_4939)"/>
<defs>
<filter id="filter0_d_327_4939" x="0.623655" y="0.754514" width="79.923" height="79.9229" filterUnits="userSpaceOnUse" color-interpolation-filters="sRGB">
<feFlood flood-opacity="0" result="BackgroundImageFix"/>
<feColorMatrix in="SourceAlpha" type="matrix" values="0 0 0 0 0 0 0 0 0 0 0 0 0 0 0 0 0 0 127 0" result="hardAlpha"/>
<feOffset dx="1.36738" dy="1.36738"/>
<feGaussianBlur stdDeviation="12.3064"/>
<feColorMatrix type="matrix" values="0 0 0 0 0.176471 0 0 0 0 0.168627 0 0 0 0 0.494118 0 0 0 0.1 0"/>
<feBlend mode="normal" in2="BackgroundImageFix" result="effect1_dropShadow_327_4939"/>
<feBlend mode="normal" in="SourceGraphic" in2="effect1_dropShadow_327_4939" result="shape"/>
</filter>
<linearGradient id="paint0_linear_327_4939" x1="39.0384" y1="33.9705" x2="39.0384" y2="44.3775" gradientUnits="userSpaceOnUse">
<stop stop-color="#E52D27"/>
<stop offset="1" stop-color="#BF171D"/>
</linearGradient>
</defs>
</svg>
