<svg width="34" height="24" viewBox="0 0 34 24" fill="none" xmlns="http://www.w3.org/2000/svg">
<path d="M33.6415 5.17333C33.6415 5.17333 33.3096 2.82667 32.2874 1.78667C30.9996 0.426667 29.5525 0.426667 28.8754 0.346667C24.136 0 17.0066 0 17.0066 0H16.9934C16.9934 0 9.86412 0 5.09801 0.346667C4.43421 0.426667 2.98709 0.426667 1.68605 1.78667C0.677078 2.82667 0.34518 5.17333 0.34518 5.17333C0.34518 5.17333 0 7.94667 0 10.7067V13.2933C0 16.0533 0.34518 18.8133 0.34518 18.8133C0.34518 18.8133 0.677078 21.16 1.69934 22.2C2.98709 23.56 4.68642 23.52 5.44319 23.6533C8.16478 23.92 16.9934 24 16.9934 24C16.9934 24 24.1359 23.9867 28.8887 23.64C29.5525 23.56 30.9996 23.56 32.3007 22.2C33.3229 21.16 33.6548 18.8133 33.6548 18.8133C33.6548 18.8133 34 16.0533 34 13.2933V10.7067C33.9867 7.94667 33.6415 5.17333 33.6415 5.17333ZM13.4886 16.4267V6.84L22.6755 11.6533L13.4884 16.4267H13.4886Z" fill="url(#paint0_linear_327_5497)"/>
<defs>
<linearGradient id="paint0_linear_327_5497" x1="16.9932" y1="0" x2="16.9932" y2="24.0072" gradientUnits="userSpaceOnUse">
<stop stop-color="#E52D27"/>
<stop offset="1" stop-color="#BF171D"/>
</linearGradient>
</defs>
</svg>
