<svg width="30" height="21" viewBox="0 0 30 21" fill="none" xmlns="http://www.w3.org/2000/svg">
<path d="M29.4373 4.96233C29.4373 4.96233 29.1551 2.96642 28.2856 2.08187C27.1903 0.925149 25.9595 0.925149 25.3836 0.857106C21.3526 0.562256 15.2889 0.562256 15.2889 0.562256H15.2776C15.2776 0.562256 9.21394 0.562256 5.16023 0.857106C4.59565 0.925149 3.36482 0.925149 2.25826 2.08187C1.40009 2.96642 1.1178 4.96233 1.1178 4.96233C1.1178 4.96233 0.824219 7.32113 0.824219 9.6686V11.8686C0.824219 14.2161 1.1178 16.5636 1.1178 16.5636C1.1178 16.5636 1.40009 18.5595 2.26955 19.444C3.36482 20.6007 4.81016 20.5667 5.45381 20.6801C7.76861 20.9069 15.2776 20.975 15.2776 20.975C15.2776 20.975 21.3525 20.9636 25.3949 20.6688C25.9595 20.6007 27.1903 20.6007 28.2969 19.444C29.1664 18.5595 29.4486 16.5636 29.4486 16.5636C29.4486 16.5636 29.7422 14.2161 29.7422 11.8686V9.6686C29.7309 7.32113 29.4373 4.96233 29.4373 4.96233ZM12.2966 14.5336V6.37988L20.1104 10.4738L12.2965 14.5336H12.2966Z" fill="url(#paint0_linear_3419_600)"/>
<defs>
<linearGradient id="paint0_linear_3419_600" x1="15.2774" y1="0.562256" x2="15.2774" y2="20.9811" gradientUnits="userSpaceOnUse">
<stop stop-color="#E52D27"/>
<stop offset="1" stop-color="#BF171D"/>
</linearGradient>
</defs>
</svg>
