<svg width="43" height="49" viewBox="0 0 43 49" fill="none" xmlns="http://www.w3.org/2000/svg">
<path fill-rule="evenodd" clip-rule="evenodd" d="M5.29142 18.8577L9.57748 21.4292L26.6829 11.4475C27.0225 11.2496 27.3755 11.0778 27.7348 10.9346L35.787 6.24209C39.0161 4.36027 43.0233 6.76443 42.9999 10.5696L42.827 38.6851C42.8036 42.4903 38.7672 44.8426 35.5615 42.9192L35.3523 42.7937V36.8158L37.7933 38.2804L37.9616 10.9093L33.8633 13.2977C33.9286 13.9967 33.9124 14.8624 33.9012 15.4623C33.8988 15.5884 33.8967 15.7028 33.8955 15.8013L33.5742 44.1072C33.5313 47.8888 29.5271 50.2223 26.3311 48.3282L2.40906 34.1506C-0.816517 32.2389 -0.79958 27.4633 2.43949 25.5757L2.88865 25.314L7.80659 28.3825L5.24785 29.8736L28.2065 43.5211L28.2668 38.6459L24.1602 36.1562L6.802 25.7418L4.5065 24.3883L4.5265 24.3766L2.43237 23.1202C-0.773361 21.1969 -0.744117 16.4404 2.48501 14.5586L26.3444 0.654194C29.5735 -1.22763 33.5807 1.17654 33.5573 4.98169L33.5517 5.88433L28.4979 8.75377L28.519 5.32145L5.29142 18.8577ZM28.4747 16.438L14.7341 24.4456L28.3406 32.6789L28.3673 30.5221L28.4747 16.438Z" fill="#451ECC"/>
</svg>
