<svg width="206" height="46" viewBox="0 0 206 46" fill="none" xmlns="http://www.w3.org/2000/svg">
<path d="M54.1019 11.776H59.4059V30.5882H70.8978V34.96H54.1019V11.776Z" fill="white"/>
<path d="M73.5012 17.1414H78.6087V34.96H73.5012V17.1414ZM76.0549 14.6574C75.1163 14.6574 74.3524 14.3814 73.7631 13.8294C73.1737 13.2774 72.8791 12.593 72.8791 11.776C72.8791 10.959 73.1737 10.2746 73.7631 9.72256C74.3524 9.17056 75.1163 8.89456 76.0549 8.89456C76.9935 8.89456 77.7574 9.15952 78.3467 9.68944C78.9361 10.2194 79.2308 10.8818 79.2308 11.6766C79.2308 12.5378 78.9361 13.2554 78.3467 13.8294C77.7574 14.3814 76.9935 14.6574 76.0549 14.6574Z" fill="white"/>
<path d="M100.832 17.1414L93.4002 34.96H88.129L80.7297 17.1414H86.0009L90.8792 29.2634L95.9213 17.1414H100.832Z" fill="white"/>
<path d="M119.691 26.117C119.691 26.1832 119.658 26.6469 119.593 27.508H106.268C106.508 28.612 107.075 29.4842 107.97 30.1245C108.865 30.7648 109.978 31.085 111.31 31.085C112.226 31.085 113.034 30.9525 113.732 30.6875C114.453 30.4005 115.118 29.9589 115.73 29.3627L118.447 32.3435C116.788 34.2645 114.365 35.225 111.179 35.225C109.192 35.225 107.435 34.8386 105.907 34.0658C104.379 33.2709 103.201 32.1779 102.371 30.7869C101.542 29.3958 101.127 27.8171 101.127 26.0507C101.127 24.3064 101.531 22.7387 102.339 21.3477C103.168 19.9346 104.292 18.8416 105.711 18.0688C107.151 17.2739 108.756 16.8765 110.524 16.8765C112.248 16.8765 113.809 17.2518 115.206 18.0026C116.603 18.7533 117.694 19.8352 118.48 21.2483C119.287 22.6394 119.691 24.2622 119.691 26.117ZM110.557 20.7846C109.4 20.7846 108.428 21.1158 107.643 21.7782C106.857 22.4406 106.377 23.3459 106.202 24.4941H114.878C114.704 23.368 114.223 22.4738 113.438 21.8114C112.652 21.1269 111.692 20.7846 110.557 20.7846Z" fill="white"/>
<path d="M130.982 35.3574C129.17 35.3574 127.413 35.1146 125.711 34.6288C124.03 34.121 122.677 33.4696 121.651 32.6747L123.452 28.6341C124.434 29.3627 125.602 29.9478 126.955 30.3894C128.308 30.831 129.661 31.0518 131.015 31.0518C132.521 31.0518 133.634 30.831 134.354 30.3894C135.075 29.9258 135.435 29.3186 135.435 28.5678C135.435 28.0158 135.216 27.5632 134.78 27.2099C134.365 26.8346 133.82 26.5365 133.143 26.3157C132.488 26.0949 131.593 25.852 130.458 25.587C128.712 25.1675 127.282 24.748 126.169 24.3285C125.056 23.909 124.096 23.2355 123.288 22.3082C122.502 21.3808 122.109 20.1443 122.109 18.5987C122.109 17.2518 122.469 16.0374 123.19 14.9555C123.91 13.8515 124.99 12.9794 126.431 12.339C127.893 11.6987 129.672 11.3786 131.768 11.3786C133.23 11.3786 134.66 11.5552 136.057 11.9085C137.454 12.2618 138.676 12.7696 139.724 13.432L138.087 17.5058C135.969 16.2914 133.852 15.6842 131.735 15.6842C130.251 15.6842 129.149 15.927 128.428 16.4128C127.73 16.8986 127.381 17.5389 127.381 18.3338C127.381 19.1286 127.784 19.7248 128.592 20.1222C129.421 20.4976 130.676 20.873 132.357 21.2483C134.103 21.6678 135.533 22.0874 136.646 22.5069C137.759 22.9264 138.709 23.5888 139.495 24.4941C140.302 25.3994 140.706 26.6248 140.706 28.1704C140.706 29.4952 140.335 30.7096 139.593 31.8136C138.872 32.8955 137.781 33.7566 136.319 34.397C134.856 35.0373 133.077 35.3574 130.982 35.3574Z" fill="white"/>
<path d="M154.676 16.8765C156.859 16.8765 158.616 17.5389 159.947 18.8637C161.301 20.1885 161.977 22.1536 161.977 24.759V34.96H156.87V25.5539C156.87 24.1408 156.564 23.092 155.953 22.4075C155.342 21.701 154.458 21.3477 153.301 21.3477C152.013 21.3477 150.987 21.7562 150.223 22.5731C149.46 23.368 149.078 24.5603 149.078 26.1501V34.96H143.97V17.1414H148.848V19.228C149.525 18.4773 150.365 17.9032 151.369 17.5058C152.373 17.0862 153.476 16.8765 154.676 16.8765Z" fill="white"/>
<path d="M173.712 16.8765C176.44 16.8765 178.535 17.5389 179.998 18.8637C181.46 20.1664 182.191 22.1426 182.191 24.7922V34.96H177.411V32.741C176.451 34.397 174.661 35.225 172.042 35.225C170.689 35.225 169.51 34.9931 168.506 34.5294C167.524 34.0658 166.771 33.4254 166.247 32.6085C165.723 31.7915 165.461 30.8642 165.461 29.8264C165.461 28.1704 166.072 26.8677 167.295 25.9182C168.539 24.9688 170.449 24.4941 173.024 24.4941H177.084C177.084 23.368 176.746 22.5069 176.069 21.9107C175.392 21.2925 174.377 20.9834 173.024 20.9834C172.086 20.9834 171.158 21.1379 170.241 21.447C169.346 21.7341 168.582 22.1315 167.949 22.6394L166.116 19.0293C167.076 18.3448 168.222 17.8149 169.554 17.4395C170.907 17.0642 172.293 16.8765 173.712 16.8765ZM173.319 31.7474C174.192 31.7474 174.967 31.5486 175.643 31.1512C176.32 30.7317 176.8 30.1245 177.084 29.3296V27.508H173.581C171.485 27.508 170.438 28.2035 170.438 29.5946C170.438 30.257 170.689 30.7869 171.191 31.1843C171.715 31.5597 172.424 31.7474 173.319 31.7474Z" fill="white"/>
<path d="M197.226 16.8765C198.863 16.8765 200.347 17.2629 201.678 18.0357C203.032 18.7864 204.09 19.8573 204.854 21.2483C205.618 22.6173 206 24.2181 206 26.0507C206 27.8834 205.618 29.4952 204.854 30.8862C204.09 32.2552 203.032 33.3261 201.678 34.0989C200.347 34.8496 198.863 35.225 197.226 35.225C194.977 35.225 193.209 34.5074 191.922 33.0722V41.3853H186.814V17.1414H191.692V19.1949C192.958 17.6493 194.803 16.8765 197.226 16.8765ZM196.342 30.9856C197.651 30.9856 198.721 30.544 199.55 29.6608C200.401 28.7555 200.827 27.5522 200.827 26.0507C200.827 24.5493 200.401 23.357 199.55 22.4738C198.721 21.5685 197.651 21.1158 196.342 21.1158C195.032 21.1158 193.951 21.5685 193.1 22.4738C192.271 23.357 191.856 24.5493 191.856 26.0507C191.856 27.5522 192.271 28.7555 193.1 29.6608C193.951 30.544 195.032 30.9856 196.342 30.9856Z" fill="white"/>
<path fill-rule="evenodd" clip-rule="evenodd" d="M4.9802 17.7031L9.01417 20.1172L25.1135 10.7466C25.4332 10.5608 25.7653 10.3996 26.1036 10.2652L33.6822 5.85992C36.7214 4.09331 40.4928 6.35028 40.4708 9.92247L40.3081 36.3166C40.2861 39.8888 36.4871 42.0971 33.4699 40.2915L33.273 40.1737V34.5618L35.5705 35.9367L35.7289 10.2414L31.8716 12.4836C31.9331 13.1397 31.9178 13.9525 31.9072 14.5156C31.905 14.634 31.903 14.7414 31.9019 14.8339L31.5995 41.4068C31.5591 44.9568 27.7904 47.1475 24.7824 45.3694L2.26737 32.0597C-0.768492 30.2651 -0.752552 25.7819 2.29601 24.0099L2.71875 23.7641L7.34744 26.6448L4.9392 28.0446L26.5475 40.8566L26.6043 36.2798L22.7392 33.9426L6.40193 24.1658L4.24145 22.8951L4.26027 22.8842L2.2893 21.7047C-0.727875 19.8991 -0.700351 15.4339 2.33885 13.6673L24.7949 0.614142C27.8341 -1.15247 31.6056 1.1045 31.5836 4.67669L31.5783 5.52407L26.8218 8.21782L26.8416 4.99565L4.9802 17.7031ZM26.7999 15.4316L13.8675 22.9489L26.6737 30.6781L26.6988 28.6534L26.7999 15.4316Z" fill="white"/>
</svg>
